<?xml version="1.0" encoding="UTF-8" standalone="no"?>
<svg
   xmlns:dc="http://purl.org/dc/elements/1.1/"
   xmlns:cc="http://creativecommons.org/ns#"
   xmlns:rdf="http://www.w3.org/1999/02/22-rdf-syntax-ns#"
   xmlns:svg="http://www.w3.org/2000/svg"
   xmlns="http://www.w3.org/2000/svg"
   width="191.87798mm"
   height="139.77216mm"
   viewBox="0 0 191.87798 139.77216"
   version="1.1"
   id="svg475">
  <defs
     id="defs469" />
  <metadata
     id="metadata472">
    <rdf:RDF>
      <cc:Work
         rdf:about="">
        <dc:format>image/svg+xml</dc:format>
        <dc:type
           rdf:resource="http://purl.org/dc/dcmitype/StillImage" />
        <dc:title></dc:title>
      </cc:Work>
    </rdf:RDF>
  </metadata>
  <rect
     y="66.151939"
     x="293.59305"
     height="17.577917"
     width="252.61325"
     id="rect1616"
     style="opacity:0.86699997;fill:#7db1c8;fill-opacity:1;stroke:none;stroke-width:1;stroke-linecap:round;stroke-linejoin:round;stroke-miterlimit:4;stroke-dasharray:2.00000003, 2.00000003;stroke-dashoffset:0;stroke-opacity:1" />
  <path
     id="path6599"
     d="M 159.8876,129.26505 159.971,10.630652"
     style="fill:none;stroke:#a605a2;stroke-width:1;stroke-linecap:round;stroke-linejoin:miter;stroke-miterlimit:4;stroke-dasharray:2.00000007, 2.00000007;stroke-dashoffset:0;stroke-opacity:1;paint-order:markers fill stroke" />
  <path
     style="fill:none;stroke:#a605a2;stroke-width:1;stroke-linecap:round;stroke-linejoin:miter;stroke-miterlimit:4;stroke-dasharray:2.00000007, 2.00000007;stroke-dashoffset:0;stroke-opacity:1;paint-order:markers fill stroke"
     d="m 138.54369,129.26505 0.0834,-118.634398"
     id="path6601" />
  <path
     style="fill:none;stroke:#a605a2;stroke-width:1;stroke-linecap:round;stroke-linejoin:miter;stroke-miterlimit:4;stroke-dasharray:2.00000007, 2.00000007;stroke-dashoffset:0;stroke-opacity:1;paint-order:markers fill stroke"
     d="m 117.19977,129.26505 0.0834,-118.634398"
     id="path6597" />
  <path
     id="path6595"
     d="m 95.909538,129.26505 0.0834,-118.634398"
     style="fill:none;stroke:#a605a2;stroke-width:1;stroke-linecap:round;stroke-linejoin:miter;stroke-miterlimit:4;stroke-dasharray:2.00000007, 2.00000007;stroke-dashoffset:0;stroke-opacity:1;paint-order:markers fill stroke" />
  <path
     style="fill:none;stroke:#a605a2;stroke-width:1;stroke-linecap:round;stroke-linejoin:miter;stroke-miterlimit:4;stroke-dasharray:2.00000007, 2.00000007;stroke-dashoffset:0;stroke-opacity:1;paint-order:markers fill stroke"
     d="M 74.619325,129.26505 74.702765,10.630652"
     id="path6593" />
  <path
     id="path6547"
     d="M 53.170538,129.14153 53.253978,10.507122"
     style="fill:none;stroke:#a605a2;stroke-width:1;stroke-linecap:round;stroke-linejoin:miter;stroke-miterlimit:4;stroke-dasharray:2.00000007, 2.00000007;stroke-dashoffset:0;stroke-opacity:1;paint-order:markers fill stroke" />
  <path
     style="fill:none;stroke:#a605a2;stroke-width:1;stroke-linecap:round;stroke-linejoin:miter;stroke-miterlimit:4;stroke-dasharray:2.00000007, 2.00000007;stroke-dashoffset:0;stroke-opacity:1;paint-order:markers fill stroke"
     d="M 31.672142,129.14661 31.755582,10.512196"
     id="path5883" />
  <rect
     y="26.122911"
     x="10.553733"
     height="87.889236"
     width="170.77051"
     id="rect6603"
     style="opacity:0.88599997;fill:#ffffff;fill-opacity:1;stroke:none;stroke-width:0.26458335" />
  <rect
     style="opacity:0.67000002;fill:#a2ca00;fill-opacity:1;stroke:none;stroke-width:1.10746455;stroke-miterlimit:4;stroke-dasharray:none"
     id="rect1995"
     width="21.346252"
     height="17.577911"
     x="32.266304"
     y="25.500967" />
  <rect
     y="43.701183"
     x="74.592506"
     height="17.577911"
     width="21.346252"
     id="rect5847"
     style="opacity:0.67000002;fill:#a2ca00;fill-opacity:1;stroke:none;stroke-width:1.10746455;stroke-miterlimit:4;stroke-dasharray:none" />
  <rect
     style="opacity:0.86699997;fill:#c87dc2;fill-opacity:1;stroke:none;stroke-width:0.44367734;stroke-linecap:round;stroke-linejoin:round;stroke-miterlimit:4;stroke-dasharray:0.88735468, 0.88735468;stroke-dashoffset:0;stroke-opacity:1"
     id="rect1278"
     width="42.309959"
     height="17.577896"
     x="138.63176"
     y="96.434395" />
  <rect
     y="43.700821"
     x="95.938972"
     height="17.577917"
     width="63.647678"
     id="rect1276"
     style="opacity:0.86699997;fill:#ebb850;fill-opacity:0.96078431;stroke:none;stroke-width:0.49589992;stroke-linecap:round;stroke-linejoin:round;stroke-miterlimit:4;stroke-dasharray:0.99179984, 0.99179984;stroke-dashoffset:0;stroke-opacity:1" />
  <rect
     style="opacity:0.86699997;fill:#ebb850;fill-opacity:0.96078431;stroke:none;stroke-width:0.49589992;stroke-linecap:round;stroke-linejoin:round;stroke-miterlimit:4;stroke-dasharray:0.99179984, 0.99179984;stroke-dashoffset:0;stroke-opacity:1"
     id="rect1274"
     width="63.647678"
     height="17.577917"
     x="10.553733"
     y="43.701157" />
  <path
     style="opacity:0.86699997;fill:#7db1c8;fill-opacity:0.86666667;stroke:none;stroke-width:1.10746467;stroke-miterlimit:4;stroke-dasharray:none"
     d="m 159.97775,43.70118 v 17.57774 h -21.34599 -21.3465 -21.345992 -21.346496 -21.3465 -21.34599 -21.3465 v 17.57774 5.2e-4 17.57722 5.2e-4 17.57774 h 21.3465 21.34599 21.3465 21.346496 21.345992 21.3465 v -5.2e-4 -17.57722 -5.2e-4 h 21.34599 21.3465 V 78.85666 61.27892 43.70118 Z"
     id="path1255" />
  <rect
     y="26.122911"
     x="10.553733"
     height="17.577896"
     width="21.346251"
     id="rect4376"
     style="opacity:0.86699997;fill:#c87dc2;fill-opacity:1;stroke:none;stroke-width:0.31514233;stroke-linecap:round;stroke-linejoin:round;stroke-miterlimit:4;stroke-dasharray:0.63028466, 0.63028466;stroke-dashoffset:0;stroke-opacity:1" />
  <rect
     y="26.122906"
     x="53.246239"
     height="17.577917"
     width="128.46048"
     id="rect1581"
     style="opacity:0.86699997;fill:#ebb850;fill-opacity:0.96078431;stroke:none;stroke-width:0.70451057;stroke-linecap:round;stroke-linejoin:round;stroke-miterlimit:4;stroke-dasharray:1.40902117, 1.40902117;stroke-dashoffset:0;stroke-opacity:1" />
  <rect
     style="opacity:0.86699997;fill:none;fill-opacity:1;stroke:#ff0000;stroke-width:1.10746455;stroke-miterlimit:4;stroke-dasharray:none"
     id="use3654"
     width="21.346252"
     height="17.577911"
     x="10.553733"
     y="26.122911" />
  <rect
     style="opacity:0.86699997;fill:none;fill-opacity:1;stroke:#ff0000;stroke-width:1.10746455;stroke-miterlimit:4;stroke-dasharray:none"
     id="use1157"
     width="21.346252"
     height="17.577911"
     x="31.899988"
     y="26.122911" />
  <path
     id="rect1188"
     d="m 53.246242,26.122912 v 17.57825 H 74.592745 95.938728 117.28523 V 26.122912 H 95.938728 74.592745 Z"
     style="opacity:0.86699997;fill:none;fill-opacity:1;stroke:#ff0000;stroke-width:1.10746455;stroke-miterlimit:4;stroke-dasharray:none" />
  <path
     style="opacity:0.86699997;fill:none;fill-opacity:1;stroke:#ff0000;stroke-width:1.10746455;stroke-miterlimit:4;stroke-dasharray:none"
     d="m 117.28523,26.122912 v 17.57825 h 21.3465 21.34599 21.3465 v -17.57825 h -21.3465 -21.34599 z"
     id="path1216" />
  <path
     style="opacity:0.86699997;fill:none;fill-opacity:1;stroke:#ff0000;stroke-width:1.10746455;stroke-miterlimit:4;stroke-dasharray:none"
     d="m 10.553733,43.700823 v 17.57825 h 21.346503 21.345983 21.3465 v -17.57825 h -21.3465 -21.345983 z"
     id="path1218" />
  <path
     id="path1220"
     d="m 95.938758,43.701183 v 17.57825 h 21.346502 21.34599 21.3465 v -17.57825 h -21.3465 -21.34599 z"
     style="opacity:0.86699997;fill:none;fill-opacity:1;stroke:#ff0000;stroke-width:1.10746455;stroke-miterlimit:4;stroke-dasharray:none" />
  <rect
     y="43.700825"
     x="74.59272"
     height="17.577911"
     width="21.346252"
     id="rect1222"
     style="opacity:0.86699997;fill:none;fill-opacity:1;stroke:#ff0000;stroke-width:1.10746455;stroke-miterlimit:4;stroke-dasharray:none" />
  <path
     id="rect1226"
     d="m 138.63176,96.434404 v 17.577746 h 21.34599 21.3465 V 96.434404 h -21.3465 z"
     style="opacity:0.86699997;fill:none;fill-opacity:1;stroke:#ff0000;stroke-width:1.10746467;stroke-miterlimit:4;stroke-dasharray:none" />
  <path
     id="rect1233"
     d="m 159.97775,43.701183 v 17.57774 H 138.63176 117.28526 95.939268 74.592772 53.24627 31.900283 10.553782 v 17.57774 5.3e-4 17.577224 5.29e-4 17.577744 h 21.346501 21.345987 21.346502 21.346496 21.345992 21.3465 v -5.3e-4 -17.577224 -5.29e-4 h 21.34599 21.3465 V 78.856666 61.278926 43.701185 Z"
     style="opacity:0.86699997;fill:none;fill-opacity:1;stroke:#ff0000;stroke-width:1.10746467;stroke-miterlimit:4;stroke-dasharray:none" />
  <g
     transform="translate(-4.8702602,-0.29966478)"
     id="text1259"
     style="font-style:normal;font-weight:normal;font-size:10.58333397px;line-height:1.25;font-family:sans-serif;letter-spacing:0px;word-spacing:0px;fill:#ffffff;fill-opacity:1;stroke:none;stroke-width:0.26458335"
     aria-label="DATA">
    <path
       id="path1261"
       style="font-style:normal;font-variant:normal;font-weight:bold;font-stretch:normal;font-family:'DejaVu Sans';-inkscape-font-specification:'DejaVu Sans Bold';fill:#ffffff;stroke-width:0.26458335"
       d="m 87.949593,76.802721 v 4.707724 h 0.713135 q 1.219563,0 1.860351,-0.604615 0.645956,-0.604614 0.645956,-1.756999 0,-1.147216 -0.640788,-1.746663 -0.640788,-0.599447 -1.865519,-0.599447 z M 85.96005,75.298937 h 2.098063 q 1.756999,0 2.614828,0.253215 0.862996,0.248046 1.477946,0.847493 0.542603,0.521932 0.806152,1.204061 0.26355,0.682129 0.26355,1.545125 0,0.873332 -0.26355,1.560629 -0.263549,0.682129 -0.806152,1.204061 -0.620117,0.599446 -1.488281,0.852661 -0.868164,0.248047 -2.604493,0.248047 H 85.96005 Z" />
    <path
       id="path1263"
       style="font-style:normal;font-variant:normal;font-weight:bold;font-stretch:normal;font-family:'DejaVu Sans';-inkscape-font-specification:'DejaVu Sans Bold';fill:#ffffff;stroke-width:0.26458335"
       d="m 99.426929,81.60863 h -3.110921 l -0.490926,1.405599 h -1.999878 l 2.857706,-7.715292 h 2.371949 l 2.857711,7.715292 h -1.999882 z m -2.614827,-1.431437 h 2.113566 l -1.0542,-3.069581 z" />
    <path
       id="path1265"
       style="font-style:normal;font-variant:normal;font-weight:bold;font-stretch:normal;font-family:'DejaVu Sans';-inkscape-font-specification:'DejaVu Sans Bold';fill:#ffffff;stroke-width:0.26458335"
       d="m 101.18393,75.298937 h 7.11068 v 1.503784 h -2.55799 v 6.211508 h -1.98954 v -6.211508 h -2.56315 z" />
    <path
       id="path1267"
       style="font-style:normal;font-variant:normal;font-weight:bold;font-stretch:normal;font-family:'DejaVu Sans';-inkscape-font-specification:'DejaVu Sans Bold';fill:#ffffff;stroke-width:0.26458335"
       d="m 113.17286,81.60863 h -3.11092 l -0.49093,1.405599 h -1.99987 l 2.8577,-7.715292 h 2.37195 l 2.85771,7.715292 h -1.99988 z m -2.61483,-1.431437 h 2.11357 l -1.0542,-3.069581 z" />
  </g>
  <g
     transform="matrix(0.75308476,0,0,0.75308476,33.017271,26.223675)"
     id="text1282"
     style="font-style:normal;font-weight:normal;font-size:10.58333397px;line-height:1.25;font-family:sans-serif;letter-spacing:0px;word-spacing:0px;fill:#ffffff;fill-opacity:1;stroke:none;stroke-width:0.26458335"
     aria-label="FCS">
    <path
       id="path6746"
       style="font-style:normal;font-variant:normal;font-weight:bold;font-stretch:normal;font-family:'DejaVu Sans';-inkscape-font-specification:'DejaVu Sans Bold';fill:#ffffff;stroke-width:0.26458335"
       d="m 157.78902,101.03861 h 5.36918 v 1.50379 h -3.37964 v 1.4366 h 3.17811 v 1.50379 h -3.17811 v 3.27112 h -1.98954 z" />
    <path
       id="path6748"
       style="font-style:normal;font-variant:normal;font-weight:bold;font-stretch:normal;font-family:'DejaVu Sans';-inkscape-font-specification:'DejaVu Sans Bold';fill:#ffffff;stroke-width:0.26458335"
       d="m 171.14221,108.33016 q -0.54777,0.28422 -1.14205,0.42891 -0.59428,0.1447 -1.24023,0.1447 -1.92753,0 -3.05408,-1.07487 -1.12654,-1.08004 -1.12654,-2.92489 0,-1.85001 1.12654,-2.92488 1.12655,-1.08004 3.05408,-1.08004 0.64595,0 1.24023,0.14469 0.59428,0.1447 1.14205,0.42892 v 1.5968 q -0.55293,-0.37724 -1.09037,-0.55294 -0.53743,-0.1757 -1.13171,-0.1757 -1.06454,0 -1.67432,0.68213 -0.60978,0.68213 -0.60978,1.88102 0,1.19373 0.60978,1.87586 0.60978,0.68213 1.67432,0.68213 0.59428,0 1.13171,-0.1757 0.53744,-0.1757 1.09037,-0.55294 z" />
    <path
       id="path6750"
       style="font-style:normal;font-variant:normal;font-weight:bold;font-stretch:normal;font-family:'DejaVu Sans';-inkscape-font-specification:'DejaVu Sans Bold';fill:#ffffff;stroke-width:0.26458335"
       d="m 178.37175,101.28149 v 1.63298 q -0.63562,-0.28422 -1.24024,-0.42892 -0.60461,-0.14469 -1.14205,-0.14469 -0.71313,0 -1.0542,0.19637 -0.34106,0.19637 -0.34106,0.60978 0,0.31006 0.22738,0.48576 0.23254,0.17053 0.83715,0.29456 l 0.8475,0.17053 q 1.28674,0.25838 1.82934,0.78548 0.54261,0.5271 0.54261,1.49862 0,1.27641 -0.75965,1.90169 -0.75447,0.62012 -2.30993,0.62012 -0.73381,0 -1.47278,-0.13953 -0.73898,-0.13952 -1.47795,-0.41341 v -1.67948 q 0.73897,0.39274 1.42627,0.59427 0.69246,0.19638 1.33325,0.19638 0.65113,0 0.99736,-0.21705 0.34623,-0.21704 0.34623,-0.62011 0,-0.36174 -0.23771,-0.55811 -0.23255,-0.19637 -0.93535,-0.3514 l -0.76997,-0.17053 q -1.15756,-0.24805 -1.69499,-0.79065 -0.53227,-0.5426 -0.53227,-1.46244 0,-1.15239 0.74414,-1.7725 0.74414,-0.62012 2.13941,-0.62012 0.63562,0 1.30741,0.0982 0.67179,0.093 1.3901,0.28422 z" />
  </g>
  <g
     transform="translate(-8.5468622,0.32191672)"
     id="text1286"
     style="font-style:normal;font-weight:normal;font-size:10.58333397px;line-height:1.25;font-family:sans-serif;letter-spacing:0px;word-spacing:0px;fill:#ffffff;fill-opacity:1;stroke:none;stroke-width:0.26458335"
     aria-label="Adresse 1">
    <path
       id="path6712"
       style="font-style:normal;font-variant:normal;font-weight:bold;font-stretch:normal;font-size:7.76111126px;font-family:'DejaVu Sans';-inkscape-font-specification:'DejaVu Sans Bold';fill:#ffffff;stroke-width:0.26458335"
       d="m 76.573684,36.45271 h -2.281342 l -0.360012,1.030772 h -1.466578 l 2.095652,-5.65788 h 1.739429 l 2.095651,5.65788 h -1.466577 z m -1.91754,-1.049721 h 1.549949 l -0.77308,-2.251025 z" />
    <path
       id="path6714"
       style="font-style:normal;font-variant:normal;font-weight:bold;font-stretch:normal;font-size:7.76111126px;font-family:'DejaVu Sans';-inkscape-font-specification:'DejaVu Sans Bold';fill:#ffffff;stroke-width:0.26458335"
       d="m 81.970082,33.86062 v -2.273763 h 1.364258 v 5.896625 h -1.364258 v -0.613916 q -0.280431,0.375171 -0.617705,0.549493 -0.337275,0.174322 -0.780659,0.174322 -0.784448,0 -1.288466,-0.621495 -0.504017,-0.625285 -0.504017,-1.606793 0,-0.981508 0.504017,-1.603003 0.504018,-0.625285 1.288466,-0.625285 0.439594,0 0.776869,0.178112 0.341064,0.174322 0.621495,0.545703 z m -0.894347,2.747464 q 0.435805,0 0.663181,-0.318327 0.231166,-0.318327 0.231166,-0.924664 0,-0.606337 -0.231166,-0.924664 -0.227376,-0.318326 -0.663181,-0.318326 -0.432015,0 -0.66318,0.318326 -0.227377,0.318327 -0.227377,0.924664 0,0.606337 0.227377,0.924664 0.231165,0.318327 0.66318,0.318327 z" />
    <path
       id="path6716"
       style="font-style:normal;font-variant:normal;font-weight:bold;font-stretch:normal;font-size:7.76111126px;font-family:'DejaVu Sans';-inkscape-font-specification:'DejaVu Sans Bold';fill:#ffffff;stroke-width:0.26458335"
       d="m 87.798495,34.394954 q -0.178111,-0.08337 -0.356223,-0.121267 -0.174322,-0.04169 -0.352433,-0.04169 -0.522966,0 -0.807186,0.337275 -0.280431,0.333485 -0.280431,0.95877 v 1.955436 h -1.356678 v -4.244357 h 1.356678 v 0.697287 q 0.261483,-0.416857 0.598758,-0.606337 0.341064,-0.19327 0.814765,-0.19327 0.06821,0 0.147795,0.0076 0.07958,0.0038 0.231165,0.02274 z" />
    <path
       id="path6718"
       style="font-style:normal;font-variant:normal;font-weight:bold;font-stretch:normal;font-size:7.76111126px;font-family:'DejaVu Sans';-inkscape-font-specification:'DejaVu Sans Bold';fill:#ffffff;stroke-width:0.26458335"
       d="m 92.717402,35.349935 v 0.386539 h -3.171899 q 0.04927,0.477491 0.344854,0.716236 0.295589,0.238745 0.826134,0.238745 0.428225,0 0.875399,-0.125057 0.450963,-0.128847 0.924663,-0.38654 v 1.045931 q -0.48128,0.181901 -0.96256,0.272852 -0.481279,0.09474 -0.962559,0.09474 -1.15204,0 -1.792483,-0.583599 -0.636654,-0.587389 -0.636654,-1.644689 0,-1.038352 0.625285,-1.63332 0.629074,-0.594968 1.72806,-0.594968 1.000455,0 1.599213,0.602548 0.602547,0.602547 0.602547,1.610582 z m -1.394574,-0.450963 q 0,-0.38654 -0.227377,-0.621496 -0.223586,-0.238745 -0.587389,-0.238745 -0.394118,0 -0.640443,0.223587 -0.246324,0.219797 -0.306958,0.636654 z" />
    <path
       id="path6720"
       style="font-style:normal;font-variant:normal;font-weight:bold;font-stretch:normal;font-size:7.76111126px;font-family:'DejaVu Sans';-inkscape-font-specification:'DejaVu Sans Bold';fill:#ffffff;stroke-width:0.26458335"
       d="m 97.0565,33.371761 v 1.030772 q -0.435805,-0.181901 -0.841293,-0.272851 -0.405487,-0.09095 -0.7655,-0.09095 -0.386539,0 -0.57602,0.09853 -0.18569,0.09474 -0.18569,0.295589 0,0.162953 0.140215,0.250114 0.144005,0.08716 0.511597,0.128847 l 0.238745,0.03411 q 1.042141,0.132636 1.402154,0.435805 0.360012,0.303168 0.360012,0.951191 0,0.678339 -0.500228,1.019403 -0.500228,0.341065 -1.493104,0.341065 -0.420646,0 -0.871609,-0.06821 -0.447174,-0.06442 -0.920874,-0.197059 v -1.030773 q 0.405487,0.197059 0.829923,0.295589 0.428226,0.09853 0.86782,0.09853 0.397908,0 0.598757,-0.109899 0.200849,-0.109898 0.200849,-0.325906 0,-0.181901 -0.140215,-0.269062 -0.136426,-0.09095 -0.549493,-0.140215 l -0.238745,-0.03032 q -0.905715,-0.113688 -1.269518,-0.420646 -0.363802,-0.306958 -0.363802,-0.932243 0,-0.67455 0.462332,-1.000456 0.462332,-0.325906 1.417313,-0.325906 0.37517,0 0.788237,0.05684 0.413067,0.05684 0.898137,0.178111 z" />
    <path
       id="path6722"
       style="font-style:normal;font-variant:normal;font-weight:bold;font-stretch:normal;font-size:7.76111126px;font-family:'DejaVu Sans';-inkscape-font-specification:'DejaVu Sans Bold';fill:#ffffff;stroke-width:0.26458335"
       d="m 101.67982,33.371761 v 1.030772 q -0.43581,-0.181901 -0.84129,-0.272851 -0.40549,-0.09095 -0.7655,-0.09095 -0.386543,0 -0.576023,0.09853 -0.185691,0.09474 -0.185691,0.295589 0,0.162953 0.140216,0.250114 0.144005,0.08716 0.511596,0.128847 l 0.238742,0.03411 q 1.04214,0.132636 1.40216,0.435805 0.36001,0.303168 0.36001,0.951191 0,0.678339 -0.50023,1.019403 -0.50023,0.341065 -1.493102,0.341065 -0.420647,0 -0.87161,-0.06821 -0.447173,-0.06442 -0.920874,-0.197059 v -1.030773 q 0.405488,0.197059 0.829924,0.295589 0.428225,0.09853 0.867819,0.09853 0.397913,0 0.598763,-0.109899 0.20084,-0.109898 0.20084,-0.325906 0,-0.181901 -0.14021,-0.269062 -0.13643,-0.09095 -0.549494,-0.140215 l -0.238745,-0.03032 q -0.905716,-0.113688 -1.269518,-0.420646 -0.363802,-0.306958 -0.363802,-0.932243 0,-0.67455 0.462332,-1.000456 0.462332,-0.325906 1.417312,-0.325906 0.375175,0 0.788235,0.05684 0.41307,0.05684 0.89814,0.178111 z" />
    <path
       id="path6724"
       style="font-style:normal;font-variant:normal;font-weight:bold;font-stretch:normal;font-size:7.76111126px;font-family:'DejaVu Sans';-inkscape-font-specification:'DejaVu Sans Bold';fill:#ffffff;stroke-width:0.26458335"
       d="m 107.22401,35.349935 v 0.386539 h -3.1719 q 0.0493,0.477491 0.34486,0.716236 0.29558,0.238745 0.82613,0.238745 0.42823,0 0.8754,-0.125057 0.45096,-0.128847 0.92466,-0.38654 v 1.045931 q -0.48128,0.181901 -0.96256,0.272852 -0.48128,0.09474 -0.96256,0.09474 -1.15204,0 -1.79248,-0.583599 -0.63665,-0.587389 -0.63665,-1.644689 0,-1.038352 0.62528,-1.63332 0.62908,-0.594968 1.72806,-0.594968 1.00046,0 1.59921,0.602548 0.60255,0.602547 0.60255,1.610582 z m -1.39457,-0.450963 q 0,-0.38654 -0.22738,-0.621496 -0.22359,-0.238745 -0.58739,-0.238745 -0.39412,0 -0.64044,0.223587 -0.24633,0.219797 -0.30696,0.636654 z" />
    <path
       id="path6726"
       style="font-style:normal;font-variant:normal;font-weight:bold;font-stretch:normal;font-size:7.76111126px;font-family:'DejaVu Sans';-inkscape-font-specification:'DejaVu Sans Bold';fill:#ffffff;stroke-width:0.26458335"
       d="m 111.2031,36.475447 h 1.28846 v -3.656969 l -1.32257,0.272852 v -0.992876 l 1.31499,-0.272852 h 1.387 v 4.649845 h 1.28846 v 1.008035 h -3.95634 z" />
  </g>
  <g
     transform="translate(-8.5468622,0.32191672)"
     id="text1290"
     style="font-style:normal;font-weight:normal;font-size:10.58333397px;line-height:1.25;font-family:sans-serif;letter-spacing:0px;word-spacing:0px;fill:#ffffff;fill-opacity:1;stroke:none;stroke-width:0.26458335"
     aria-label="Adresse 2">
    <path
       id="path6729"
       style="font-style:normal;font-variant:normal;font-weight:bold;font-stretch:normal;font-size:7.76111126px;font-family:'DejaVu Sans';-inkscape-font-specification:'DejaVu Sans Bold';fill:#ffffff;stroke-width:0.26458335"
       d="m 139.0153,36.45271 h -2.28134 l -0.36001,1.030772 h -1.46658 l 2.09565,-5.65788 h 1.73943 l 2.09565,5.65788 h -1.46657 z m -1.91754,-1.049721 h 1.54995 l -0.77308,-2.251025 z" />
    <path
       id="path6731"
       style="font-style:normal;font-variant:normal;font-weight:bold;font-stretch:normal;font-size:7.76111126px;font-family:'DejaVu Sans';-inkscape-font-specification:'DejaVu Sans Bold';fill:#ffffff;stroke-width:0.26458335"
       d="m 144.4117,33.86062 v -2.273763 h 1.36426 v 5.896625 h -1.36426 v -0.613916 q -0.28043,0.375171 -0.6177,0.549493 -0.33728,0.174322 -0.78066,0.174322 -0.78445,0 -1.28847,-0.621495 -0.50402,-0.625285 -0.50402,-1.606793 0,-0.981508 0.50402,-1.603003 0.50402,-0.625285 1.28847,-0.625285 0.43959,0 0.77687,0.178112 0.34106,0.174322 0.62149,0.545703 z m -0.89434,2.747464 q 0.4358,0 0.66318,-0.318327 0.23116,-0.318327 0.23116,-0.924664 0,-0.606337 -0.23116,-0.924664 -0.22738,-0.318326 -0.66318,-0.318326 -0.43202,0 -0.66319,0.318326 -0.22737,0.318327 -0.22737,0.924664 0,0.606337 0.22737,0.924664 0.23117,0.318327 0.66319,0.318327 z" />
    <path
       id="path6733"
       style="font-style:normal;font-variant:normal;font-weight:bold;font-stretch:normal;font-size:7.76111126px;font-family:'DejaVu Sans';-inkscape-font-specification:'DejaVu Sans Bold';fill:#ffffff;stroke-width:0.26458335"
       d="m 150.24011,34.394954 q -0.17811,-0.08337 -0.35622,-0.121267 -0.17432,-0.04169 -0.35243,-0.04169 -0.52297,0 -0.80719,0.337275 -0.28043,0.333485 -0.28043,0.95877 v 1.955436 h -1.35668 v -4.244357 h 1.35668 v 0.697287 q 0.26148,-0.416857 0.59876,-0.606337 0.34106,-0.19327 0.81476,-0.19327 0.0682,0 0.1478,0.0076 0.0796,0.0038 0.23117,0.02274 z" />
    <path
       id="path6735"
       style="font-style:normal;font-variant:normal;font-weight:bold;font-stretch:normal;font-size:7.76111126px;font-family:'DejaVu Sans';-inkscape-font-specification:'DejaVu Sans Bold';fill:#ffffff;stroke-width:0.26458335"
       d="m 155.15902,35.349935 v 0.386539 h -3.1719 q 0.0493,0.477491 0.34486,0.716236 0.29559,0.238745 0.82613,0.238745 0.42823,0 0.8754,-0.125057 0.45096,-0.128847 0.92466,-0.38654 v 1.045931 q -0.48128,0.181901 -0.96256,0.272852 -0.48128,0.09474 -0.96256,0.09474 -1.15204,0 -1.79248,-0.583599 -0.63665,-0.587389 -0.63665,-1.644689 0,-1.038352 0.62528,-1.63332 0.62908,-0.594968 1.72806,-0.594968 1.00046,0 1.59921,0.602548 0.60255,0.602547 0.60255,1.610582 z m -1.39457,-0.450963 q 0,-0.38654 -0.22738,-0.621496 -0.22359,-0.238745 -0.58739,-0.238745 -0.39412,0 -0.64044,0.223587 -0.24633,0.219797 -0.30696,0.636654 z" />
    <path
       id="path6737"
       style="font-style:normal;font-variant:normal;font-weight:bold;font-stretch:normal;font-size:7.76111126px;font-family:'DejaVu Sans';-inkscape-font-specification:'DejaVu Sans Bold';fill:#ffffff;stroke-width:0.26458335"
       d="m 159.49812,33.371761 v 1.030772 q -0.4358,-0.181901 -0.84129,-0.272851 -0.40549,-0.09095 -0.7655,-0.09095 -0.38654,0 -0.57602,0.09853 -0.18569,0.09474 -0.18569,0.295589 0,0.162953 0.14021,0.250114 0.14401,0.08716 0.5116,0.128847 l 0.23874,0.03411 q 1.04215,0.132636 1.40216,0.435805 0.36001,0.303168 0.36001,0.951191 0,0.678339 -0.50023,1.019403 -0.50023,0.341065 -1.4931,0.341065 -0.42065,0 -0.87161,-0.06821 -0.44717,-0.06442 -0.92088,-0.197059 v -1.030773 q 0.40549,0.197059 0.82993,0.295589 0.42822,0.09853 0.86782,0.09853 0.39791,0 0.59876,-0.109899 0.20084,-0.109898 0.20084,-0.325906 0,-0.181901 -0.14021,-0.269062 -0.13643,-0.09095 -0.54949,-0.140215 l -0.23875,-0.03032 q -0.90571,-0.113688 -1.26952,-0.420646 -0.3638,-0.306958 -0.3638,-0.932243 0,-0.67455 0.46233,-1.000456 0.46233,-0.325906 1.41732,-0.325906 0.37517,0 0.78823,0.05684 0.41307,0.05684 0.89814,0.178111 z" />
    <path
       id="path6739"
       style="font-style:normal;font-variant:normal;font-weight:bold;font-stretch:normal;font-size:7.76111126px;font-family:'DejaVu Sans';-inkscape-font-specification:'DejaVu Sans Bold';fill:#ffffff;stroke-width:0.26458335"
       d="m 164.12144,33.371761 v 1.030772 q -0.43581,-0.181901 -0.84129,-0.272851 -0.40549,-0.09095 -0.7655,-0.09095 -0.38654,0 -0.57602,0.09853 -0.18569,0.09474 -0.18569,0.295589 0,0.162953 0.14021,0.250114 0.14401,0.08716 0.5116,0.128847 l 0.23874,0.03411 q 1.04214,0.132636 1.40216,0.435805 0.36001,0.303168 0.36001,0.951191 0,0.678339 -0.50023,1.019403 -0.50023,0.341065 -1.4931,0.341065 -0.42065,0 -0.87161,-0.06821 -0.44718,-0.06442 -0.92088,-0.197059 v -1.030773 q 0.40549,0.197059 0.82993,0.295589 0.42822,0.09853 0.86782,0.09853 0.39791,0 0.59875,-0.109899 0.20085,-0.109898 0.20085,-0.325906 0,-0.181901 -0.14021,-0.269062 -0.13643,-0.09095 -0.54949,-0.140215 l -0.23875,-0.03032 q -0.90571,-0.113688 -1.26952,-0.420646 -0.3638,-0.306958 -0.3638,-0.932243 0,-0.67455 0.46233,-1.000456 0.46233,-0.325906 1.41732,-0.325906 0.37517,0 0.78823,0.05684 0.41307,0.05684 0.89814,0.178111 z" />
    <path
       id="path6741"
       style="font-style:normal;font-variant:normal;font-weight:bold;font-stretch:normal;font-size:7.76111126px;font-family:'DejaVu Sans';-inkscape-font-specification:'DejaVu Sans Bold';fill:#ffffff;stroke-width:0.26458335"
       d="m 169.66563,35.349935 v 0.386539 h -3.1719 q 0.0493,0.477491 0.34486,0.716236 0.29558,0.238745 0.82613,0.238745 0.42822,0 0.8754,-0.125057 0.45096,-0.128847 0.92466,-0.38654 v 1.045931 q -0.48128,0.181901 -0.96256,0.272852 -0.48128,0.09474 -0.96256,0.09474 -1.15204,0 -1.79248,-0.583599 -0.63665,-0.587389 -0.63665,-1.644689 0,-1.038352 0.62528,-1.63332 0.62908,-0.594968 1.72806,-0.594968 1.00046,0 1.59921,0.602548 0.60255,0.602547 0.60255,1.610582 z m -1.39457,-0.450963 q 0,-0.38654 -0.22738,-0.621496 -0.22359,-0.238745 -0.58739,-0.238745 -0.39412,0 -0.64044,0.223587 -0.24633,0.219797 -0.30696,0.636654 z" />
    <path
       id="path6743"
       style="font-style:normal;font-variant:normal;font-weight:bold;font-stretch:normal;font-size:7.76111126px;font-family:'DejaVu Sans';-inkscape-font-specification:'DejaVu Sans Bold';fill:#ffffff;stroke-width:0.26458335"
       d="m 174.97108,36.411024 h 2.48977 v 1.072458 h -4.11172 v -1.072458 l 2.06533,-1.8228 q 0.27664,-0.250114 0.40928,-0.488859 0.13263,-0.238745 0.13263,-0.496438 0,-0.397909 -0.26906,-0.640444 -0.26527,-0.242534 -0.70865,-0.242534 -0.34107,0 -0.74656,0.147794 -0.40548,0.144005 -0.86782,0.432015 v -1.24299 q 0.49265,-0.162953 0.97393,-0.246324 0.48128,-0.08716 0.94362,-0.08716 1.01561,0 1.57647,0.447173 0.56465,0.447173 0.56465,1.24678 0,0.462332 -0.23874,0.86403 -0.23875,0.397909 -1.00425,1.068669 z" />
  </g>
  <g
     transform="translate(-8.5468622,0.32191672)"
     id="text1294"
     style="font-style:normal;font-weight:normal;font-size:10.58333397px;line-height:1.25;font-family:sans-serif;letter-spacing:0px;word-spacing:0px;fill:#ffffff;fill-opacity:1;stroke:none;stroke-width:0.26458335"
     aria-label="Adresse 3">
    <path
       id="path6753"
       style="font-style:normal;font-variant:normal;font-weight:bold;font-stretch:normal;font-size:7.76111126px;font-family:'DejaVu Sans';-inkscape-font-specification:'DejaVu Sans Bold';fill:#ffffff;stroke-width:0.26458335"
       d="m 33.727207,54.030789 h -2.281342 l -0.360013,1.030773 h -1.466577 l 2.095652,-5.657881 h 1.739428 l 2.095652,5.657881 H 34.08343 Z m -1.91754,-1.049721 h 1.549948 l -0.773079,-2.251025 z" />
    <path
       id="path6755"
       style="font-style:normal;font-variant:normal;font-weight:bold;font-stretch:normal;font-size:7.76111126px;font-family:'DejaVu Sans';-inkscape-font-specification:'DejaVu Sans Bold';fill:#ffffff;stroke-width:0.26458335"
       d="m 39.123605,51.438699 v -2.273763 h 1.364258 v 5.896626 h -1.364258 v -0.613916 q -0.280431,0.37517 -0.617706,0.549492 -0.337275,0.174322 -0.780659,0.174322 -0.784448,0 -1.288465,-0.621495 -0.504018,-0.625285 -0.504018,-1.606793 0,-0.981507 0.504018,-1.603003 0.504017,-0.625284 1.288465,-0.625284 0.439595,0 0.77687,0.178111 0.341064,0.174322 0.621495,0.545703 z m -0.894347,2.747464 q 0.435805,0 0.663181,-0.318327 0.231166,-0.318327 0.231166,-0.924664 0,-0.606336 -0.231166,-0.924663 -0.227376,-0.318327 -0.663181,-0.318327 -0.432015,0 -0.663181,0.318327 -0.227376,0.318327 -0.227376,0.924663 0,0.606337 0.227376,0.924664 0.231166,0.318327 0.663181,0.318327 z" />
    <path
       id="path6757"
       style="font-style:normal;font-variant:normal;font-weight:bold;font-stretch:normal;font-size:7.76111126px;font-family:'DejaVu Sans';-inkscape-font-specification:'DejaVu Sans Bold';fill:#ffffff;stroke-width:0.26458335"
       d="m 44.952018,51.973033 q -0.178112,-0.08337 -0.356223,-0.121267 -0.174322,-0.04169 -0.352434,-0.04169 -0.522965,0 -0.807186,0.337275 -0.28043,0.333486 -0.28043,0.95877 v 1.955437 H 41.799066 V 50.8172 h 1.356679 v 0.697287 q 0.261482,-0.416856 0.598757,-0.606337 0.341065,-0.193269 0.814765,-0.193269 0.06821,0 0.147795,0.0076 0.07958,0.0038 0.231166,0.02274 z" />
    <path
       id="path6759"
       style="font-style:normal;font-variant:normal;font-weight:bold;font-stretch:normal;font-size:7.76111126px;font-family:'DejaVu Sans';-inkscape-font-specification:'DejaVu Sans Bold';fill:#ffffff;stroke-width:0.26458335"
       d="m 49.870925,52.928014 v 0.38654 h -3.1719 q 0.04926,0.47749 0.344854,0.716235 0.29559,0.238745 0.826134,0.238745 0.428226,0 0.875399,-0.125057 0.450963,-0.128846 0.924664,-0.38654 v 1.045931 q -0.48128,0.181901 -0.96256,0.272852 -0.48128,0.09474 -0.96256,0.09474 -1.15204,0 -1.792483,-0.583599 -0.636654,-0.587389 -0.636654,-1.644689 0,-1.038351 0.625285,-1.633319 0.629075,-0.594968 1.72806,-0.594968 1.000456,0 1.599214,0.602547 0.602547,0.602547 0.602547,1.610582 z M 48.47635,52.477051 q 0,-0.38654 -0.227376,-0.621495 -0.223587,-0.238745 -0.587389,-0.238745 -0.394119,0 -0.640443,0.223586 -0.246325,0.219797 -0.306958,0.636654 z" />
    <path
       id="path6761"
       style="font-style:normal;font-variant:normal;font-weight:bold;font-stretch:normal;font-size:7.76111126px;font-family:'DejaVu Sans';-inkscape-font-specification:'DejaVu Sans Bold';fill:#ffffff;stroke-width:0.26458335"
       d="m 54.210022,50.94984 v 1.030773 q -0.435804,-0.181901 -0.841292,-0.272852 -0.405488,-0.09095 -0.7655,-0.09095 -0.38654,0 -0.57602,0.09853 -0.185691,0.09474 -0.185691,0.295589 0,0.162953 0.140215,0.250114 0.144005,0.08716 0.511597,0.128847 l 0.238745,0.03411 q 1.042142,0.132637 1.402154,0.435805 0.360013,0.303168 0.360013,0.951191 0,0.678339 -0.500228,1.019404 -0.500228,0.341064 -1.493105,0.341064 -0.420646,0 -0.871609,-0.06821 -0.447173,-0.06442 -0.920874,-0.197059 v -1.030773 q 0.405488,0.19706 0.829924,0.295589 0.428225,0.09853 0.867819,0.09853 0.397909,0 0.598758,-0.109898 0.200849,-0.109899 0.200849,-0.325906 0,-0.181902 -0.140215,-0.269062 -0.136426,-0.09095 -0.549493,-0.140216 l -0.238745,-0.03032 q -0.905716,-0.113688 -1.269518,-0.420646 -0.363802,-0.306958 -0.363802,-0.932243 0,-0.674549 0.462332,-1.000455 0.462332,-0.325906 1.417312,-0.325906 0.375171,0 0.788238,0.05684 0.413067,0.05684 0.898136,0.17811 z" />
    <path
       id="path6763"
       style="font-style:normal;font-variant:normal;font-weight:bold;font-stretch:normal;font-size:7.76111126px;font-family:'DejaVu Sans';-inkscape-font-specification:'DejaVu Sans Bold';fill:#ffffff;stroke-width:0.26458335"
       d="m 58.833342,50.94984 v 1.030773 q -0.435805,-0.181901 -0.841292,-0.272852 -0.405488,-0.09095 -0.765501,-0.09095 -0.386539,0 -0.57602,0.09853 -0.18569,0.09474 -0.18569,0.295589 0,0.162953 0.140215,0.250114 0.144005,0.08716 0.511597,0.128847 l 0.238745,0.03411 q 1.042141,0.132637 1.402154,0.435805 0.360012,0.303168 0.360012,0.951191 0,0.678339 -0.500228,1.019404 -0.500227,0.341064 -1.493104,0.341064 -0.420646,0 -0.871609,-0.06821 -0.447174,-0.06442 -0.920874,-0.197059 v -1.030773 q 0.405488,0.19706 0.829923,0.295589 0.428226,0.09853 0.86782,0.09853 0.397908,0 0.598758,-0.109898 0.200849,-0.109899 0.200849,-0.325906 0,-0.181902 -0.140216,-0.269062 -0.136426,-0.09095 -0.549493,-0.140216 l -0.238745,-0.03032 q -0.905715,-0.113688 -1.269517,-0.420646 -0.363802,-0.306958 -0.363802,-0.932243 0,-0.674549 0.462331,-1.000455 0.462332,-0.325906 1.417313,-0.325906 0.375171,0 0.788238,0.05684 0.413066,0.05684 0.898136,0.17811 z" />
    <path
       id="path6765"
       style="font-style:normal;font-variant:normal;font-weight:bold;font-stretch:normal;font-size:7.76111126px;font-family:'DejaVu Sans';-inkscape-font-specification:'DejaVu Sans Bold';fill:#ffffff;stroke-width:0.26458335"
       d="m 64.377534,52.928014 v 0.38654 h -3.1719 q 0.04926,0.47749 0.344854,0.716235 0.295589,0.238745 0.826134,0.238745 0.428226,0 0.875399,-0.125057 0.450963,-0.128846 0.924664,-0.38654 v 1.045931 q -0.48128,0.181901 -0.96256,0.272852 -0.48128,0.09474 -0.96256,0.09474 -1.15204,0 -1.792483,-0.583599 -0.636654,-0.587389 -0.636654,-1.644689 0,-1.038351 0.625285,-1.633319 0.629075,-0.594968 1.72806,-0.594968 1.000456,0 1.599213,0.602547 0.602548,0.602547 0.602548,1.610582 z m -1.394575,-0.450963 q 0,-0.38654 -0.227376,-0.621495 -0.223587,-0.238745 -0.587389,-0.238745 -0.394119,0 -0.640443,0.223586 -0.246325,0.219797 -0.306958,0.636654 z" />
    <path
       id="path6767"
       style="font-style:normal;font-variant:normal;font-weight:bold;font-stretch:normal;font-size:7.76111126px;font-family:'DejaVu Sans';-inkscape-font-specification:'DejaVu Sans Bold';fill:#ffffff;stroke-width:0.26458335"
       d="m 71.062396,52.010929 q 0.572231,0.147795 0.86782,0.515387 0.299379,0.363802 0.299379,0.928453 0,0.841292 -0.644233,1.280887 -0.644233,0.435804 -1.879644,0.435804 -0.435805,0 -0.875399,-0.072 -0.435805,-0.06821 -0.86403,-0.208429 v -1.125512 q 0.409277,0.204638 0.810975,0.310747 0.405488,0.10232 0.795818,0.10232 0.579809,0 0.886767,-0.200849 0.310748,-0.20085 0.310748,-0.57602 0,-0.38654 -0.318327,-0.5836 -0.314537,-0.200849 -0.932243,-0.200849 h -0.583599 v -0.939822 h 0.613916 q 0.549493,0 0.818555,-0.170532 0.269062,-0.174322 0.269062,-0.526755 0,-0.325906 -0.261483,-0.504018 -0.261483,-0.178111 -0.738973,-0.178111 -0.352433,0 -0.712446,0.07958 -0.360012,0.07958 -0.716235,0.234955 v -1.068668 q 0.432015,-0.121268 0.85645,-0.181901 0.424436,-0.06063 0.833714,-0.06063 1.102775,0 1.648478,0.363802 0.549493,0.360012 0.549493,1.087617 0,0.496438 -0.261483,0.814765 -0.261483,0.314537 -0.77308,0.443383 z" />
  </g>
  <g
     transform="translate(-8.5468622,0.32191672)"
     id="text1298"
     style="font-style:normal;font-weight:normal;font-size:10.58333397px;line-height:1.25;font-family:sans-serif;letter-spacing:0px;word-spacing:0px;fill:#ffffff;fill-opacity:1;stroke:none;stroke-width:0.26458335"
     aria-label="Adresse 4">
    <path
       id="path6775"
       style="font-style:normal;font-variant:normal;font-weight:bold;font-stretch:normal;font-size:7.76111126px;font-family:'DejaVu Sans';-inkscape-font-specification:'DejaVu Sans Bold';fill:#ffffff;stroke-width:0.26458335"
       d="m 117.3356,54.030789 h -2.28134 l -0.36001,1.030773 h -1.46658 l 2.09565,-5.657881 h 1.73943 l 2.09565,5.657881 h -1.46658 z m -1.91754,-1.049721 h 1.54995 l -0.77308,-2.251025 z" />
    <path
       id="path6777"
       style="font-style:normal;font-variant:normal;font-weight:bold;font-stretch:normal;font-size:7.76111126px;font-family:'DejaVu Sans';-inkscape-font-specification:'DejaVu Sans Bold';fill:#ffffff;stroke-width:0.26458335"
       d="m 122.732,51.438699 v -2.273763 h 1.36426 v 5.896626 H 122.732 v -0.613916 q -0.28043,0.37517 -0.61771,0.549492 -0.33727,0.174322 -0.78065,0.174322 -0.78445,0 -1.28847,-0.621495 -0.50402,-0.625285 -0.50402,-1.606793 0,-0.981507 0.50402,-1.603003 0.50402,-0.625284 1.28847,-0.625284 0.43959,0 0.77686,0.178111 0.34107,0.174322 0.6215,0.545703 z m -0.89435,2.747464 q 0.43581,0 0.66318,-0.318327 0.23117,-0.318327 0.23117,-0.924664 0,-0.606336 -0.23117,-0.924663 -0.22737,-0.318327 -0.66318,-0.318327 -0.43201,0 -0.66318,0.318327 -0.22737,0.318327 -0.22737,0.924663 0,0.606337 0.22737,0.924664 0.23117,0.318327 0.66318,0.318327 z" />
    <path
       id="path6779"
       style="font-style:normal;font-variant:normal;font-weight:bold;font-stretch:normal;font-size:7.76111126px;font-family:'DejaVu Sans';-inkscape-font-specification:'DejaVu Sans Bold';fill:#ffffff;stroke-width:0.26458335"
       d="m 128.56041,51.973033 q -0.17811,-0.08337 -0.35622,-0.121267 -0.17432,-0.04169 -0.35243,-0.04169 -0.52297,0 -0.80719,0.337275 -0.28043,0.333486 -0.28043,0.95877 v 1.955437 h -1.35668 V 50.8172 h 1.35668 v 0.697287 q 0.26148,-0.416856 0.59876,-0.606337 0.34106,-0.193269 0.81476,-0.193269 0.0682,0 0.1478,0.0076 0.0796,0.0038 0.23116,0.02274 z" />
    <path
       id="path6781"
       style="font-style:normal;font-variant:normal;font-weight:bold;font-stretch:normal;font-size:7.76111126px;font-family:'DejaVu Sans';-inkscape-font-specification:'DejaVu Sans Bold';fill:#ffffff;stroke-width:0.26458335"
       d="m 133.47932,52.928014 v 0.38654 h -3.1719 q 0.0493,0.47749 0.34485,0.716235 0.29559,0.238745 0.82614,0.238745 0.42822,0 0.8754,-0.125057 0.45096,-0.128846 0.92466,-0.38654 v 1.045931 q -0.48128,0.181901 -0.96256,0.272852 -0.48128,0.09474 -0.96256,0.09474 -1.15204,0 -1.79248,-0.583599 -0.63666,-0.587389 -0.63666,-1.644689 0,-1.038351 0.62529,-1.633319 0.62907,-0.594968 1.72806,-0.594968 1.00045,0 1.59921,0.602547 0.60255,0.602547 0.60255,1.610582 z m -1.39458,-0.450963 q 0,-0.38654 -0.22737,-0.621495 -0.22359,-0.238745 -0.58739,-0.238745 -0.39412,0 -0.64044,0.223586 -0.24633,0.219797 -0.30696,0.636654 z" />
    <path
       id="path6783"
       style="font-style:normal;font-variant:normal;font-weight:bold;font-stretch:normal;font-size:7.76111126px;font-family:'DejaVu Sans';-inkscape-font-specification:'DejaVu Sans Bold';fill:#ffffff;stroke-width:0.26458335"
       d="m 137.81842,50.94984 v 1.030773 q -0.43581,-0.181901 -0.8413,-0.272852 -0.40548,-0.09095 -0.7655,-0.09095 -0.38654,0 -0.57602,0.09853 -0.18569,0.09474 -0.18569,0.295589 0,0.162953 0.14022,0.250114 0.144,0.08716 0.5116,0.128847 l 0.23874,0.03411 q 1.04214,0.132637 1.40215,0.435805 0.36002,0.303168 0.36002,0.951191 0,0.678339 -0.50023,1.019404 -0.50023,0.341064 -1.4931,0.341064 -0.42065,0 -0.87161,-0.06821 -0.44718,-0.06442 -0.92088,-0.197059 v -1.030773 q 0.40549,0.19706 0.82993,0.295589 0.42822,0.09853 0.86781,0.09853 0.39791,0 0.59876,-0.109898 0.20085,-0.109899 0.20085,-0.325906 0,-0.181902 -0.14021,-0.269062 -0.13643,-0.09095 -0.5495,-0.140216 l -0.23874,-0.03032 q -0.90572,-0.113688 -1.26952,-0.420646 -0.3638,-0.306958 -0.3638,-0.932243 0,-0.674549 0.46233,-1.000455 0.46233,-0.325906 1.41731,-0.325906 0.37517,0 0.78824,0.05684 0.41307,0.05684 0.89814,0.17811 z" />
    <path
       id="path6785"
       style="font-style:normal;font-variant:normal;font-weight:bold;font-stretch:normal;font-size:7.76111126px;font-family:'DejaVu Sans';-inkscape-font-specification:'DejaVu Sans Bold';fill:#ffffff;stroke-width:0.26458335"
       d="m 142.44174,50.94984 v 1.030773 q -0.43581,-0.181901 -0.8413,-0.272852 -0.40548,-0.09095 -0.7655,-0.09095 -0.38654,0 -0.57602,0.09853 -0.18569,0.09474 -0.18569,0.295589 0,0.162953 0.14022,0.250114 0.144,0.08716 0.5116,0.128847 l 0.23874,0.03411 q 1.04214,0.132637 1.40215,0.435805 0.36002,0.303168 0.36002,0.951191 0,0.678339 -0.50023,1.019404 -0.50023,0.341064 -1.49311,0.341064 -0.42064,0 -0.8716,-0.06821 -0.44718,-0.06442 -0.92088,-0.197059 v -1.030773 q 0.40549,0.19706 0.82992,0.295589 0.42823,0.09853 0.86782,0.09853 0.39791,0 0.59876,-0.109898 0.20085,-0.109899 0.20085,-0.325906 0,-0.181902 -0.14021,-0.269062 -0.13643,-0.09095 -0.5495,-0.140216 l -0.23874,-0.03032 q -0.90572,-0.113688 -1.26952,-0.420646 -0.3638,-0.306958 -0.3638,-0.932243 0,-0.674549 0.46233,-1.000455 0.46233,-0.325906 1.41731,-0.325906 0.37517,0 0.78824,0.05684 0.41307,0.05684 0.89814,0.17811 z" />
    <path
       id="path6787"
       style="font-style:normal;font-variant:normal;font-weight:bold;font-stretch:normal;font-size:7.76111126px;font-family:'DejaVu Sans';-inkscape-font-specification:'DejaVu Sans Bold';fill:#ffffff;stroke-width:0.26458335"
       d="m 147.98593,52.928014 v 0.38654 h -3.1719 q 0.0493,0.47749 0.34485,0.716235 0.29559,0.238745 0.82614,0.238745 0.42822,0 0.8754,-0.125057 0.45096,-0.128846 0.92466,-0.38654 v 1.045931 q -0.48128,0.181901 -0.96256,0.272852 -0.48128,0.09474 -0.96256,0.09474 -1.15204,0 -1.79248,-0.583599 -0.63666,-0.587389 -0.63666,-1.644689 0,-1.038351 0.62529,-1.633319 0.62907,-0.594968 1.72806,-0.594968 1.00045,0 1.59921,0.602547 0.60255,0.602547 0.60255,1.610582 z m -1.39458,-0.450963 q 0,-0.38654 -0.22737,-0.621495 -0.22359,-0.238745 -0.58739,-0.238745 -0.39412,0 -0.64044,0.223586 -0.24633,0.219797 -0.30696,0.636654 z" />
    <path
       id="path6789"
       style="font-style:normal;font-variant:normal;font-weight:bold;font-stretch:normal;font-size:7.76111126px;font-family:'DejaVu Sans';-inkscape-font-specification:'DejaVu Sans Bold';fill:#ffffff;stroke-width:0.26458335"
       d="m 153.91287,50.604986 -1.59921,2.368503 h 1.59921 z m -0.24253,-1.201305 h 1.62195 v 3.569808 h 0.80718 v 1.0573 h -0.80718 v 1.030773 h -1.37942 v -1.030773 h -2.50872 v -1.25057 z" />
  </g>
  <g
     transform="translate(-8.5468622,0.32191672)"
     id="text6611"
     style="font-style:normal;font-weight:normal;font-size:10.58333397px;line-height:1.25;font-family:sans-serif;letter-spacing:0px;word-spacing:0px;fill:#ffffff;fill-opacity:1;stroke:none;stroke-width:0.26458335"
     aria-label="SC">
    <path
       id="path6770"
       style="font-style:normal;font-variant:normal;font-weight:bold;font-stretch:normal;font-size:7.76111126px;font-family:'DejaVu Sans';-inkscape-font-specification:'DejaVu Sans Bold';fill:#ffffff;stroke-width:0.26458335"
       d="m 92.787403,49.462442 v 1.197515 q -0.466121,-0.208428 -0.909505,-0.314537 -0.443384,-0.106109 -0.837503,-0.106109 -0.522965,0 -0.773079,0.144005 -0.250114,0.144005 -0.250114,0.447174 0,0.227376 0.166743,0.356222 0.170532,0.125057 0.613916,0.216008 l 0.621495,0.125057 q 0.943612,0.18948 1.34152,0.57602 0.397909,0.38654 0.397909,1.098985 0,0.936033 -0.557072,1.394575 -0.553283,0.454753 -1.693954,0.454753 -0.538124,0 -1.080037,-0.10232 -0.541914,-0.102319 -1.083827,-0.303168 V 53.415 q 0.541913,0.28801 1.045931,0.435805 0.507807,0.144005 0.977718,0.144005 0.47749,0 0.731394,-0.159164 0.253903,-0.159163 0.253903,-0.454752 0,-0.265273 -0.174322,-0.409278 -0.170532,-0.144004 -0.685918,-0.257693 L 90.32795,52.588866 q -0.848872,-0.181901 -1.242991,-0.579809 -0.390329,-0.397909 -0.390329,-1.072458 0,-0.845082 0.545703,-1.299835 0.545703,-0.454753 1.568897,-0.454753 0.466121,0 0.95877,0.072 0.492648,0.06821 1.019403,0.208428 z" />
    <path
       id="path6772"
       style="font-style:normal;font-variant:normal;font-weight:bold;font-stretch:normal;font-size:7.76111126px;font-family:'DejaVu Sans';-inkscape-font-specification:'DejaVu Sans Bold';fill:#ffffff;stroke-width:0.26458335"
       d="m 98.930353,54.631464 q -0.401698,0.208428 -0.837502,0.314537 -0.435805,0.106109 -0.909506,0.106109 -1.413522,0 -2.239656,-0.788238 -0.826134,-0.792028 -0.826134,-2.144917 0,-1.356678 0.826134,-2.144916 0.826134,-0.792028 2.239656,-0.792028 0.473701,0 0.909506,0.106109 0.435804,0.106109 0.837502,0.314538 v 1.170988 q -0.405487,-0.276642 -0.799606,-0.405488 -0.394119,-0.128847 -0.829924,-0.128847 -0.780658,0 -1.227832,0.500228 -0.447173,0.500228 -0.447173,1.379416 0,0.875399 0.447173,1.375627 0.447174,0.500228 1.227832,0.500228 0.435805,0 0.829924,-0.128847 0.394119,-0.128846 0.799606,-0.405487 z" />
  </g>
  <g
     transform="matrix(0.72222036,0,0,0.72222036,-0.27632936,9.6549555)"
     aria-label="FC"
     style="font-style:normal;font-weight:normal;font-size:10.58333397px;line-height:1.25;font-family:sans-serif;letter-spacing:0px;word-spacing:0px;fill:#ffffff;fill-opacity:1;stroke:none;stroke-width:0.26458335"
     id="g6801">
    <path
       d="m 23.097125,30.727129 h 5.369182 v 1.503784 h -3.379639 v 1.436605 h 3.178101 v 1.503785 h -3.178101 v 3.271118 h -1.989543 z"
       style="font-style:normal;font-variant:normal;font-weight:bold;font-stretch:normal;font-family:'DejaVu Sans';-inkscape-font-specification:'DejaVu Sans Bold';fill:#ffffff;stroke-width:0.26458335"
       id="path6797" />
    <path
       d="m 36.450317,38.018674 q -0.547771,0.284221 -1.14205,0.428915 -0.594279,0.144694 -1.240234,0.144694 -1.927531,0 -3.054077,-1.07487 -1.126547,-1.080038 -1.126547,-2.924886 0,-1.850017 1.126547,-2.924887 1.126546,-1.080037 3.054077,-1.080037 0.645955,0 1.240234,0.144694 0.594279,0.144694 1.14205,0.428914 v 1.596802 q -0.552938,-0.377238 -1.090373,-0.552938 -0.537435,-0.1757 -1.131714,-0.1757 -1.064535,0 -1.674317,0.682129 -0.609782,0.682129 -0.609782,1.881023 0,1.193725 0.609782,1.875854 0.609782,0.682129 1.674317,0.682129 0.594279,0 1.131714,-0.1757 0.537435,-0.1757 1.090373,-0.552938 z"
       style="font-style:normal;font-variant:normal;font-weight:bold;font-stretch:normal;font-family:'DejaVu Sans';-inkscape-font-specification:'DejaVu Sans Bold';fill:#ffffff;stroke-width:0.26458335"
       id="path6799" />
  </g>
  <g
     id="text6805"
     style="font-style:normal;font-weight:normal;font-size:10.58333397px;line-height:1.25;font-family:sans-serif;letter-spacing:0px;word-spacing:0px;fill:#000000;fill-opacity:1;stroke:none;stroke-width:0.26458335"
     aria-label="AID">
    <path
       id="path6809"
       style="font-style:normal;font-variant:normal;font-weight:bold;font-stretch:normal;font-size:7.76111174px;font-family:'DejaVu Sans';-inkscape-font-specification:'DejaVu Sans Bold';fill:#ffffff;stroke-width:0.26458335"
       d="M 39.598892,36.088089 H 37.31755 l -0.360013,1.030773 H 35.49096 l 2.095652,-5.657881 h 1.739429 l 2.095651,5.657881 h -1.466577 z m -1.91754,-1.04972 H 39.2313 l -0.773079,-2.251026 z" />
    <path
       id="path6811"
       style="font-style:normal;font-variant:normal;font-weight:bold;font-stretch:normal;font-size:7.76111174px;font-family:'DejaVu Sans';-inkscape-font-specification:'DejaVu Sans Bold';fill:#ffffff;stroke-width:0.26458335"
       d="m 42.168244,31.460981 h 1.458998 v 5.657881 h -1.458998 z" />
    <path
       id="path6813"
       style="font-style:normal;font-variant:normal;font-weight:bold;font-stretch:normal;font-size:7.76111174px;font-family:'DejaVu Sans';-inkscape-font-specification:'DejaVu Sans Bold';fill:#ffffff;stroke-width:0.26458335"
       d="m 46.522501,32.563757 v 3.45233 h 0.522965 q 0.894347,0 1.364258,-0.443384 0.473701,-0.443384 0.473701,-1.288466 0,-0.841292 -0.469911,-1.280886 -0.469911,-0.439594 -1.368048,-0.439594 z m -1.458998,-1.102776 h 1.53858 q 1.288465,0 1.91754,0.185691 0.632864,0.181901 1.083827,0.621495 0.397909,0.38275 0.591178,0.882978 0.19327,0.500228 0.19327,1.133092 0,0.640444 -0.19327,1.144461 -0.193269,0.500228 -0.591178,0.882978 -0.454753,0.439594 -1.091406,0.625285 -0.636654,0.181901 -1.909961,0.181901 h -1.53858 z" />
  </g>
</svg>
