<?xml version="1.0" encoding="UTF-8" standalone="no"?>
<svg
   xmlns:dc="http://purl.org/dc/elements/1.1/"
   xmlns:cc="http://creativecommons.org/ns#"
   xmlns:rdf="http://www.w3.org/1999/02/22-rdf-syntax-ns#"
   xmlns:svg="http://www.w3.org/2000/svg"
   xmlns="http://www.w3.org/2000/svg"
   xmlns:xlink="http://www.w3.org/1999/xlink"
   id="svg8"
   version="1.1"
   viewBox="0 0 239.74883 70.694546"
   height="267.19199"
   width="906.13733">
  <defs
     id="defs2" />
  <metadata
     id="metadata5">
    <rdf:RDF>
      <cc:Work
         rdf:about="">
        <dc:format>image/svg+xml</dc:format>
        <dc:type
           rdf:resource="http://purl.org/dc/dcmitype/StillImage" />
        <dc:title></dc:title>
      </cc:Work>
    </rdf:RDF>
  </metadata>
  <g
     transform="translate(8.1477533,-25.322031)"
     id="layer1">
    <g
       transform="matrix(0.36062259,0,0,0.36062259,16.575601,38.473726)"
       id="g4524">
      <circle
         style="opacity:0.86699997;fill:none;fill-opacity:1;stroke:#d40000;stroke-width:2;stroke-miterlimit:4;stroke-dasharray:none"
         id="path4518"
         cx="46.972622"
         cy="58.929665"
         r="9.5548859" />
      <circle
         r="7.0158257"
         cy="58.929665"
         cx="46.972622"
         id="circle4520"
         style="opacity:1;fill:#38389e;fill-opacity:1;stroke-width:0.19427447" />
    </g>
    <use
       height="100%"
       width="100%"
       transform="translate(19.087798,-14.079612)"
       id="use4526"
       xlink:href="#g4524"
       y="0"
       x="0" />
    <use
       height="100%"
       width="100%"
       transform="translate(18.520833,16.914435)"
       id="use4528"
       xlink:href="#g4524"
       y="0"
       x="0" />
    <use
       height="100%"
       width="100%"
       transform="translate(-0.94494084,-26.836309)"
       id="use4530"
       xlink:href="#g4524"
       y="0"
       x="0" />
    <use
       height="100%"
       width="100%"
       transform="translate(-16.914435,19.560268)"
       id="use4532"
       xlink:href="#g4524"
       y="0"
       x="0" />
    <use
       height="100%"
       width="100%"
       transform="translate(-21.450149,-15.308036)"
       id="use4534"
       xlink:href="#g4524"
       y="0"
       x="0" />
    <path
       id="path4536"
       d="M 33.514988,59.725092 52.035821,76.639529"
       style="fill:none;stroke:#38389e;stroke-width:0.565;stroke-linecap:butt;stroke-linejoin:miter;stroke-miterlimit:4;stroke-dasharray:none;stroke-opacity:1" />
    <path
       style="fill:none;stroke:#38389e;stroke-width:0.565;stroke-linecap:butt;stroke-linejoin:miter;stroke-miterlimit:4;stroke-dasharray:none;stroke-opacity:1"
       d="M 12.064841,44.417058 33.51499,59.725094"
       id="path4540" />
    <path
       style="fill:none;stroke:#38389e;stroke-width:0.565;stroke-linecap:butt;stroke-linejoin:miter;stroke-miterlimit:4;stroke-dasharray:none;stroke-opacity:1"
       d="m 33.514988,59.725092 19.0878,-14.07961"
       id="path4542" />
    <path
       id="path4544"
       d="M 33.514988,59.725092 32.570049,32.888785"
       style="fill:none;stroke:#38389e;stroke-width:0.565;stroke-linecap:butt;stroke-linejoin:miter;stroke-miterlimit:4;stroke-dasharray:none;stroke-opacity:1" />
    <path
       style="fill:none;stroke:#38389e;stroke-width:0.565;stroke-linecap:butt;stroke-linejoin:miter;stroke-miterlimit:4;stroke-dasharray:none;stroke-opacity:1"
       d="M 33.514988,59.725092 16.600555,79.285362"
       id="path4546" />
    <use
       height="100%"
       width="100%"
       transform="translate(68.87984,16.493721)"
       id="use4548"
       xlink:href="#g4524"
       y="0"
       x="0" />
    <use
       height="100%"
       width="100%"
       transform="translate(80.313143,-4.1371139)"
       id="use4550"
       xlink:href="#g4524"
       y="0"
       x="0" />
    <use
       height="100%"
       width="100%"
       transform="translate(66.209112,-18.886053)"
       id="use4552"
       xlink:href="#g4524"
       y="0"
       x="0" />
    <use
       height="100%"
       width="100%"
       transform="matrix(0.75312229,0,0,0.75312229,63.891928,23.549792)"
       id="use4554"
       xlink:href="#g4524"
       y="0"
       x="0" />
    <use
       height="100%"
       width="100%"
       transform="translate(100.40944,0.76280865)"
       id="use4556"
       xlink:href="#g4524"
       y="0"
       x="0" />
    <use
       height="100%"
       width="100%"
       transform="matrix(0.75312229,0,0,0.75312229,84.060169,-14.145803)"
       id="use4558"
       xlink:href="#g4524"
       y="0"
       x="0" />
    <use
       height="100%"
       width="100%"
       transform="matrix(0.75312229,0,0,0.75312229,111.6188,-2.7030096)"
       id="use4560"
       xlink:href="#g4524"
       y="0"
       x="0" />
    <use
       height="100%"
       width="100%"
       transform="matrix(0.75312229,0,0,0.75312229,61.450833,2.612333)"
       id="use4562"
       xlink:href="#g4524"
       y="0"
       x="0" />
    <use
       height="100%"
       width="100%"
       transform="matrix(0.75312229,0,0,0.75312229,112.01977,27.26097)"
       id="use4564"
       xlink:href="#g4524"
       y="0"
       x="0" />
    <use
       height="100%"
       width="100%"
       transform="matrix(0.75312229,0,0,0.75312229,120.84173,11.369162)"
       id="use4566"
       xlink:href="#g4524"
       y="0"
       x="0" />
    <use
       height="100%"
       width="100%"
       transform="matrix(0.75312229,0,0,0.75312229,91.819681,38.276916)"
       id="use4568"
       xlink:href="#g4524"
       y="0"
       x="0" />
    <path
       style="fill:none;stroke:#38389e;stroke-width:0.565;stroke-linecap:butt;stroke-linejoin:miter;stroke-miterlimit:4;stroke-dasharray:none;stroke-opacity:1"
       d="M 99.724102,40.839041 113.82813,55.58798"
       id="path4570" />
    <path
       id="path4572"
       d="M 102.39483,76.218815 113.82813,55.58798"
       style="fill:none;stroke:#38389e;stroke-width:0.565;stroke-linecap:butt;stroke-linejoin:miter;stroke-miterlimit:4;stroke-dasharray:none;stroke-opacity:1" />
    <path
       style="fill:none;stroke:#38389e;stroke-width:0.565;stroke-linecap:butt;stroke-linejoin:miter;stroke-miterlimit:4;stroke-dasharray:none;stroke-opacity:1"
       d="M 133.92443,60.487903 113.82813,55.58798"
       id="path4574" />
    <path
       id="path4576"
       d="M 133.92443,60.487903 136.85969,42.27729"
       style="fill:none;stroke:#38389e;stroke-width:0.565;stroke-linecap:butt;stroke-linejoin:miter;stroke-miterlimit:4;stroke-dasharray:none;stroke-opacity:1" />
    <path
       style="fill:none;stroke:#38389e;stroke-width:0.565;stroke-linecap:butt;stroke-linejoin:miter;stroke-miterlimit:4;stroke-dasharray:none;stroke-opacity:1"
       d="m 133.92443,60.487903 12.15819,-4.138442"
       id="path4578" />
    <path
       id="path4580"
       d="m 133.92443,60.487903 3.33623,11.753367"
       style="fill:none;stroke:#38389e;stroke-width:0.565;stroke-linecap:butt;stroke-linejoin:miter;stroke-miterlimit:4;stroke-dasharray:none;stroke-opacity:1" />
    <path
       style="fill:none;stroke:#38389e;stroke-width:0.565;stroke-linecap:butt;stroke-linejoin:miter;stroke-miterlimit:4;stroke-dasharray:none;stroke-opacity:1"
       d="m 102.39483,76.218815 14.66573,7.038401"
       id="path4582" />
    <path
       id="path4584"
       d="M 102.39483,76.218815 89.132814,68.530092"
       style="fill:none;stroke:#38389e;stroke-width:0.565;stroke-linecap:butt;stroke-linejoin:miter;stroke-miterlimit:4;stroke-dasharray:none;stroke-opacity:1" />
    <path
       id="path4586"
       d="M 99.724102,40.839041 86.691719,47.592633"
       style="fill:none;stroke:#38389e;stroke-width:0.565;stroke-linecap:butt;stroke-linejoin:miter;stroke-miterlimit:4;stroke-dasharray:none;stroke-opacity:1" />
    <path
       style="fill:none;stroke:#38389e;stroke-width:0.565;stroke-linecap:butt;stroke-linejoin:miter;stroke-miterlimit:4;stroke-dasharray:none;stroke-opacity:1"
       d="M 99.724102,40.839041 109.30105,30.834497"
       id="path4588" />
    <use
       height="100%"
       width="100%"
       transform="translate(154.40327,-23.358924)"
       id="use4590"
       xlink:href="#g4524"
       y="0"
       x="0" />
    <use
       height="100%"
       width="100%"
       transform="translate(152.93862,4.5168155)"
       id="use4592"
       xlink:href="#g4524"
       y="0"
       x="0" />
    <use
       height="100%"
       width="100%"
       transform="translate(191.63393,15.856105)"
       id="use4594"
       xlink:href="#g4524"
       y="0"
       x="0" />
    <use
       height="100%"
       width="100%"
       transform="translate(190.64174,-22.31949)"
       id="use4596"
       xlink:href="#g4524"
       y="0"
       x="0" />
    <use
       height="100%"
       width="100%"
       transform="translate(167.06548,21.478501)"
       id="use4600"
       xlink:href="#g4524"
       y="0"
       x="0" />
    <use
       height="100%"
       width="100%"
       transform="translate(173.72731,-5.5940457)"
       id="use4602"
       xlink:href="#g4524"
       y="0"
       x="0" />
    <use
       height="100%"
       width="100%"
       transform="translate(139.18974,16.328575)"
       id="use4604"
       xlink:href="#g4524"
       y="0"
       x="0" />
    <path
       style="fill:none;stroke:#38389e;stroke-width:0.565;stroke-linecap:butt;stroke-linejoin:miter;stroke-miterlimit:4;stroke-dasharray:none;stroke-opacity:1"
       d="M 207.2423,54.131051 187.91826,36.36617"
       id="path4606" />
    <path
       id="path4608"
       d="M 207.2423,54.131051 186.45361,64.241914"
       style="fill:none;stroke:#38389e;stroke-width:0.565;stroke-linecap:butt;stroke-linejoin:miter;stroke-miterlimit:4;stroke-dasharray:none;stroke-opacity:1" />
    <path
       style="fill:none;stroke:#38389e;stroke-width:0.565;stroke-linecap:butt;stroke-linejoin:miter;stroke-miterlimit:4;stroke-dasharray:none;stroke-opacity:1"
       d="m 207.2423,54.131051 -6.66183,27.072544"
       id="path4610" />
    <path
       id="path4612"
       d="m 186.45361,64.241914 14.12686,16.961681"
       style="fill:none;stroke:#38389e;stroke-width:0.565;stroke-linecap:butt;stroke-linejoin:miter;stroke-miterlimit:4;stroke-dasharray:none;stroke-opacity:1" />
    <path
       style="fill:none;stroke:#38389e;stroke-width:0.565;stroke-linecap:butt;stroke-linejoin:miter;stroke-miterlimit:4;stroke-dasharray:none;stroke-opacity:1"
       d="m 172.70473,76.05367 27.87574,5.149925"
       id="path4614" />
    <path
       id="path4616"
       d="m 172.70473,76.05367 15.21353,-39.6875"
       style="fill:none;stroke:#38389e;stroke-width:0.565;stroke-linecap:butt;stroke-linejoin:miter;stroke-miterlimit:4;stroke-dasharray:none;stroke-opacity:1" />
    <path
       style="fill:none;stroke:#38389e;stroke-width:0.565;stroke-linecap:butt;stroke-linejoin:miter;stroke-miterlimit:4;stroke-dasharray:none;stroke-opacity:1"
       d="M 172.70473,76.05367 186.45361,64.241914"
       id="path4618" />
    <path
       id="path4620"
       d="M 224.15673,37.405604 187.91826,36.36617"
       style="fill:none;stroke:#38389e;stroke-width:0.565;stroke-linecap:butt;stroke-linejoin:miter;stroke-miterlimit:4;stroke-dasharray:none;stroke-opacity:1" />
    <path
       style="fill:none;stroke:#38389e;stroke-width:0.565;stroke-linecap:butt;stroke-linejoin:miter;stroke-miterlimit:4;stroke-dasharray:none;stroke-opacity:1"
       d="M 186.45361,64.241914 187.91826,36.36617"
       id="path4622" />
    <path
       id="path4624"
       d="m 225.14892,75.5812 -24.56845,5.622395"
       style="fill:none;stroke:#38389e;stroke-width:0.565;stroke-linecap:butt;stroke-linejoin:miter;stroke-miterlimit:4;stroke-dasharray:none;stroke-opacity:1" />
    <path
       style="fill:none;stroke:#38389e;stroke-width:0.565;stroke-linecap:butt;stroke-linejoin:miter;stroke-miterlimit:4;stroke-dasharray:none;stroke-opacity:1"
       d="M 225.14892,75.5812 224.15673,37.405604"
       id="path4626" />
    <path
       id="path4628"
       d="M 207.2423,54.131051 224.15673,37.405604"
       style="fill:none;stroke:#38389e;stroke-width:0.565;stroke-linecap:butt;stroke-linejoin:miter;stroke-miterlimit:4;stroke-dasharray:none;stroke-opacity:1" />
    <path
       id="path4630"
       d="M 224.15673,37.405604 200.58047,81.203595"
       style="fill:none;stroke:#38389e;stroke-width:0.565;stroke-linecap:butt;stroke-linejoin:miter;stroke-miterlimit:4;stroke-dasharray:none;stroke-opacity:1" />
    <circle
       r="4.676722"
       cy="88.514626"
       cx="-0.82519788"
       id="path8399"
       style="opacity:1;fill:#ff0000;fill-opacity:0.9953125;stroke:none;stroke-width:0.48031488;stroke-miterlimit:4;stroke-dasharray:none;stroke-dashoffset:56.69291306;stroke-opacity:1" />
    <g
       transform="matrix(0.66870183,0,0,0.66870183,914.38689,48.153697)"
       id="text8403"
       style="font-style:normal;font-weight:normal;font-size:5.68996382px;line-height:1.25;font-family:sans-serif;letter-spacing:0px;word-spacing:0px;fill:#ffffff;fill-opacity:1;stroke:none;stroke-width:0.14224909"
       aria-label="1">
      <path
         id="path8430"
         style="font-style:normal;font-variant:normal;font-weight:bold;font-stretch:normal;font-size:10.62126637px;font-family:'DejaVu Sans';-inkscape-font-specification:'DejaVu Sans Bold';fill:#ffffff;stroke-width:0.14224909"
         d="m -1371.3237,62.849019 h 1.7633 v -5.00465 l -1.81,0.373404 v -1.358775 l 1.7996,-0.373404 h 1.8982 v 6.363425 h 1.7633 v 1.37952 h -5.4144 z" />
    </g>
    <circle
       style="opacity:1;fill:#ff0000;fill-opacity:0.9953125;stroke:none;stroke-width:0.48031488;stroke-miterlimit:4;stroke-dasharray:none;stroke-dashoffset:56.69291306;stroke-opacity:1"
       id="circle8405"
       cx="81.258537"
       cy="88.694023"
       r="4.676722" />
    <g
       transform="translate(1254.4281,-61.851406)"
       id="text8409"
       style="font-style:normal;font-weight:normal;font-size:3.80488873px;line-height:1.25;font-family:sans-serif;letter-spacing:0px;word-spacing:0px;fill:#ffffff;fill-opacity:1;stroke:none;stroke-width:0.09512223"
       aria-label="2">
      <path
         id="path8546"
         style="font-style:normal;font-variant:normal;font-weight:bold;font-stretch:normal;font-size:7.10245991px;font-family:'DejaVu Sans';-inkscape-font-specification:'DejaVu Sans Bold';fill:#ffffff;stroke-width:0.09512223"
         d="m -1173.751,152.15283 h 2.2785 v 0.98145 h -3.7628 v -0.98145 l 1.8901,-1.6681 q 0.2531,-0.22889 0.3745,-0.44737 0.1214,-0.21849 0.1214,-0.45431 0,-0.36414 -0.2462,-0.58609 -0.2428,-0.22196 -0.6486,-0.22196 -0.3121,0 -0.6832,0.13526 -0.371,0.13178 -0.7941,0.39535 v -1.13751 q 0.4508,-0.14912 0.8912,-0.22542 0.4405,-0.0798 0.8636,-0.0798 0.9294,0 1.4427,0.40922 0.5167,0.40923 0.5167,1.14098 0,0.42309 -0.2185,0.7907 -0.2185,0.36414 -0.919,0.97797 z" />
    </g>
    <circle
       r="4.676722"
       cy="88.560051"
       cx="165.84303"
       id="circle8433"
       style="opacity:1;fill:#ff0000;fill-opacity:0.9953125;stroke:none;stroke-width:0.48031488;stroke-miterlimit:4;stroke-dasharray:none;stroke-dashoffset:56.69291306;stroke-opacity:1" />
    <g
       transform="matrix(0.66870183,0,0,0.66870183,1079.1845,-56.185308)"
       id="text8437"
       style="font-style:normal;font-weight:normal;font-size:5.68996382px;line-height:1.25;font-family:sans-serif;letter-spacing:0px;word-spacing:0px;fill:#ffffff;fill-opacity:1;stroke:none;stroke-width:0.14224909"
       aria-label="3">
      <path
         id="path8445"
         style="font-style:normal;font-variant:normal;font-weight:bold;font-stretch:normal;font-size:10.62126637px;font-family:'DejaVu Sans';-inkscape-font-specification:'DejaVu Sans Bold';fill:#ffffff;stroke-width:0.14224909"
         d="m -1364.8233,216.15381 q 0.7831,0.20226 1.1877,0.70532 0.4097,0.49787 0.4097,1.27061 0,1.15133 -0.8817,1.75292 -0.8816,0.59641 -2.5723,0.59641 -0.5964,0 -1.198,-0.0985 -0.5964,-0.0934 -1.1825,-0.28524 v -1.54029 q 0.5601,0.28005 1.1099,0.42526 0.5549,0.14003 1.0891,0.14003 0.7934,0 1.2135,-0.27487 0.4253,-0.27487 0.4253,-0.7883 0,-0.52898 -0.4356,-0.79867 -0.4305,-0.27486 -1.2758,-0.27486 h -0.7987 v -1.28617 h 0.8401 q 0.752,0 1.1203,-0.23338 0.3682,-0.23856 0.3682,-0.72088 0,-0.44601 -0.3579,-0.68976 -0.3578,-0.24375 -1.0113,-0.24375 -0.4823,0 -0.975,0.10891 -0.4927,0.10891 -0.9802,0.32155 v -1.4625 q 0.5913,-0.16596 1.1721,-0.24894 0.5809,-0.083 1.141,-0.083 1.5091,0 2.256,0.49788 0.752,0.49268 0.752,1.48842 0,0.67939 -0.3579,1.11503 -0.3578,0.43045 -1.058,0.60678 z" />
    </g>
  </g>
</svg>
