<?xml version="1.0" encoding="UTF-8" standalone="no"?>
<svg
   xmlns:dc="http://purl.org/dc/elements/1.1/"
   xmlns:cc="http://creativecommons.org/ns#"
   xmlns:rdf="http://www.w3.org/1999/02/22-rdf-syntax-ns#"
   xmlns:svg="http://www.w3.org/2000/svg"
   xmlns="http://www.w3.org/2000/svg"
   xmlns:xlink="http://www.w3.org/1999/xlink"
   width="214.22437mm"
   height="144.22682mm"
   viewBox="0 0 214.22436 144.22682"
   version="1.1"
   id="svg6072">
  <defs
     id="defs6066" />
  <metadata
     id="metadata6069">
    <rdf:RDF>
      <cc:Work
         rdf:about="">
        <dc:format>image/svg+xml</dc:format>
        <dc:type
           rdf:resource="http://purl.org/dc/dcmitype/StillImage" />
        <dc:title></dc:title>
      </cc:Work>
    </rdf:RDF>
  </metadata>
  <flowRoot
     transform="matrix(0.26458332,0,0,0.26458332,43.25829,-27.520383)"
     style="font-style:normal;font-weight:normal;font-size:40px;line-height:1.25;font-family:sans-serif;letter-spacing:0px;word-spacing:0px;fill:#000000;fill-opacity:1;stroke:none"
     id="flowRoot817"
     xml:space="preserve"><flowRegion
       id="flowRegion819"><rect
         y="82.78125"
         x="126.37552"
         height="45.546505"
         width="116.43227"
         id="rect821" /></flowRegion><flowPara
       id="flowPara823"></flowPara></flowRoot>  <g
     transform="translate(43.25829,-27.520383)"
     id="layer2">
    <ellipse
       ry="54.964844"
       rx="68.98716"
       cy="101.24551"
       cx="31.964922"
       id="path2001"
       style="opacity:1;fill:none;fill-opacity:0.86666667;stroke:#000000;stroke-width:0.72907507;stroke-miterlimit:4;stroke-dasharray:none;stroke-opacity:0.29024945" />
  </g>
  <g
     transform="translate(43.25829,-27.520383)"
     style="display:inline"
     id="layer3">
    <path
       id="path2017"
       d="m -19.182427,64.846512 18.89405568,10.31968"
       style="display:inline;fill:none;stroke:#668000;stroke-width:0.52916664;stroke-linecap:butt;stroke-linejoin:miter;stroke-miterlimit:4;stroke-dasharray:none;stroke-opacity:1" />
    <path
       style="display:inline;fill:none;stroke:#668000;stroke-width:0.52916664;stroke-linecap:butt;stroke-linejoin:miter;stroke-miterlimit:4;stroke-dasharray:none;stroke-opacity:1"
       d="M -2.448686,122.09299 -0.28837132,75.166192"
       id="path2039" />
    <path
       id="path2041"
       d="M 50.238952,70.605533 -0.28837132,75.166192"
       style="display:inline;fill:none;stroke:#668000;stroke-width:0.52916664;stroke-linecap:butt;stroke-linejoin:miter;stroke-miterlimit:4;stroke-dasharray:none;stroke-opacity:1" />
    <path
       style="display:inline;fill:none;stroke:#668000;stroke-width:0.52916664;stroke-linecap:butt;stroke-linejoin:miter;stroke-miterlimit:4;stroke-dasharray:none;stroke-opacity:1"
       d="M 50.238952,70.605533 70.776309,97.677504"
       id="path2069" />
    <path
       id="path2071"
       d="M 50.238952,70.605533 22.946365,97.276417 c -1.59023,-0.960139 -3.039713,0.501982 -2.079574,2.032204 L -2.448686,122.09299"
       style="display:inline;fill:none;stroke:#668000;stroke-width:0.52916664;stroke-linecap:butt;stroke-linejoin:miter;stroke-miterlimit:4;stroke-dasharray:none;stroke-opacity:1" />
    <path
       style="display:inline;fill:none;stroke:#668000;stroke-width:0.52916664;stroke-linecap:butt;stroke-linejoin:miter;stroke-miterlimit:4;stroke-dasharray:none;stroke-opacity:1"
       d="M 52.279247,130.25418 -2.448686,122.09299"
       id="path2073" />
    <path
       id="path2075"
       d="M 52.279247,130.25418 -0.28837132,75.166192"
       style="display:inline;fill:none;stroke:#668000;stroke-width:0.52916664;stroke-linecap:butt;stroke-linejoin:miter;stroke-miterlimit:4;stroke-dasharray:none;stroke-opacity:1" />
    <path
       style="display:inline;fill:none;stroke:#668000;stroke-width:0.52916664;stroke-linecap:butt;stroke-linejoin:miter;stroke-miterlimit:4;stroke-dasharray:none;stroke-opacity:1"
       d="M 52.279247,130.25418 70.776309,97.677504"
       id="path2077" />
    <path
       id="path2079"
       d="M -0.28837132,75.166192 32.79396,85.645754 c 2.070301,-2.34034 3.568625,-0.808847 3.508616,1.111431 l 34.473733,10.920319"
       style="display:inline;fill:none;stroke:#668000;stroke-width:0.52916664;stroke-linecap:butt;stroke-linejoin:miter;stroke-miterlimit:4;stroke-dasharray:none;stroke-opacity:1" />
    <path
       style="display:inline;fill:none;stroke:#668000;stroke-width:0.52916664;stroke-linecap:butt;stroke-linejoin:miter;stroke-miterlimit:4;stroke-dasharray:none;stroke-opacity:1"
       d="M -2.7400441,148.70102 -2.448686,122.09299"
       id="path2081" />
    <path
       id="path2083"
       d="M 92.553767,127.57796 70.776309,97.677504"
       style="display:inline;fill:none;stroke:#668000;stroke-width:0.52916664;stroke-linecap:butt;stroke-linejoin:miter;stroke-miterlimit:4;stroke-dasharray:none;stroke-opacity:1" />
    <path
       style="display:inline;fill:none;stroke:#668000;stroke-width:0.52916664;stroke-linecap:butt;stroke-linejoin:miter;stroke-miterlimit:4;stroke-dasharray:none;stroke-opacity:1"
       d="M 84.392584,65.16892 50.238952,70.605533"
       id="path2085" />
    <path
       id="path2087"
       d="M -2.7400441,148.70102 92.553767,127.57796"
       style="display:inline;fill:none;stroke:#ff6600;stroke-width:0.52916664;stroke-linecap:butt;stroke-linejoin:miter;stroke-miterlimit:4;stroke-dasharray:0.52916665, 0.52916665;stroke-dashoffset:0;stroke-opacity:1" />
    <path
       style="display:inline;fill:none;stroke:#ff6600;stroke-width:0.52916664;stroke-linecap:butt;stroke-linejoin:miter;stroke-miterlimit:4;stroke-dasharray:0.52916665, 0.52916665;stroke-dashoffset:0;stroke-opacity:1"
       d="m 84.392584,65.16892 8.161183,62.40904"
       id="path2100" />
    <path
       id="path2102"
       d="M 84.392584,65.16892 -19.182426,64.846513"
       style="display:inline;fill:none;stroke:#ff6600;stroke-width:0.52916664;stroke-linecap:butt;stroke-linejoin:miter;stroke-miterlimit:4;stroke-dasharray:0.52916665, 0.52916665;stroke-dashoffset:0;stroke-opacity:1" />
    <path
       style="display:inline;fill:none;stroke:#ff6600;stroke-width:0.52916664;stroke-linecap:butt;stroke-linejoin:miter;stroke-miterlimit:4;stroke-dasharray:0.52916665, 0.52916665;stroke-dashoffset:0;stroke-opacity:1"
       d="M -2.7400441,148.70102 -19.182426,64.846513"
       id="path2104" />
    <g
       id="g2112">
      <path
         id="path2106"
         d="M -19.182427,64.846512 -28.41166,57.353795"
         style="display:inline;fill:#d7f4ee;stroke:#c837ab;stroke-width:1.03187501;stroke-linecap:butt;stroke-linejoin:miter;stroke-miterlimit:4;stroke-dasharray:none;stroke-opacity:1" />
      <path
         style="display:inline;fill:#d7f4ee;stroke:#c837ab;stroke-width:1.03187501;stroke-linecap:butt;stroke-linejoin:miter;stroke-miterlimit:4;stroke-dasharray:1.03187499, 1.03187499;stroke-dashoffset:0;stroke-opacity:1"
         d="m -28.41166,57.353795 -4.521442,-3.670717"
         id="path2108" />
    </g>
    <use
       height="100%"
       width="100%"
       transform="rotate(97.211632,32.462987,110.6552)"
       id="use2114"
       xlink:href="#g2112"
       y="0"
       x="0" />
    <use
       height="100%"
       width="100%"
       transform="rotate(86.705256,55.361183,101.08353)"
       id="use2116"
       xlink:href="#use2114"
       y="0"
       x="0" />
    <use
       x="0"
       y="0"
       xlink:href="#use2114"
       id="use2118"
       transform="rotate(176.88299,39.952587,105.64407)"
       width="100%"
       height="100%" />
  </g>
  <g
     transform="translate(43.25829,-27.520383)"
     style="display:inline"
     id="layer1">
    <g
       transform="matrix(0.3606226,0,0,0.3606226,67.453195,43.917551)"
       id="g4524">
      <circle
         style="opacity:0.86699997;fill:none;fill-opacity:1;stroke:#d40000;stroke-width:2;stroke-miterlimit:4;stroke-dasharray:none"
         id="path4518"
         cx="46.972622"
         cy="58.929665"
         r="9.5548859" />
      <circle
         r="7.0158257"
         cy="58.929665"
         cx="46.972622"
         id="circle4520"
         style="opacity:1;fill:#38389e;fill-opacity:0.98639461;stroke-width:0.19427447" />
    </g>
    <use
       height="100%"
       width="100%"
       transform="translate(8.1611829,62.409044)"
       id="use2003"
       xlink:href="#g4524"
       y="0"
       x="0" />
    <use
       height="100%"
       width="100%"
       transform="translate(-95.293811,21.123061)"
       id="use2005"
       xlink:href="#use2003"
       y="0"
       x="0" />
    <use
       height="100%"
       width="100%"
       transform="translate(-16.442382,-83.854512)"
       id="use2007"
       xlink:href="#use2005"
       y="0"
       x="0" />
    <g
       id="use2011"
       transform="matrix(0.3606226,0,0,0.3606226,35.339858,109.00281)">
      <circle
         r="9.5548859"
         cy="58.929665"
         cx="46.972622"
         id="circle2055"
         style="opacity:0.86699997;fill:none;fill-opacity:1;stroke:#38389e;stroke-width:2;stroke-miterlimit:4;stroke-dasharray:none;stroke-opacity:1" />
      <circle
         style="opacity:1;fill:#d40000;fill-opacity:0.98717945;stroke:none;stroke-width:0.19427447;stroke-opacity:1"
         id="circle2057"
         cx="46.972622"
         cy="58.929665"
         r="7.0158257" />
    </g>
    <use
       height="100%"
       width="100%"
       transform="translate(-54.727933,-8.1611889)"
       id="use2061"
       xlink:href="#use2011"
       y="0"
       x="0" />
    <use
       height="100%"
       width="100%"
       transform="translate(2.1603146,-46.926798)"
       id="use2063"
       xlink:href="#use2061"
       y="0"
       x="0" />
    <use
       height="100%"
       width="100%"
       transform="translate(50.527323,-4.560659)"
       id="use2065"
       xlink:href="#use2063"
       y="0"
       x="0" />
    <use
       height="100%"
       width="100%"
       transform="translate(20.537357,27.071971)"
       id="use2067"
       xlink:href="#use2065"
       y="0"
       x="0" />
    <use
       height="100%"
       width="100%"
       transform="translate(27.733804,27.212004)"
       id="use2120"
       xlink:href="#g4524"
       y="0"
       x="0" />
    <use
       height="100%"
       width="100%"
       transform="translate(59.847141,-27.275892)"
       id="use2122"
       xlink:href="#use2011"
       y="0"
       x="0" />
    <g
       id="text2126"
       style="font-style:normal;font-weight:normal;font-size:10.58333302px;line-height:1.25;font-family:sans-serif;letter-spacing:0px;word-spacing:0px;fill:#000000;fill-opacity:1;stroke:none;stroke-width:0.26458332"
       aria-label="Routeur de bordure">
      <path
         id="path2267"
         style="font-style:normal;font-variant:normal;font-weight:normal;font-stretch:normal;font-size:4.23333311px;font-family:'DejaVu Sans';-inkscape-font-specification:'DejaVu Sans';stroke-width:0.26458332"
         d="m 121.7788,92.512166 q 0.13436,0.04548 0.26045,0.194304 0.12815,0.148828 0.25631,0.409277 l 0.42375,0.843359 h -0.44855 l -0.39481,-0.791682 q -0.15296,-0.310059 -0.29766,-0.411345 -0.14263,-0.101286 -0.39067,-0.101286 h -0.45475 v 1.304313 h -0.41755 V 90.87299 h 0.94258 q 0.52916,0 0.78961,0.221175 0.26045,0.221175 0.26045,0.66766 0,0.291455 -0.13642,0.483691 -0.13436,0.192236 -0.39274,0.26665 z m -1.04593,-1.296044 v 1.09554 h 0.52503 q 0.30179,0 0.45475,-0.138493 0.15503,-0.14056 0.15503,-0.411344 0,-0.270785 -0.15503,-0.407211 -0.15296,-0.138492 -0.45475,-0.138492 z" />
      <path
         id="path2269"
         style="font-style:normal;font-variant:normal;font-weight:normal;font-stretch:normal;font-size:4.23333311px;font-family:'DejaVu Sans';-inkscape-font-specification:'DejaVu Sans';stroke-width:0.26458332"
         d="m 123.94921,91.910653 q -0.30593,0 -0.4837,0.239778 -0.17776,0.237712 -0.17776,0.65319 0,0.415479 0.1757,0.655258 0.17776,0.237711 0.48576,0.237711 0.30385,0 0.48162,-0.239778 0.17777,-0.239779 0.17777,-0.653191 0,-0.411344 -0.17777,-0.651123 -0.17777,-0.241845 -0.48162,-0.241845 z m 0,-0.322461 q 0.49609,0 0.77928,0.322461 0.28318,0.322461 0.28318,0.892968 0,0.568441 -0.28318,0.892969 -0.28319,0.322461 -0.77928,0.322461 -0.49816,0 -0.78135,-0.322461 -0.28112,-0.324528 -0.28112,-0.892969 0,-0.570507 0.28112,-0.892968 0.28319,-0.322461 0.78135,-0.322461 z" />
      <path
         id="path2271"
         style="font-style:normal;font-variant:normal;font-weight:normal;font-stretch:normal;font-size:4.23333311px;font-family:'DejaVu Sans';-inkscape-font-specification:'DejaVu Sans';stroke-width:0.26458332"
         d="m 125.60078,93.045467 v -1.401465 h 0.38034 v 1.386996 q 0,0.328662 0.12816,0.494026 0.12816,0.163298 0.38447,0.163298 0.308,0 0.48576,-0.19637 0.17984,-0.196371 0.17984,-0.535368 v -1.312582 h 0.38033 v 2.315104 h -0.38033 v -0.355533 q -0.1385,0.210839 -0.32246,0.314192 -0.18191,0.101286 -0.42375,0.101286 -0.39894,0 -0.60565,-0.248047 -0.20671,-0.248047 -0.20671,-0.725537 z m 0.95705,-1.457275 z" />
      <path
         id="path2273"
         style="font-style:normal;font-variant:normal;font-weight:normal;font-stretch:normal;font-size:4.23333311px;font-family:'DejaVu Sans';-inkscape-font-specification:'DejaVu Sans';stroke-width:0.26458332"
         d="m 128.70344,90.986678 v 0.657324 h 0.78341 v 0.29559 h -0.78341 v 1.25677 q 0,0.283187 0.0765,0.363802 0.0786,0.08062 0.31626,0.08062 h 0.39067 v 0.318326 h -0.39067 q -0.44028,0 -0.60772,-0.163297 -0.16743,-0.165365 -0.16743,-0.599447 v -1.25677 h -0.27905 v -0.29559 h 0.27905 v -0.657324 z" />
      <path
         id="path2275"
         style="font-style:normal;font-variant:normal;font-weight:normal;font-stretch:normal;font-size:4.23333311px;font-family:'DejaVu Sans';-inkscape-font-specification:'DejaVu Sans';stroke-width:0.26458332"
         d="m 131.96939,92.70647 v 0.186035 h -1.74873 q 0.0248,0.392741 0.23564,0.599447 0.21291,0.204638 0.59118,0.204638 0.21911,0 0.42375,-0.05374 0.2067,-0.05374 0.40927,-0.161231 v 0.359668 q -0.20463,0.08682 -0.41961,0.132292 -0.21497,0.04548 -0.43615,0.04548 -0.55397,0 -0.8785,-0.322461 -0.32246,-0.322461 -0.32246,-0.872298 0,-0.568441 0.30593,-0.901237 0.30799,-0.334863 0.82889,-0.334863 0.46715,0 0.73794,0.30179 0.27285,0.299723 0.27285,0.816488 z m -0.38034,-0.111621 q -0.004,-0.312126 -0.1757,-0.498161 -0.1695,-0.186035 -0.45062,-0.186035 -0.31833,0 -0.51056,0.179834 -0.19017,0.179834 -0.21911,0.506429 z" />
      <path
         id="path2277"
         style="font-style:normal;font-variant:normal;font-weight:normal;font-stretch:normal;font-size:4.23333311px;font-family:'DejaVu Sans';-inkscape-font-specification:'DejaVu Sans';stroke-width:0.26458332"
         d="m 132.55437,93.045467 v -1.401465 h 0.38033 v 1.386996 q 0,0.328662 0.12816,0.494026 0.12816,0.163298 0.38447,0.163298 0.308,0 0.48576,-0.19637 0.17984,-0.196371 0.17984,-0.535368 v -1.312582 h 0.38033 v 2.315104 h -0.38033 v -0.355533 q -0.1385,0.210839 -0.32246,0.314192 -0.18191,0.101286 -0.42375,0.101286 -0.39894,0 -0.60565,-0.248047 -0.2067,-0.248047 -0.2067,-0.725537 z m 0.95704,-1.457275 z" />
      <path
         id="path2279"
         style="font-style:normal;font-variant:normal;font-weight:normal;font-stretch:normal;font-size:4.23333311px;font-family:'DejaVu Sans';-inkscape-font-specification:'DejaVu Sans';stroke-width:0.26458332"
         d="m 136.62233,91.999536 q -0.0641,-0.03721 -0.14056,-0.05374 -0.0744,-0.0186 -0.16536,-0.0186 -0.32246,0 -0.49609,0.21084 -0.17157,0.208773 -0.17157,0.601514 v 1.219563 h -0.38241 v -2.315104 h 0.38241 v 0.359668 q 0.11989,-0.210839 0.31213,-0.312125 0.19223,-0.103353 0.46715,-0.103353 0.0393,0 0.0868,0.0062 0.0475,0.0041 0.10542,0.01447 z" />
      <path
         id="path2281"
         style="font-style:normal;font-variant:normal;font-weight:normal;font-stretch:normal;font-size:4.23333311px;font-family:'DejaVu Sans';-inkscape-font-specification:'DejaVu Sans';stroke-width:0.26458332"
         d="m 139.89655,91.995402 v -1.252637 h 0.38034 v 3.216341 h -0.38034 v -0.347265 q -0.11989,0.206706 -0.30385,0.307991 -0.18191,0.09922 -0.43822,0.09922 -0.41961,0 -0.6842,-0.334863 -0.26251,-0.334863 -0.26251,-0.880567 0,-0.545703 0.26251,-0.880566 0.26459,-0.334863 0.6842,-0.334863 0.25631,0 0.43822,0.101286 0.18396,0.09922 0.30385,0.305924 z m -1.29604,0.808219 q 0,0.419613 0.17156,0.659392 0.17364,0.237711 0.47543,0.237711 0.30179,0 0.47542,-0.237711 0.17363,-0.239779 0.17363,-0.659392 0,-0.419612 -0.17363,-0.657324 -0.17363,-0.239778 -0.47542,-0.239778 -0.30179,0 -0.47543,0.239778 -0.17156,0.237712 -0.17156,0.657324 z" />
      <path
         id="path2283"
         style="font-style:normal;font-variant:normal;font-weight:normal;font-stretch:normal;font-size:4.23333311px;font-family:'DejaVu Sans';-inkscape-font-specification:'DejaVu Sans';stroke-width:0.26458332"
         d="m 143.04055,92.70647 v 0.186035 h -1.74873 q 0.0248,0.392741 0.23564,0.599447 0.21291,0.204638 0.59118,0.204638 0.21911,0 0.42375,-0.05374 0.2067,-0.05374 0.40927,-0.161231 v 0.359668 q -0.20464,0.08682 -0.41961,0.132292 -0.21497,0.04548 -0.43615,0.04548 -0.55397,0 -0.8785,-0.322461 -0.32246,-0.322461 -0.32246,-0.872298 0,-0.568441 0.30593,-0.901237 0.30799,-0.334863 0.82889,-0.334863 0.46715,0 0.73793,0.30179 0.27286,0.299723 0.27286,0.816488 z m -0.38034,-0.111621 q -0.004,-0.312126 -0.1757,-0.498161 -0.1695,-0.186035 -0.45062,-0.186035 -0.31833,0 -0.51056,0.179834 -0.19017,0.179834 -0.21911,0.506429 z" />
      <path
         id="path2285"
         style="font-style:normal;font-variant:normal;font-weight:normal;font-stretch:normal;font-size:4.23333311px;font-family:'DejaVu Sans';-inkscape-font-specification:'DejaVu Sans';stroke-width:0.26458332"
         d="m 146.67443,92.803621 q 0,-0.419612 -0.17363,-0.657324 -0.17157,-0.239778 -0.47336,-0.239778 -0.30179,0 -0.47542,0.239778 -0.17156,0.237712 -0.17156,0.657324 0,0.419613 0.17156,0.659392 0.17363,0.237711 0.47542,0.237711 0.30179,0 0.47336,-0.237711 0.17363,-0.239779 0.17363,-0.659392 z m -1.29397,-0.808219 q 0.11988,-0.206706 0.30179,-0.305924 0.18396,-0.101286 0.43821,-0.101286 0.42168,0 0.6842,0.334863 0.26458,0.334863 0.26458,0.880566 0,0.545704 -0.26458,0.880567 -0.26252,0.334863 -0.6842,0.334863 -0.25425,0 -0.43821,-0.09922 -0.18191,-0.101285 -0.30179,-0.307991 v 0.347265 h -0.38241 v -3.216341 h 0.38241 z" />
      <path
         id="path2287"
         style="font-style:normal;font-variant:normal;font-weight:normal;font-stretch:normal;font-size:4.23333311px;font-family:'DejaVu Sans';-inkscape-font-specification:'DejaVu Sans';stroke-width:0.26458332"
         d="m 148.5968,91.910653 q -0.30593,0 -0.4837,0.239778 -0.17776,0.237712 -0.17776,0.65319 0,0.415479 0.1757,0.655258 0.17776,0.237711 0.48576,0.237711 0.30385,0 0.48162,-0.239778 0.17777,-0.239779 0.17777,-0.653191 0,-0.411344 -0.17777,-0.651123 -0.17777,-0.241845 -0.48162,-0.241845 z m 0,-0.322461 q 0.49609,0 0.77928,0.322461 0.28318,0.322461 0.28318,0.892968 0,0.568441 -0.28318,0.892969 -0.28319,0.322461 -0.77928,0.322461 -0.49817,0 -0.78135,-0.322461 -0.28112,-0.324528 -0.28112,-0.892969 0,-0.570507 0.28112,-0.892968 0.28318,-0.322461 0.78135,-0.322461 z" />
      <path
         id="path2289"
         style="font-style:normal;font-variant:normal;font-weight:normal;font-stretch:normal;font-size:4.23333311px;font-family:'DejaVu Sans';-inkscape-font-specification:'DejaVu Sans';stroke-width:0.26458332"
         d="m 151.62917,91.999536 q -0.0641,-0.03721 -0.14056,-0.05374 -0.0744,-0.0186 -0.16537,-0.0186 -0.32246,0 -0.49609,0.21084 -0.17157,0.208773 -0.17157,0.601514 v 1.219563 h -0.3824 v -2.315104 h 0.3824 v 0.359668 q 0.11989,-0.210839 0.31213,-0.312125 0.19224,-0.103353 0.46715,-0.103353 0.0393,0 0.0868,0.0062 0.0475,0.0041 0.10542,0.01447 z" />
      <path
         id="path2291"
         style="font-style:normal;font-variant:normal;font-weight:normal;font-stretch:normal;font-size:4.23333311px;font-family:'DejaVu Sans';-inkscape-font-specification:'DejaVu Sans';stroke-width:0.26458332"
         d="m 153.48125,91.995402 v -1.252637 h 0.38034 v 3.216341 h -0.38034 v -0.347265 q -0.11989,0.206706 -0.30385,0.307991 -0.18191,0.09922 -0.43822,0.09922 -0.41961,0 -0.6842,-0.334863 -0.26251,-0.334863 -0.26251,-0.880567 0,-0.545703 0.26251,-0.880566 0.26459,-0.334863 0.6842,-0.334863 0.25631,0 0.43822,0.101286 0.18396,0.09922 0.30385,0.305924 z m -1.29604,0.808219 q 0,0.419613 0.17156,0.659392 0.17364,0.237711 0.47543,0.237711 0.30179,0 0.47542,-0.237711 0.17363,-0.239779 0.17363,-0.659392 0,-0.419612 -0.17363,-0.657324 -0.17363,-0.239778 -0.47542,-0.239778 -0.30179,0 -0.47543,0.239778 -0.17156,0.237712 -0.17156,0.657324 z" />
      <path
         id="path2293"
         style="font-style:normal;font-variant:normal;font-weight:normal;font-stretch:normal;font-size:4.23333311px;font-family:'DejaVu Sans';-inkscape-font-specification:'DejaVu Sans';stroke-width:0.26458332"
         d="m 154.60573,93.045467 v -1.401465 h 0.38034 v 1.386996 q 0,0.328662 0.12816,0.494026 0.12815,0.163298 0.38447,0.163298 0.30799,0 0.48576,-0.19637 0.17983,-0.196371 0.17983,-0.535368 v -1.312582 h 0.38034 v 2.315104 h -0.38034 v -0.355533 q -0.13849,0.210839 -0.32246,0.314192 -0.1819,0.101286 -0.42375,0.101286 -0.39894,0 -0.60564,-0.248047 -0.20671,-0.248047 -0.20671,-0.725537 z m 0.95705,-1.457275 z" />
      <path
         id="path2295"
         style="font-style:normal;font-variant:normal;font-weight:normal;font-stretch:normal;font-size:4.23333311px;font-family:'DejaVu Sans';-inkscape-font-specification:'DejaVu Sans';stroke-width:0.26458332"
         d="m 158.6737,91.999536 q -0.0641,-0.03721 -0.14056,-0.05374 -0.0744,-0.0186 -0.16536,-0.0186 -0.32246,0 -0.4961,0.21084 -0.17156,0.208773 -0.17156,0.601514 v 1.219563 h -0.38241 v -2.315104 h 0.38241 v 0.359668 q 0.11989,-0.210839 0.31212,-0.312125 0.19224,-0.103353 0.46716,-0.103353 0.0393,0 0.0868,0.0062 0.0476,0.0041 0.10542,0.01447 z" />
      <path
         id="path2297"
         style="font-style:normal;font-variant:normal;font-weight:normal;font-stretch:normal;font-size:4.23333311px;font-family:'DejaVu Sans';-inkscape-font-specification:'DejaVu Sans';stroke-width:0.26458332"
         d="m 160.96607,92.70647 v 0.186035 h -1.74873 q 0.0248,0.392741 0.23564,0.599447 0.21291,0.204638 0.59118,0.204638 0.21911,0 0.42375,-0.05374 0.2067,-0.05374 0.40927,-0.161231 v 0.359668 q -0.20464,0.08682 -0.41961,0.132292 -0.21497,0.04548 -0.43615,0.04548 -0.55397,0 -0.8785,-0.322461 -0.32246,-0.322461 -0.32246,-0.872298 0,-0.568441 0.30593,-0.901237 0.30799,-0.334863 0.82889,-0.334863 0.46715,0 0.73793,0.30179 0.27286,0.299723 0.27286,0.816488 z m -0.38034,-0.111621 q -0.004,-0.312126 -0.1757,-0.498161 -0.1695,-0.186035 -0.45062,-0.186035 -0.31833,0 -0.51056,0.179834 -0.19017,0.179834 -0.21911,0.506429 z" />
    </g>
    <g
       id="text2130"
       style="font-style:normal;font-weight:normal;font-size:10.58333302px;line-height:1.25;font-family:sans-serif;letter-spacing:0px;word-spacing:0px;fill:#000000;fill-opacity:1;stroke:none;stroke-width:0.26458332"
       aria-label="Routeur interne">
      <path
         id="path2300"
         style="font-style:normal;font-variant:normal;font-weight:normal;font-stretch:normal;font-size:4.23333311px;font-family:'DejaVu Sans';-inkscape-font-specification:'DejaVu Sans';stroke-width:0.26458332"
         d="m 121.7788,103.10953 q 0.13436,0.0455 0.26045,0.19431 0.12815,0.14882 0.25631,0.40927 l 0.42375,0.84336 h -0.44855 l -0.39481,-0.79168 q -0.15296,-0.31006 -0.29766,-0.41134 -0.14263,-0.10129 -0.39067,-0.10129 h -0.45475 v 1.30431 h -0.41755 v -3.08611 h 0.94258 q 0.52916,0 0.78961,0.22117 0.26045,0.22118 0.26045,0.66766 0,0.29146 -0.13642,0.48369 -0.13436,0.19224 -0.39274,0.26665 z m -1.04593,-1.29604 v 1.09554 h 0.52503 q 0.30179,0 0.45475,-0.13849 0.15503,-0.14056 0.15503,-0.41135 0,-0.27078 -0.15503,-0.40721 -0.15296,-0.13849 -0.45475,-0.13849 z" />
      <path
         id="path2302"
         style="font-style:normal;font-variant:normal;font-weight:normal;font-stretch:normal;font-size:4.23333311px;font-family:'DejaVu Sans';-inkscape-font-specification:'DejaVu Sans';stroke-width:0.26458332"
         d="m 123.94921,102.50802 q -0.30593,0 -0.4837,0.23978 -0.17776,0.23771 -0.17776,0.65319 0,0.41548 0.1757,0.65525 0.17776,0.23772 0.48576,0.23772 0.30385,0 0.48162,-0.23978 0.17777,-0.23978 0.17777,-0.65319 0,-0.41135 -0.17777,-0.65113 -0.17777,-0.24184 -0.48162,-0.24184 z m 0,-0.32246 q 0.49609,0 0.77928,0.32246 0.28318,0.32246 0.28318,0.89297 0,0.56844 -0.28318,0.89297 -0.28319,0.32246 -0.77928,0.32246 -0.49816,0 -0.78135,-0.32246 -0.28112,-0.32453 -0.28112,-0.89297 0,-0.57051 0.28112,-0.89297 0.28319,-0.32246 0.78135,-0.32246 z" />
      <path
         id="path2304"
         style="font-style:normal;font-variant:normal;font-weight:normal;font-stretch:normal;font-size:4.23333311px;font-family:'DejaVu Sans';-inkscape-font-specification:'DejaVu Sans';stroke-width:0.26458332"
         d="m 125.60078,103.64283 v -1.40146 h 0.38034 v 1.38699 q 0,0.32867 0.12816,0.49403 0.12816,0.1633 0.38447,0.1633 0.308,0 0.48576,-0.19637 0.17984,-0.19637 0.17984,-0.53537 v -1.31258 h 0.38033 v 2.3151 h -0.38033 v -0.35553 q -0.1385,0.21084 -0.32246,0.31419 -0.18191,0.10129 -0.42375,0.10129 -0.39894,0 -0.60565,-0.24805 -0.20671,-0.24805 -0.20671,-0.72554 z m 0.95705,-1.45727 z" />
      <path
         id="path2306"
         style="font-style:normal;font-variant:normal;font-weight:normal;font-stretch:normal;font-size:4.23333311px;font-family:'DejaVu Sans';-inkscape-font-specification:'DejaVu Sans';stroke-width:0.26458332"
         d="m 128.70344,101.58404 v 0.65733 h 0.78341 v 0.29559 h -0.78341 v 1.25677 q 0,0.28319 0.0765,0.3638 0.0786,0.0806 0.31626,0.0806 h 0.39067 v 0.31832 h -0.39067 q -0.44028,0 -0.60772,-0.16329 -0.16743,-0.16537 -0.16743,-0.59945 v -1.25677 h -0.27905 v -0.29559 h 0.27905 v -0.65733 z" />
      <path
         id="path2308"
         style="font-style:normal;font-variant:normal;font-weight:normal;font-stretch:normal;font-size:4.23333311px;font-family:'DejaVu Sans';-inkscape-font-specification:'DejaVu Sans';stroke-width:0.26458332"
         d="m 131.96939,103.30384 v 0.18603 h -1.74873 q 0.0248,0.39274 0.23564,0.59945 0.21291,0.20464 0.59118,0.20464 0.21911,0 0.42375,-0.0537 0.2067,-0.0537 0.40927,-0.16123 v 0.35967 q -0.20463,0.0868 -0.41961,0.13229 -0.21497,0.0455 -0.43615,0.0455 -0.55397,0 -0.8785,-0.32246 -0.32246,-0.32246 -0.32246,-0.8723 0,-0.56844 0.30593,-0.90124 0.30799,-0.33486 0.82889,-0.33486 0.46715,0 0.73794,0.30179 0.27285,0.29972 0.27285,0.81649 z m -0.38034,-0.11162 q -0.004,-0.31213 -0.1757,-0.49817 -0.1695,-0.18603 -0.45062,-0.18603 -0.31833,0 -0.51056,0.17983 -0.19017,0.17984 -0.21911,0.50643 z" />
      <path
         id="path2310"
         style="font-style:normal;font-variant:normal;font-weight:normal;font-stretch:normal;font-size:4.23333311px;font-family:'DejaVu Sans';-inkscape-font-specification:'DejaVu Sans';stroke-width:0.26458332"
         d="m 132.55437,103.64283 v -1.40146 h 0.38033 v 1.38699 q 0,0.32867 0.12816,0.49403 0.12816,0.1633 0.38447,0.1633 0.308,0 0.48576,-0.19637 0.17984,-0.19637 0.17984,-0.53537 v -1.31258 h 0.38033 v 2.3151 h -0.38033 v -0.35553 q -0.1385,0.21084 -0.32246,0.31419 -0.18191,0.10129 -0.42375,0.10129 -0.39894,0 -0.60565,-0.24805 -0.2067,-0.24805 -0.2067,-0.72554 z m 0.95704,-1.45727 z" />
      <path
         id="path2312"
         style="font-style:normal;font-variant:normal;font-weight:normal;font-stretch:normal;font-size:4.23333311px;font-family:'DejaVu Sans';-inkscape-font-specification:'DejaVu Sans';stroke-width:0.26458332"
         d="m 136.62233,102.5969 q -0.0641,-0.0372 -0.14056,-0.0537 -0.0744,-0.0186 -0.16536,-0.0186 -0.32246,0 -0.49609,0.21084 -0.17157,0.20877 -0.17157,0.60151 v 1.21956 h -0.38241 v -2.3151 h 0.38241 v 0.35967 q 0.11989,-0.21084 0.31213,-0.31213 0.19223,-0.10335 0.46715,-0.10335 0.0393,0 0.0868,0.006 0.0475,0.004 0.10542,0.0145 z" />
      <path
         id="path2314"
         style="font-style:normal;font-variant:normal;font-weight:normal;font-stretch:normal;font-size:4.23333311px;font-family:'DejaVu Sans';-inkscape-font-specification:'DejaVu Sans';stroke-width:0.26458332"
         d="m 138.37313,102.24137 h 0.38034 v 2.3151 h -0.38034 z m 0,-0.90124 h 0.38034 v 0.48163 h -0.38034 z" />
      <path
         id="path2316"
         style="font-style:normal;font-variant:normal;font-weight:normal;font-stretch:normal;font-size:4.23333311px;font-family:'DejaVu Sans';-inkscape-font-specification:'DejaVu Sans';stroke-width:0.26458332"
         d="m 141.47165,103.15914 v 1.39733 h -0.38034 v -1.38493 q 0,-0.32866 -0.12816,-0.49196 -0.12815,-0.16329 -0.38447,-0.16329 -0.30799,0 -0.48576,0.19637 -0.17776,0.19637 -0.17776,0.53537 v 1.30844 h -0.38241 v -2.3151 h 0.38241 v 0.35967 q 0.13642,-0.20878 0.32039,-0.31213 0.18603,-0.10335 0.42788,-0.10335 0.39894,0 0.60358,0.24805 0.20464,0.24597 0.20464,0.72553 z" />
      <path
         id="path2318"
         style="font-style:normal;font-variant:normal;font-weight:normal;font-stretch:normal;font-size:4.23333311px;font-family:'DejaVu Sans';-inkscape-font-specification:'DejaVu Sans';stroke-width:0.26458332"
         d="m 142.6106,101.58404 v 0.65733 h 0.78341 v 0.29559 h -0.78341 v 1.25677 q 0,0.28319 0.0765,0.3638 0.0785,0.0806 0.31626,0.0806 h 0.39067 v 0.31832 h -0.39067 q -0.44028,0 -0.60772,-0.16329 -0.16743,-0.16537 -0.16743,-0.59945 v -1.25677 h -0.27905 v -0.29559 h 0.27905 v -0.65733 z" />
      <path
         id="path2320"
         style="font-style:normal;font-variant:normal;font-weight:normal;font-stretch:normal;font-size:4.23333311px;font-family:'DejaVu Sans';-inkscape-font-specification:'DejaVu Sans';stroke-width:0.26458332"
         d="m 145.87655,103.30384 v 0.18603 h -1.74873 q 0.0248,0.39274 0.23564,0.59945 0.21291,0.20464 0.59118,0.20464 0.21911,0 0.42375,-0.0537 0.2067,-0.0537 0.40928,-0.16123 v 0.35967 q -0.20464,0.0868 -0.41962,0.13229 -0.21497,0.0455 -0.43615,0.0455 -0.55397,0 -0.8785,-0.32246 -0.32246,-0.32246 -0.32246,-0.8723 0,-0.56844 0.30593,-0.90124 0.30799,-0.33486 0.82889,-0.33486 0.46715,0 0.73794,0.30179 0.27285,0.29972 0.27285,0.81649 z m -0.38034,-0.11162 q -0.004,-0.31213 -0.1757,-0.49817 -0.1695,-0.18603 -0.45062,-0.18603 -0.31832,0 -0.51056,0.17983 -0.19017,0.17984 -0.21911,0.50643 z" />
      <path
         id="path2322"
         style="font-style:normal;font-variant:normal;font-weight:normal;font-stretch:normal;font-size:4.23333311px;font-family:'DejaVu Sans';-inkscape-font-specification:'DejaVu Sans';stroke-width:0.26458332"
         d="m 147.84232,102.5969 q -0.0641,-0.0372 -0.14056,-0.0537 -0.0744,-0.0186 -0.16536,-0.0186 -0.32247,0 -0.4961,0.21084 -0.17156,0.20877 -0.17156,0.60151 v 1.21956 h -0.38241 v -2.3151 h 0.38241 v 0.35967 q 0.11989,-0.21084 0.31212,-0.31213 0.19224,-0.10335 0.46716,-0.10335 0.0393,0 0.0868,0.006 0.0476,0.004 0.10542,0.0145 z" />
      <path
         id="path2324"
         style="font-style:normal;font-variant:normal;font-weight:normal;font-stretch:normal;font-size:4.23333311px;font-family:'DejaVu Sans';-inkscape-font-specification:'DejaVu Sans';stroke-width:0.26458332"
         d="m 150.09541,103.15914 v 1.39733 h -0.38034 v -1.38493 q 0,-0.32866 -0.12815,-0.49196 -0.12816,-0.16329 -0.38448,-0.16329 -0.30799,0 -0.48576,0.19637 -0.17776,0.19637 -0.17776,0.53537 v 1.30844 h -0.38241 v -2.3151 h 0.38241 v 0.35967 q 0.13642,-0.20878 0.32039,-0.31213 0.18604,-0.10335 0.42788,-0.10335 0.39894,0 0.60358,0.24805 0.20464,0.24597 0.20464,0.72553 z" />
      <path
         id="path2326"
         style="font-style:normal;font-variant:normal;font-weight:normal;font-stretch:normal;font-size:4.23333311px;font-family:'DejaVu Sans';-inkscape-font-specification:'DejaVu Sans';stroke-width:0.26458332"
         d="m 152.8384,103.30384 v 0.18603 h -1.74873 q 0.0248,0.39274 0.23564,0.59945 0.21291,0.20464 0.59118,0.20464 0.21911,0 0.42375,-0.0537 0.2067,-0.0537 0.40927,-0.16123 v 0.35967 q -0.20463,0.0868 -0.41961,0.13229 -0.21497,0.0455 -0.43615,0.0455 -0.55397,0 -0.8785,-0.32246 -0.32246,-0.32246 -0.32246,-0.8723 0,-0.56844 0.30593,-0.90124 0.30799,-0.33486 0.82889,-0.33486 0.46715,0 0.73794,0.30179 0.27285,0.29972 0.27285,0.81649 z m -0.38034,-0.11162 q -0.004,-0.31213 -0.1757,-0.49817 -0.1695,-0.18603 -0.45062,-0.18603 -0.31833,0 -0.51056,0.17983 -0.19017,0.17984 -0.21911,0.50643 z" />
    </g>
    <g
       id="text2134"
       style="font-style:normal;font-weight:normal;font-size:10.58333302px;line-height:1.25;font-family:sans-serif;letter-spacing:0px;word-spacing:0px;fill:#c83737;fill-opacity:1;stroke:none;stroke-width:0.26458332"
       aria-label="OSPF">
      <path
         id="path2136"
         style="font-style:normal;font-variant:normal;font-weight:normal;font-stretch:normal;font-size:3.52777767px;font-family:'DejaVu Sans';-inkscape-font-specification:'DejaVu Sans';fill:#c83737;stroke-width:0.26458332"
         d="m 56.522085,71.852412 q -0.378961,0 -0.602892,0.282498 -0.222209,0.282498 -0.222209,0.769979 0,0.485758 0.222209,0.768256 0.223931,0.282498 0.602892,0.282498 0.37896,0 0.599446,-0.282498 0.222209,-0.282498 0.222209,-0.768256 0,-0.487481 -0.222209,-0.769979 -0.220486,-0.282498 -0.599446,-0.282498 z m 0,-0.282498 q 0.540879,0 0.864718,0.363458 0.323839,0.361735 0.323839,0.971517 0,0.608059 -0.323839,0.971517 -0.323839,0.361735 -0.864718,0.361735 -0.542603,0 -0.868165,-0.361735 -0.323838,-0.361736 -0.323838,-0.971517 0,-0.609782 0.323838,-0.971517 0.325562,-0.363458 0.868165,-0.363458 z" />
      <path
         id="path2138"
         style="font-style:normal;font-variant:normal;font-weight:normal;font-stretch:normal;font-size:3.52777767px;font-family:'DejaVu Sans';-inkscape-font-specification:'DejaVu Sans';fill:#c83737;stroke-width:0.26458332"
         d="m 59.796648,71.700828 v 0.339342 q -0.198093,-0.09474 -0.373793,-0.141249 -0.1757,-0.04651 -0.339342,-0.04651 -0.28422,0 -0.43925,0.110243 -0.153306,0.110243 -0.153306,0.313504 0,0.170532 0.10163,0.258382 0.103353,0.08613 0.389296,0.139526 l 0.210151,0.04306 q 0.389295,0.07407 0.573608,0.261827 0.186035,0.186035 0.186035,0.499539 0,0.373793 -0.251492,0.566718 -0.249769,0.192926 -0.733805,0.192926 -0.18259,0 -0.389296,-0.04134 -0.204983,-0.04134 -0.425469,-0.122301 v -0.358289 q 0.211873,0.118855 0.415134,0.179145 0.20326,0.06029 0.399631,0.06029 0.298001,0 0.45992,-0.117134 0.16192,-0.117133 0.16192,-0.334174 0,-0.18948 -0.117134,-0.296278 -0.11541,-0.106798 -0.380683,-0.160197 l -0.211873,-0.04134 q -0.389296,-0.07751 -0.563273,-0.242879 -0.173978,-0.165365 -0.173978,-0.459921 0,-0.341064 0.239435,-0.537434 0.241156,-0.196371 0.66318,-0.196371 0.180868,0 0.368626,0.03273 0.187757,0.03273 0.384128,0.09819 z" />
      <path
         id="path2140"
         style="font-style:normal;font-variant:normal;font-weight:normal;font-stretch:normal;font-size:3.52777767px;font-family:'DejaVu Sans';-inkscape-font-specification:'DejaVu Sans';fill:#c83737;stroke-width:0.26458332"
         d="m 60.842234,71.902366 v 0.966349 h 0.437527 q 0.24288,0 0.375516,-0.125746 0.132636,-0.125746 0.132636,-0.35829 0,-0.230821 -0.132636,-0.356567 -0.132636,-0.125746 -0.375516,-0.125746 z M 60.49428,71.616423 h 0.785481 q 0.43236,0 0.652846,0.19637 0.222209,0.194648 0.222209,0.571886 0,0.380683 -0.222209,0.575331 -0.220486,0.194648 -0.652846,0.194648 h -0.437527 v 1.033529 H 60.49428 Z" />
      <path
         id="path2142"
         style="font-style:normal;font-variant:normal;font-weight:normal;font-stretch:normal;font-size:3.52777767px;font-family:'DejaVu Sans';-inkscape-font-specification:'DejaVu Sans';fill:#c83737;stroke-width:0.26458332"
         d="m 62.623348,71.616423 h 1.477946 v 0.292833 h -1.129991 v 0.757921 h 1.019748 v 0.292833 h -1.019748 v 1.228177 h -0.347955 z" />
    </g>
    <use
       height="100%"
       width="100%"
       transform="translate(20.402957,26.523844)"
       id="use2145"
       xlink:href="#text2134"
       y="0"
       x="0" />
    <use
       height="100%"
       width="100%"
       transform="translate(-18.842731,30.124366)"
       id="use2147"
       xlink:href="#use2145"
       y="0"
       x="0" />
    <use
       height="100%"
       width="100%"
       transform="translate(-57.248297,-1.8002609)"
       id="use2149"
       xlink:href="#use2147"
       y="0"
       x="0" />
    <use
       height="100%"
       width="100%"
       transform="translate(3.7205392,-57.008262)"
       id="use2151"
       xlink:href="#use2149"
       y="0"
       x="0" />
    <g
       id="text2155"
       style="font-style:normal;font-weight:normal;font-size:10.58333302px;line-height:1.25;font-family:sans-serif;letter-spacing:0px;word-spacing:0px;fill:#000000;fill-opacity:1;stroke:none;stroke-width:0.26458332"
       aria-label="iBGP">
      <path
         id="path2157"
         style="font-style:normal;font-variant:normal;font-weight:normal;font-stretch:normal;font-size:3.52777767px;font-family:'DejaVu Sans';-inkscape-font-specification:'DejaVu Sans';fill:#ff6600;stroke-width:0.26458332"
         d="m 24.815999,61.330756 h 0.316949 v 1.929254 h -0.316949 z m 0,-0.75103 h 0.316949 v 0.401353 h -0.316949 z" />
      <path
         id="path2159"
         style="font-style:normal;font-variant:normal;font-weight:normal;font-stretch:normal;font-size:3.52777767px;font-family:'DejaVu Sans';-inkscape-font-specification:'DejaVu Sans';fill:#ff6600;stroke-width:0.26458332"
         d="m 26.156141,62.031833 v 0.942234 h 0.558105 q 0.280776,0 0.415134,-0.115411 0.136082,-0.117133 0.136082,-0.356567 0,-0.241157 -0.136082,-0.354845 -0.134358,-0.115411 -0.415134,-0.115411 z m 0,-1.057644 v 0.775146 h 0.515042 q 0.254937,0 0.37896,-0.09474 0.125746,-0.09646 0.125746,-0.292833 0,-0.194648 -0.125746,-0.29111 -0.124023,-0.09646 -0.37896,-0.09646 z m -0.347955,-0.285943 h 0.888835 q 0.397909,0 0.613227,0.165365 0.215318,0.165364 0.215318,0.470255 0,0.235989 -0.110243,0.375516 -0.110243,0.139526 -0.323839,0.173977 0.25666,0.05512 0.397909,0.230821 0.142971,0.173978 0.142971,0.435805 0,0.344509 -0.234266,0.532267 -0.234267,0.187758 -0.666626,0.187758 h -0.923286 z" />
      <path
         id="path2161"
         style="font-style:normal;font-variant:normal;font-weight:normal;font-stretch:normal;font-size:3.52777767px;font-family:'DejaVu Sans';-inkscape-font-specification:'DejaVu Sans';fill:#ff6600;stroke-width:0.26458332"
         d="m 29.918185,62.893107 v -0.690742 h -0.56844 v -0.285942 h 0.91295 v 1.104153 q -0.201538,0.142971 -0.444417,0.217041 -0.24288,0.07235 -0.518487,0.07235 -0.602892,0 -0.943956,-0.3514 -0.339342,-0.353122 -0.339342,-0.981852 0,-0.630453 0.339342,-0.981852 0.341064,-0.353123 0.943956,-0.353123 0.251492,0 0.477145,0.06201 0.227377,0.06201 0.418579,0.18259 v 0.370348 q -0.192925,-0.163642 -0.409966,-0.246325 -0.217041,-0.08268 -0.456475,-0.08268 -0.471978,0 -0.70969,0.26355 -0.235989,0.26355 -0.235989,0.785482 0,0.520209 0.235989,0.783759 0.237712,0.26355 0.70969,0.26355 0.184313,0 0.329007,-0.03101 0.144694,-0.03273 0.260104,-0.09991 z" />
      <path
         id="path2163"
         style="font-style:normal;font-variant:normal;font-weight:normal;font-stretch:normal;font-size:3.52777767px;font-family:'DejaVu Sans';-inkscape-font-specification:'DejaVu Sans';fill:#ff6600;stroke-width:0.26458332"
         d="m 31.247992,60.974189 v 0.966349 h 0.437527 q 0.242879,0 0.375516,-0.125746 0.132636,-0.125746 0.132636,-0.35829 0,-0.230821 -0.132636,-0.356567 -0.132637,-0.125746 -0.375516,-0.125746 z m -0.347955,-0.285943 h 0.785482 q 0.43236,0 0.652846,0.19637 0.222208,0.194648 0.222208,0.571886 0,0.380683 -0.222208,0.575331 -0.220486,0.194648 -0.652846,0.194648 h -0.437527 v 1.033529 h -0.347955 z" />
    </g>
    <use
       height="100%"
       width="100%"
       transform="rotate(80.081821,43.344486,112.59693)"
       id="use2166"
       xlink:href="#text2155"
       y="0"
       x="0" />
    <use
       height="100%"
       width="100%"
       transform="rotate(-13.443815,353.33668,73.364562)"
       id="use2168"
       xlink:href="#text2155"
       y="0"
       x="0" />
    <use
       height="100%"
       width="100%"
       transform="rotate(-99.575149,18.718402,96.098952)"
       id="use2170"
       xlink:href="#text2155"
       y="0"
       x="0" />
    <g
       id="text2174"
       style="font-style:normal;font-weight:normal;font-size:10.58333302px;line-height:1.25;font-family:sans-serif;letter-spacing:0px;word-spacing:0px;fill:#c837ab;fill-opacity:0.91372549;stroke:none;stroke-width:0.26458332"
       transform="rotate(-46.159821)"
       aria-label="eBGP">
      <path
         id="path2176"
         style="font-style:normal;font-variant:normal;font-weight:normal;font-stretch:normal;font-size:3.52777767px;font-family:'DejaVu Sans';-inkscape-font-specification:'DejaVu Sans';fill:#c837ab;fill-opacity:0.91372549;stroke-width:0.26458332"
         d="m -122.01058,97.916082 v 0.155029 h -1.45728 q 0.0207,0.327284 0.19637,0.499539 0.17743,0.170532 0.49265,0.170532 0.18259,0 0.35313,-0.04479 0.17225,-0.04479 0.34106,-0.134359 v 0.299723 q -0.17053,0.07235 -0.34968,0.110244 -0.17914,0.0379 -0.36345,0.0379 -0.46165,0 -0.73209,-0.268718 -0.26871,-0.268717 -0.26871,-0.726915 0,-0.473701 0.25493,-0.751031 0.25666,-0.279053 0.69074,-0.279053 0.3893,0 0.61495,0.251492 0.22738,0.24977 0.22738,0.680407 z m -0.31695,-0.09302 q -0.003,-0.260104 -0.14642,-0.415134 -0.14124,-0.155029 -0.37551,-0.155029 -0.26527,0 -0.42547,0.149862 -0.15847,0.149861 -0.18259,0.422024 z" />
      <path
         id="path2178"
         style="font-style:normal;font-variant:normal;font-weight:normal;font-stretch:normal;font-size:3.52777767px;font-family:'DejaVu Sans';-inkscape-font-specification:'DejaVu Sans';fill:#c837ab;fill-opacity:0.91372549;stroke-width:0.26458332"
         d="m -121.12864,97.731769 v 0.942234 h 0.55811 q 0.28077,0 0.41513,-0.115411 0.13608,-0.117133 0.13608,-0.356567 0,-0.241157 -0.13608,-0.354845 -0.13436,-0.115411 -0.41513,-0.115411 z m 0,-1.057644 v 0.775146 h 0.51505 q 0.25493,0 0.37896,-0.09474 0.12574,-0.09646 0.12574,-0.292833 0,-0.194648 -0.12574,-0.29111 -0.12403,-0.09646 -0.37896,-0.09646 z m -0.34795,-0.285943 h 0.88883 q 0.39791,0 0.61323,0.165365 0.21532,0.165364 0.21532,0.470255 0,0.235989 -0.11024,0.375515 -0.11025,0.139527 -0.32384,0.173978 0.25666,0.05512 0.39791,0.230821 0.14297,0.173977 0.14297,0.435805 0,0.344509 -0.23427,0.532267 -0.23427,0.187758 -0.66662,0.187758 h -0.92329 z" />
      <path
         id="path2180"
         style="font-style:normal;font-variant:normal;font-weight:normal;font-stretch:normal;font-size:3.52777767px;font-family:'DejaVu Sans';-inkscape-font-specification:'DejaVu Sans';fill:#c837ab;fill-opacity:0.91372549;stroke-width:0.26458332"
         d="m -117.36659,98.593043 v -0.690742 h -0.56844 v -0.285943 h 0.91295 v 1.104154 q -0.20154,0.142971 -0.44442,0.217041 -0.24288,0.07235 -0.51849,0.07235 -0.60289,0 -0.94395,-0.3514 -0.33934,-0.353122 -0.33934,-0.981852 0,-0.630453 0.33934,-0.981853 0.34106,-0.353122 0.94395,-0.353122 0.2515,0 0.47715,0.06201 0.22738,0.06201 0.41858,0.18259 v 0.370348 q -0.19293,-0.163642 -0.40997,-0.246325 -0.21704,-0.08268 -0.45647,-0.08268 -0.47198,0 -0.70969,0.26355 -0.23599,0.26355 -0.23599,0.785482 0,0.520209 0.23599,0.783759 0.23771,0.26355 0.70969,0.26355 0.18431,0 0.329,-0.03101 0.1447,-0.03273 0.26011,-0.09991 z" />
      <path
         id="path2182"
         style="font-style:normal;font-variant:normal;font-weight:normal;font-stretch:normal;font-size:3.52777767px;font-family:'DejaVu Sans';-inkscape-font-specification:'DejaVu Sans';fill:#c837ab;fill-opacity:0.91372549;stroke-width:0.26458332"
         d="m -116.03678,96.674125 v 0.966349 h 0.43752 q 0.24288,0 0.37552,-0.125746 0.13263,-0.125746 0.13263,-0.35829 0,-0.230821 -0.13263,-0.356567 -0.13264,-0.125746 -0.37552,-0.125746 z m -0.34796,-0.285943 h 0.78548 q 0.43236,0 0.65285,0.19637 0.22221,0.194648 0.22221,0.571886 0,0.380683 -0.22221,0.575331 -0.22049,0.194648 -0.65285,0.194648 h -0.43752 v 1.033529 h -0.34796 z" />
    </g>
    <use
       height="100%"
       width="100%"
       transform="rotate(87.84343,31.824681,99.017462)"
       id="use2185"
       xlink:href="#text2174"
       y="0"
       x="0" />
    <use
       height="100%"
       width="100%"
       transform="rotate(-82.383171,31.625767,-9.7816975)"
       id="use2187"
       xlink:href="#use2185"
       y="0"
       x="0" />
    <use
       height="100%"
       width="100%"
       transform="rotate(3.9264618,-1058.9047,1947.8492)"
       id="use2191"
       xlink:href="#use2185"
       y="0"
       x="0" />
    <g
       id="text2195"
       style="font-style:normal;font-weight:normal;font-size:10.58333302px;line-height:0.22;font-family:sans-serif;letter-spacing:0px;word-spacing:0px;fill:#000000;fill-opacity:0.29019608;stroke:none;stroke-width:0.26458332"
       aria-label="Structure
(entreprise, AS)">
      <path
         id="path2199"
         style="font-style:normal;font-variant:normal;font-weight:bold;font-stretch:normal;font-size:5.29166651px;line-height:0.22;font-family:'DejaVu Sans';-inkscape-font-specification:'DejaVu Sans Bold';fill:#000000;fill-opacity:0.29019608;stroke-width:0.26458332"
         d="m 33.813581,37.711575 v 0.816487 q -0.31781,-0.14211 -0.620117,-0.214457 -0.302307,-0.07235 -0.571024,-0.07235 -0.356568,0 -0.5271,0.09819 -0.170532,0.09819 -0.170532,0.304891 0,0.15503 0.113688,0.242879 0.116272,0.08527 0.418579,0.147278 l 0.423747,0.08527 q 0.643371,0.129191 0.914673,0.392741 0.271301,0.26355 0.271301,0.749309 0,0.638203 -0.379822,0.950846 -0.377238,0.310058 -1.154968,0.310058 -0.366903,0 -0.736389,-0.06976 -0.369487,-0.06976 -0.738973,-0.206705 V 40.40651 q 0.369486,0.19637 0.713135,0.297139 0.346232,0.09819 0.666625,0.09819 0.325562,0 0.498678,-0.10852 0.173116,-0.108521 0.173116,-0.310059 0,-0.180867 -0.118856,-0.279053 -0.116272,-0.09819 -0.467671,-0.175699 l -0.38499,-0.08527 q -0.578776,-0.124023 -0.847493,-0.395324 -0.266134,-0.271302 -0.266134,-0.731222 0,-0.576192 0.37207,-0.886251 0.372071,-0.310058 1.069703,-0.310058 0.31781,0 0.653706,0.04909 0.335897,0.04651 0.695048,0.142111 z" />
      <path
         id="path2201"
         style="font-style:normal;font-variant:normal;font-weight:bold;font-stretch:normal;font-size:5.29166651px;line-height:0.22;font-family:'DejaVu Sans';-inkscape-font-specification:'DejaVu Sans Bold';fill:#000000;fill-opacity:0.29019608;stroke-width:0.26458332"
         d="M 35.911645,37.732245 V 38.5539 h 0.95343 v 0.661459 h -0.95343 v 1.227315 q 0,0.201538 0.0801,0.273885 0.0801,0.06976 0.31781,0.06976 h 0.475423 v 0.661459 h -0.793233 q -0.54777,0 -0.77773,-0.227377 -0.227377,-0.22996 -0.227377,-0.77773 v -1.227315 h -0.45992 V 38.5539 h 0.45992 v -0.821655 z" />
      <path
         id="path2203"
         style="font-style:normal;font-variant:normal;font-weight:bold;font-stretch:normal;font-size:5.29166651px;line-height:0.22;font-family:'DejaVu Sans';-inkscape-font-specification:'DejaVu Sans Bold';fill:#000000;fill-opacity:0.29019608;stroke-width:0.26458332"
         d="m 39.583255,39.341966 q -0.12144,-0.05684 -0.242879,-0.08268 -0.118856,-0.02842 -0.240296,-0.02842 -0.356567,0 -0.550354,0.22996 -0.191203,0.227376 -0.191203,0.653707 v 1.333252 H 37.433515 V 38.5539 h 0.925008 v 0.475424 q 0.178284,-0.284221 0.408244,-0.413412 0.232544,-0.131775 0.555522,-0.131775 0.04651,0 0.100769,0.0052 0.05426,0.0026 0.157613,0.0155 z" />
      <path
         id="path2205"
         style="font-style:normal;font-variant:normal;font-weight:bold;font-stretch:normal;font-size:5.29166651px;line-height:0.22;font-family:'DejaVu Sans';-inkscape-font-specification:'DejaVu Sans Bold';fill:#000000;fill-opacity:0.29019608;stroke-width:0.26458332"
         d="M 40.017337,40.321234 V 38.5539 h 0.930176 v 0.289388 q 0,0.235128 -0.0026,0.591696 -0.0026,0.353983 -0.0026,0.472839 0,0.348816 0.01809,0.503845 0.01809,0.152446 0.06201,0.222209 0.05684,0.09043 0.147278,0.139526 0.09302,0.04909 0.211873,0.04909 0.289388,0 0.454753,-0.222209 0.165364,-0.222209 0.165364,-0.617533 V 38.5539 h 0.925008 v 2.893881 h -0.925008 v -0.418579 q -0.209289,0.253214 -0.444417,0.374654 -0.232544,0.118855 -0.514181,0.118855 -0.501261,0 -0.764811,-0.307474 -0.260966,-0.307475 -0.260966,-0.894003 z" />
      <path
         id="path2207"
         style="font-style:normal;font-variant:normal;font-weight:bold;font-stretch:normal;font-size:5.29166651px;line-height:0.22;font-family:'DejaVu Sans';-inkscape-font-specification:'DejaVu Sans Bold';fill:#000000;fill-opacity:0.29019608;stroke-width:0.26458332"
         d="m 46.15908,38.644334 v 0.754476 q -0.188619,-0.129191 -0.379821,-0.191203 -0.188619,-0.06201 -0.392741,-0.06201 -0.387573,0 -0.604614,0.227376 -0.214458,0.224792 -0.214458,0.630452 0,0.40566 0.214458,0.633037 0.217041,0.224792 0.604614,0.224792 0.217041,0 0.410827,-0.06459 0.196371,-0.0646 0.361735,-0.191203 v 0.757059 q -0.217041,0.0801 -0.441833,0.118856 -0.222209,0.04134 -0.447001,0.04134 -0.782898,0 -1.224732,-0.400492 -0.441833,-0.403076 -0.441833,-1.118795 0,-0.715718 0.441833,-1.116211 0.441834,-0.403076 1.224732,-0.403076 0.227376,0 0.447001,0.04134 0.222209,0.03876 0.441833,0.118856 z" />
      <path
         id="path2209"
         style="font-style:normal;font-variant:normal;font-weight:bold;font-stretch:normal;font-size:5.29166651px;line-height:0.22;font-family:'DejaVu Sans';-inkscape-font-specification:'DejaVu Sans Bold';fill:#000000;fill-opacity:0.29019608;stroke-width:0.26458332"
         d="M 47.972924,37.732245 V 38.5539 h 0.95343 v 0.661459 h -0.95343 v 1.227315 q 0,0.201538 0.0801,0.273885 0.0801,0.06976 0.31781,0.06976 h 0.475424 v 0.661459 h -0.793234 q -0.54777,0 -0.77773,-0.227377 -0.227376,-0.22996 -0.227376,-0.77773 v -1.227315 h -0.45992 V 38.5539 h 0.45992 v -0.821655 z" />
      <path
         id="path2211"
         style="font-style:normal;font-variant:normal;font-weight:bold;font-stretch:normal;font-size:5.29166651px;line-height:0.22;font-family:'DejaVu Sans';-inkscape-font-specification:'DejaVu Sans Bold';fill:#000000;fill-opacity:0.29019608;stroke-width:0.26458332"
         d="M 49.463788,40.321234 V 38.5539 h 0.930176 v 0.289388 q 0,0.235128 -0.0026,0.591696 -0.0026,0.353983 -0.0026,0.472839 0,0.348816 0.01809,0.503845 0.01809,0.152446 0.06201,0.222209 0.05684,0.09043 0.147278,0.139526 0.09302,0.04909 0.211873,0.04909 0.289388,0 0.454753,-0.222209 0.165364,-0.222209 0.165364,-0.617533 V 38.5539 h 0.925008 v 2.893881 h -0.925008 v -0.418579 q -0.209289,0.253214 -0.444417,0.374654 -0.232544,0.118855 -0.514181,0.118855 -0.501261,0 -0.764811,-0.307474 -0.260966,-0.307475 -0.260966,-0.894003 z" />
      <path
         id="path2213"
         style="font-style:normal;font-variant:normal;font-weight:bold;font-stretch:normal;font-size:5.29166651px;line-height:0.22;font-family:'DejaVu Sans';-inkscape-font-specification:'DejaVu Sans Bold';fill:#000000;fill-opacity:0.29019608;stroke-width:0.26458332"
         d="m 55.416913,39.341966 q -0.12144,-0.05684 -0.24288,-0.08268 -0.118855,-0.02842 -0.240295,-0.02842 -0.356567,0 -0.550354,0.22996 -0.191203,0.227376 -0.191203,0.653707 v 1.333252 H 53.267173 V 38.5539 h 0.925008 v 0.475424 q 0.178284,-0.284221 0.408244,-0.413412 0.232544,-0.131775 0.555522,-0.131775 0.04651,0 0.100769,0.0052 0.05426,0.0026 0.157613,0.0155 z" />
      <path
         id="path2215"
         style="font-style:normal;font-variant:normal;font-weight:bold;font-stretch:normal;font-size:5.29166651px;line-height:0.22;font-family:'DejaVu Sans';-inkscape-font-specification:'DejaVu Sans Bold';fill:#000000;fill-opacity:0.29019608;stroke-width:0.26458332"
         d="m 58.770714,39.993089 v 0.26355 h -2.162659 q 0.03359,0.325561 0.235128,0.488342 0.201538,0.162781 0.563273,0.162781 0.291972,0 0.596863,-0.08527 0.307474,-0.08785 0.630452,-0.26355 v 0.713135 q -0.328145,0.124023 -0.656291,0.186035 -0.328145,0.0646 -0.65629,0.0646 -0.785482,0 -1.222148,-0.397908 -0.434082,-0.400492 -0.434082,-1.121379 0,-0.707967 0.426331,-1.113627 0.428914,-0.40566 1.178222,-0.40566 0.682129,0 1.090373,0.410828 0.410828,0.410828 0.410828,1.098124 z m -0.950847,-0.307475 q 0,-0.263549 -0.155029,-0.423746 -0.152445,-0.162781 -0.400492,-0.162781 -0.268718,0 -0.436666,0.152445 -0.167948,0.149862 -0.20929,0.434082 z" />
      <path
         id="path2217"
         style="font-style:normal;font-variant:normal;font-weight:bold;font-stretch:normal;font-size:3.88055539px;line-height:0.22;font-family:'DejaVu Sans';-inkscape-font-specification:'DejaVu Sans Bold';fill:#000000;fill-opacity:0.29019608;stroke-width:0.26458332"
         d="m 32.10602,45.08022 h -0.562756 q -0.289905,-0.468016 -0.428226,-0.888662 -0.13832,-0.422541 -0.13832,-0.837503 0,-0.414961 0.13832,-0.839397 0.140216,-0.426331 0.428226,-0.890557 h 0.562756 q -0.242535,0.449068 -0.363802,0.879188 -0.121268,0.428225 -0.121268,0.846977 0,0.418751 0.119373,0.848871 0.121267,0.43012 0.365697,0.881083 z" />
      <path
         id="path2219"
         style="font-style:normal;font-variant:normal;font-weight:bold;font-stretch:normal;font-size:3.88055539px;line-height:0.22;font-family:'DejaVu Sans';-inkscape-font-specification:'DejaVu Sans Bold';fill:#000000;fill-opacity:0.29019608;stroke-width:0.26458332"
         d="m 34.861063,43.50185 v 0.19327 h -1.58595 q 0.02463,0.238745 0.172427,0.358117 0.147795,0.119373 0.413067,0.119373 0.214113,0 0.437699,-0.06253 0.225482,-0.06442 0.462332,-0.193269 v 0.522965 q -0.24064,0.09095 -0.48128,0.136426 -0.24064,0.04737 -0.48128,0.04737 -0.576019,0 -0.896241,-0.2918 -0.318327,-0.293694 -0.318327,-0.822344 0,-0.519176 0.312642,-0.81666 0.314538,-0.297484 0.86403,-0.297484 0.500228,0 0.799607,0.301274 0.301274,0.301273 0.301274,0.805291 z m -0.697288,-0.225482 q 0,-0.19327 -0.113688,-0.310747 -0.111793,-0.119373 -0.293694,-0.119373 -0.19706,0 -0.320222,0.111794 -0.123162,0.109898 -0.153479,0.318326 z" />
      <path
         id="path2221"
         style="font-style:normal;font-variant:normal;font-weight:bold;font-stretch:normal;font-size:3.88055539px;line-height:0.22;font-family:'DejaVu Sans';-inkscape-font-specification:'DejaVu Sans Bold';fill:#000000;fill-opacity:0.29019608;stroke-width:0.26458332"
         d="m 37.506207,43.276368 v 1.292256 h -0.682129 v -0.210323 -0.778764 q 0,-0.274747 -0.01326,-0.378961 -0.01137,-0.104214 -0.04169,-0.153479 -0.03979,-0.06632 -0.108004,-0.102319 -0.06821,-0.0379 -0.155374,-0.0379 -0.212218,0 -0.333485,0.164848 -0.121267,0.162953 -0.121267,0.452857 v 1.044037 h -0.67834 v -2.122179 h 0.67834 v 0.310747 q 0.153479,-0.18569 0.325906,-0.272851 0.172427,-0.08906 0.380855,-0.08906 0.367592,0 0.557072,0.225482 0.191375,0.225481 0.191375,0.655601 z" />
      <path
         id="path2223"
         style="font-style:normal;font-variant:normal;font-weight:bold;font-stretch:normal;font-size:3.88055539px;line-height:0.22;font-family:'DejaVu Sans';-inkscape-font-specification:'DejaVu Sans Bold';fill:#000000;fill-opacity:0.29019608;stroke-width:0.26458332"
         d="m 38.879938,41.843898 v 0.602547 h 0.699183 v 0.485069 h -0.699183 v 0.900031 q 0,0.147795 0.05874,0.20085 0.05874,0.05116 0.233061,0.05116 h 0.348644 v 0.48507 h -0.581705 q -0.401698,0 -0.570335,-0.166743 Q 38.2016,44.233245 38.2016,43.831546 V 42.931515 H 37.864325 V 42.446446 H 38.2016 v -0.602547 z" />
      <path
         id="path2225"
         style="font-style:normal;font-variant:normal;font-weight:bold;font-stretch:normal;font-size:3.88055539px;line-height:0.22;font-family:'DejaVu Sans';-inkscape-font-specification:'DejaVu Sans Bold';fill:#000000;fill-opacity:0.29019608;stroke-width:0.26458332"
         d="m 41.572453,43.02436 q -0.08906,-0.04169 -0.178111,-0.06063 -0.08716,-0.02084 -0.176217,-0.02084 -0.261483,0 -0.403593,0.168638 -0.140215,0.166742 -0.140215,0.479385 v 0.977718 h -0.678339 v -2.122179 h 0.678339 v 0.348644 q 0.130741,-0.208429 0.299379,-0.303169 0.170532,-0.09663 0.407382,-0.09663 0.03411,0 0.0739,0.0038 0.03979,0.0019 0.115583,0.01137 z" />
      <path
         id="path2227"
         style="font-style:normal;font-variant:normal;font-weight:bold;font-stretch:normal;font-size:3.88055539px;line-height:0.22;font-family:'DejaVu Sans';-inkscape-font-specification:'DejaVu Sans Bold';fill:#000000;fill-opacity:0.29019608;stroke-width:0.26458332"
         d="m 44.031906,43.50185 v 0.19327 h -1.585949 q 0.02463,0.238745 0.172427,0.358117 0.147794,0.119373 0.413067,0.119373 0.214112,0 0.437699,-0.06253 0.225482,-0.06442 0.462332,-0.193269 v 0.522965 q -0.24064,0.09095 -0.48128,0.136426 -0.24064,0.04737 -0.48128,0.04737 -0.57602,0 -0.896241,-0.2918 -0.318327,-0.293694 -0.318327,-0.822344 0,-0.519176 0.312642,-0.81666 0.314537,-0.297484 0.86403,-0.297484 0.500228,0 0.799607,0.301274 0.301273,0.301273 0.301273,0.805291 z m -0.697287,-0.225482 q 0,-0.19327 -0.113688,-0.310747 -0.111793,-0.119373 -0.293694,-0.119373 -0.19706,0 -0.320222,0.111794 -0.123162,0.109898 -0.153479,0.318326 z" />
      <path
         id="path2229"
         style="font-style:normal;font-variant:normal;font-weight:bold;font-stretch:normal;font-size:3.88055539px;line-height:0.22;font-family:'DejaVu Sans';-inkscape-font-specification:'DejaVu Sans Bold';fill:#000000;fill-opacity:0.29019608;stroke-width:0.26458332"
         d="m 45.221842,44.261666 v 1.114143 h -0.678339 v -2.929364 h 0.678339 v 0.310747 q 0.140216,-0.18569 0.310748,-0.272851 0.170532,-0.08906 0.392224,-0.08906 0.392224,0 0.644233,0.312643 0.252009,0.310747 0.252009,0.801501 0,0.490754 -0.252009,0.803396 -0.252009,0.310748 -0.644233,0.310748 -0.221692,0 -0.392224,-0.08716 -0.170532,-0.08906 -0.310748,-0.274746 z m 0.450963,-1.373732 q -0.217902,0 -0.33538,0.161058 -0.115583,0.159163 -0.115583,0.460437 0,0.301274 0.115583,0.462332 0.117478,0.159163 0.33538,0.159163 0.217903,0 0.331591,-0.159163 0.115583,-0.159164 0.115583,-0.462332 0,-0.303168 -0.115583,-0.462332 -0.113688,-0.159163 -0.331591,-0.159163 z" />
      <path
         id="path2231"
         style="font-style:normal;font-variant:normal;font-weight:bold;font-stretch:normal;font-size:3.88055539px;line-height:0.22;font-family:'DejaVu Sans';-inkscape-font-specification:'DejaVu Sans Bold';fill:#000000;fill-opacity:0.29019608;stroke-width:0.26458332"
         d="m 48.901548,43.02436 q -0.08906,-0.04169 -0.178111,-0.06063 -0.08716,-0.02084 -0.176217,-0.02084 -0.261483,0 -0.403593,0.168638 -0.140215,0.166742 -0.140215,0.479385 v 0.977718 h -0.678339 v -2.122179 h 0.678339 v 0.348644 q 0.130741,-0.208429 0.299379,-0.303169 0.170532,-0.09663 0.407382,-0.09663 0.03411,0 0.0739,0.0038 0.03979,0.0019 0.115583,0.01137 z" />
      <path
         id="path2233"
         style="font-style:normal;font-variant:normal;font-weight:bold;font-stretch:normal;font-size:3.88055539px;line-height:0.22;font-family:'DejaVu Sans';-inkscape-font-specification:'DejaVu Sans Bold';fill:#000000;fill-opacity:0.29019608;stroke-width:0.26458332"
         d="m 49.242614,42.446445 h 0.678339 v 2.122179 h -0.678339 z m 0,-0.826134 h 0.678339 v 0.553282 h -0.678339 z" />
      <path
         id="path2235"
         style="font-style:normal;font-variant:normal;font-weight:bold;font-stretch:normal;font-size:3.88055539px;line-height:0.22;font-family:'DejaVu Sans';-inkscape-font-specification:'DejaVu Sans Bold';fill:#000000;fill-opacity:0.29019608;stroke-width:0.26458332"
         d="m 52.234507,42.512763 v 0.515386 q -0.217903,-0.09095 -0.420646,-0.136426 -0.202744,-0.04547 -0.382751,-0.04547 -0.193269,0 -0.28801,0.04926 -0.09284,0.04737 -0.09284,0.147795 0,0.08148 0.07011,0.125057 0.072,0.04358 0.255798,0.06442 l 0.119373,0.01705 q 0.52107,0.06632 0.701077,0.217902 0.180006,0.151585 0.180006,0.475596 0,0.339169 -0.250114,0.509702 -0.250114,0.170532 -0.746552,0.170532 -0.210323,0 -0.435805,-0.03411 -0.223586,-0.03221 -0.460437,-0.09853 V 43.97555 q 0.202744,0.09853 0.414962,0.147795 0.214113,0.04926 0.43391,0.04926 0.198954,0 0.299378,-0.05495 0.100425,-0.05495 0.100425,-0.162953 0,-0.09095 -0.07011,-0.134531 -0.06821,-0.04548 -0.274746,-0.07011 l -0.119373,-0.01516 q -0.452857,-0.05684 -0.634758,-0.210324 -0.181901,-0.153479 -0.181901,-0.466121 0,-0.337275 0.231165,-0.500228 0.231166,-0.162953 0.708657,-0.162953 0.187585,0 0.394118,0.02842 0.206534,0.02842 0.449069,0.08906 z" />
      <path
         id="path2237"
         style="font-style:normal;font-variant:normal;font-weight:bold;font-stretch:normal;font-size:3.88055539px;line-height:0.22;font-family:'DejaVu Sans';-inkscape-font-specification:'DejaVu Sans Bold';fill:#000000;fill-opacity:0.29019608;stroke-width:0.26458332"
         d="m 55.006603,43.50185 v 0.19327 h -1.58595 q 0.02463,0.238745 0.172427,0.358117 0.147794,0.119373 0.413067,0.119373 0.214112,0 0.437699,-0.06253 0.225482,-0.06442 0.462332,-0.193269 v 0.522965 q -0.24064,0.09095 -0.48128,0.136426 -0.24064,0.04737 -0.48128,0.04737 -0.57602,0 -0.896241,-0.2918 -0.318327,-0.293694 -0.318327,-0.822344 0,-0.519176 0.312642,-0.81666 0.314538,-0.297484 0.86403,-0.297484 0.500228,0 0.799607,0.301274 0.301274,0.301273 0.301274,0.805291 z m -0.697288,-0.225482 q 0,-0.19327 -0.113688,-0.310747 -0.111793,-0.119373 -0.293694,-0.119373 -0.19706,0 -0.320222,0.111794 -0.123162,0.109898 -0.153479,0.318326 z" />
      <path
         id="path2239"
         style="font-style:normal;font-variant:normal;font-weight:bold;font-stretch:normal;font-size:3.88055539px;line-height:0.22;font-family:'DejaVu Sans';-inkscape-font-specification:'DejaVu Sans Bold';fill:#000000;fill-opacity:0.29019608;stroke-width:0.26458332"
         d="m 55.588307,43.835335 h 0.682129 v 0.577915 l -0.468016,0.706761 h -0.403593 l 0.18948,-0.706761 z" />
      <path
         id="path2241"
         style="font-style:normal;font-variant:normal;font-weight:bold;font-stretch:normal;font-size:3.88055539px;line-height:0.22;font-family:'DejaVu Sans';-inkscape-font-specification:'DejaVu Sans Bold';fill:#000000;fill-opacity:0.29019608;stroke-width:0.26458332"
         d="m 60.092252,44.053237 h -1.140671 l -0.180006,0.515387 h -0.733288 l 1.047825,-2.82894 h 0.869715 l 1.047825,2.82894 h -0.733288 z m -0.95877,-0.52486 h 0.774975 l -0.38654,-1.125513 z" />
      <path
         id="path2243"
         style="font-style:normal;font-variant:normal;font-weight:bold;font-stretch:normal;font-size:3.88055539px;line-height:0.22;font-family:'DejaVu Sans';-inkscape-font-specification:'DejaVu Sans Bold';fill:#000000;fill-opacity:0.29019608;stroke-width:0.26458332"
         d="m 63.345627,41.828739 v 0.598758 q -0.233061,-0.104214 -0.454753,-0.157269 -0.221692,-0.05305 -0.418751,-0.05305 -0.261483,0 -0.38654,0.072 -0.125057,0.072 -0.125057,0.223587 0,0.113688 0.08337,0.178111 0.08527,0.06253 0.306958,0.108004 l 0.310747,0.06253 q 0.471806,0.09474 0.67076,0.28801 0.198954,0.193269 0.198954,0.549492 0,0.468016 -0.278535,0.697288 -0.276642,0.227376 -0.846977,0.227376 -0.269062,0 -0.540019,-0.05116 -0.270957,-0.05116 -0.541913,-0.151584 v -0.615811 q 0.270956,0.144005 0.522965,0.217903 0.253904,0.072 0.488859,0.072 0.238745,0 0.365697,-0.07958 0.126952,-0.07958 0.126952,-0.227376 0,-0.132636 -0.08716,-0.204639 -0.08527,-0.072 -0.342959,-0.128846 L 62.1159,43.391951 q -0.424436,-0.09095 -0.621495,-0.289904 -0.195165,-0.198955 -0.195165,-0.53623 0,-0.422541 0.272852,-0.649917 0.272851,-0.227376 0.784448,-0.227376 0.233061,0 0.479385,0.036 0.246324,0.03411 0.509702,0.104214 z" />
      <path
         id="path2245"
         style="font-style:normal;font-variant:normal;font-weight:bold;font-stretch:normal;font-size:3.88055539px;line-height:0.22;font-family:'DejaVu Sans';-inkscape-font-specification:'DejaVu Sans Bold';fill:#000000;fill-opacity:0.29019608;stroke-width:0.26458332"
         d="m 64.128182,45.08022 q 0.242535,-0.450963 0.363802,-0.881083 0.121267,-0.43012 0.121267,-0.848871 0,-0.418752 -0.121267,-0.846977 -0.121267,-0.43012 -0.363802,-0.879188 h 0.562756 q 0.28801,0.464226 0.426331,0.890557 0.140215,0.424436 0.140215,0.839397 0,0.414962 -0.13832,0.837503 -0.138321,0.420646 -0.428226,0.888662 z" />
    </g>
  </g>
</svg>
