<?xml version="1.0" encoding="UTF-8" standalone="no"?>
<svg
   xmlns:dc="http://purl.org/dc/elements/1.1/"
   xmlns:cc="http://creativecommons.org/ns#"
   xmlns:rdf="http://www.w3.org/1999/02/22-rdf-syntax-ns#"
   xmlns:svg="http://www.w3.org/2000/svg"
   xmlns="http://www.w3.org/2000/svg"
   xmlns:xlink="http://www.w3.org/1999/xlink"
   id="svg6072"
   version="1.1"
   viewBox="0 0 190.52218 116.18768"
   height="116.18768mm"
   width="190.52219mm">
  <defs
     id="defs6066" />
  <metadata
     id="metadata6069">
    <rdf:RDF>
      <cc:Work
         rdf:about="">
        <dc:format>image/svg+xml</dc:format>
        <dc:type
           rdf:resource="http://purl.org/dc/dcmitype/StillImage" />
        <dc:title></dc:title>
      </cc:Work>
    </rdf:RDF>
  </metadata>
  <g
     transform="translate(154.72474,241.27587)"
     id="layer1">
    <g
       transform="matrix(0.36062259,0,0,0.36062259,-137.67885,-219.44152)"
       id="g4524">
      <circle
         style="opacity:0.86699997;fill:none;fill-opacity:1;stroke:#d40000;stroke-width:2;stroke-miterlimit:4;stroke-dasharray:none"
         id="path4518"
         cx="46.972622"
         cy="58.929665"
         r="9.5548859" />
      <circle
         r="7.0158257"
         cy="58.929665"
         cx="46.972622"
         id="circle4520"
         style="opacity:1;fill:#38389e;fill-opacity:1;stroke-width:0.19427447" />
    </g>
    <use
       height="100%"
       width="100%"
       transform="translate(59.53125,-23.623511)"
       id="use6655"
       xlink:href="#g4524"
       y="0"
       x="0" />
    <use
       height="100%"
       width="100%"
       transform="translate(44.60119,46.113095)"
       id="use6663"
       xlink:href="#g4524"
       y="0"
       x="0" />
    <use
       height="100%"
       width="100%"
       transform="translate(120.5744,-26.458332)"
       id="use6675"
       xlink:href="#g4524"
       y="0"
       x="0" />
    <use
       height="100%"
       width="100%"
       transform="translate(116.79464,46.869048)"
       id="use6677"
       xlink:href="#g4524"
       y="0"
       x="0" />
    <path
       style="fill:none;stroke:#38389e;stroke-width:0.56500006;stroke-linecap:butt;stroke-linejoin:miter;stroke-miterlimit:4;stroke-dasharray:none;stroke-opacity:1"
       d="m -76.138271,-152.07706 c -13.701637,-0.75595 -45.640619,-29.76562 -44.601189,-46.11309"
       id="path4542" />
    <path
       id="path6860"
       d="m -61.208211,-221.81366 c -25.853774,-7.81626 -44.884669,-4.44122 -59.531249,23.62351"
       style="fill:none;stroke:#38389e;stroke-width:0.56500006;stroke-linecap:butt;stroke-linejoin:miter;stroke-miterlimit:4;stroke-dasharray:none;stroke-opacity:1" />
    <path
       style="fill:none;stroke:#38389e;stroke-width:0.56500006;stroke-linecap:butt;stroke-linejoin:miter;stroke-miterlimit:4;stroke-dasharray:none;stroke-opacity:1"
       d="M -3.9448214,-151.3211 C -29.734324,-170.65886 -73.342485,-194.21826 -120.73946,-198.19015"
       id="path6862" />
    <path
       id="path6864"
       d="m -3.9448214,-151.3211 c 13.9851194,-15.30804 20.9776764,-57.64137 3.77975998,-73.32738"
       style="fill:none;stroke:#38389e;stroke-width:0.56500006;stroke-linecap:butt;stroke-linejoin:miter;stroke-miterlimit:4;stroke-dasharray:none;stroke-opacity:1" />
    <path
       style="fill:none;stroke:#38389e;stroke-width:0.56500006;stroke-linecap:butt;stroke-linejoin:miter;stroke-miterlimit:4;stroke-dasharray:none;stroke-opacity:1"
       d="m -61.208211,-221.81366 c 30.238095,-13.51265 52.7276734,-10.01637 61.04314958,-2.83482"
       id="path6866" />
    <path
       id="path6868"
       d="m -61.208211,-221.81366 c 19.654762,3.87426 58.3028241,49.42039 57.2633896,70.49256"
       style="fill:none;stroke:#38389e;stroke-width:0.56500006;stroke-linecap:butt;stroke-linejoin:miter;stroke-miterlimit:4;stroke-dasharray:none;stroke-opacity:1" />
    <path
       style="fill:none;stroke:#38389e;stroke-width:0.56500006;stroke-linecap:butt;stroke-linejoin:miter;stroke-miterlimit:4;stroke-dasharray:none;stroke-opacity:1"
       d="m -76.138271,-152.07706 c 9.354911,6.99256 63.877973,11.62278 72.1934496,0.75596"
       id="path6870" />
    <path
       style="fill:none;stroke:#38389e;stroke-width:0.56500006;stroke-linecap:butt;stroke-linejoin:miter;stroke-miterlimit:4;stroke-dasharray:none;stroke-opacity:1"
       d="m -76.138271,-152.07706 c 6.142113,-29.86012 54.05059,-72.66591 75.97320958,-72.57142"
       id="path6883" />
    <g
       id="text6887"
       style="font-style:normal;font-weight:normal;font-size:10.58333302px;line-height:0.30000001;font-family:sans-serif;letter-spacing:0px;word-spacing:0px;fill:#000000;fill-opacity:1;stroke:none;stroke-width:0.26458332"
       aria-label="Orange
36.0.0.0/8
194.2.0.0/16">
      <path
         id="path6960"
         style="font-style:normal;font-variant:normal;font-weight:bold;font-stretch:normal;font-size:4.23333311px;line-height:0.30000001;font-family:'DejaVu Sans';-inkscape-font-specification:'DejaVu Sans Bold';stroke-width:0.26458332"
         d="m -77.463867,-145.80216 q -0.363802,0 -0.564307,0.26872 -0.200504,0.26872 -0.200504,0.75654 0,0.48576 0.200504,0.75448 0.200505,0.26872 0.564307,0.26872 0.365869,0 0.566373,-0.26872 0.200505,-0.26872 0.200505,-0.75448 0,-0.48782 -0.200505,-0.75654 -0.200504,-0.26872 -0.566373,-0.26872 z m 0,-0.57671 q 0.74414,0 1.16582,0.42582 0.42168,0.42581 0.42168,1.17615 0,0.74828 -0.42168,1.17409 -0.42168,0.42582 -1.16582,0.42582 -0.742074,0 -1.165821,-0.42582 -0.421679,-0.42581 -0.421679,-1.17409 0,-0.75034 0.421679,-1.17615 0.423747,-0.42582 1.165821,-0.42582 z" />
      <path
         id="path6962"
         style="font-style:normal;font-variant:normal;font-weight:bold;font-stretch:normal;font-size:4.23333311px;line-height:0.30000001;font-family:'DejaVu Sans';-inkscape-font-specification:'DejaVu Sans Bold';stroke-width:0.26458332"
         d="m -73.590202,-144.92159 q -0.09715,-0.0455 -0.194304,-0.0661 -0.09508,-0.0227 -0.192236,-0.0227 -0.285254,0 -0.440283,0.18396 -0.152962,0.18191 -0.152962,0.52297 v 1.0666 h -0.740007 v -2.3151 h 0.740007 v 0.38034 q 0.142627,-0.22738 0.326595,-0.33073 0.186035,-0.10542 0.444417,-0.10542 0.03721,0 0.08061,0.004 0.04341,0.002 0.126091,0.0124 z" />
      <path
         id="path6964"
         style="font-style:normal;font-variant:normal;font-weight:bold;font-stretch:normal;font-size:4.23333311px;line-height:0.30000001;font-family:'DejaVu Sans';-inkscape-font-specification:'DejaVu Sans Bold';stroke-width:0.26458332"
         d="m -72.180469,-144.27874 q -0.23151,0 -0.349333,0.0786 -0.115755,0.0785 -0.115755,0.23151 0,0.14056 0.09302,0.22118 0.09508,0.0786 0.262516,0.0786 0.208773,0 0.3514,-0.14883 0.142627,-0.1509 0.142627,-0.37621 v -0.0847 z m 1.13068,-0.27905 v 1.32085 h -0.746207 v -0.34313 q -0.148829,0.21084 -0.334864,0.30799 -0.186035,0.0951 -0.452685,0.0951 -0.359668,0 -0.584977,-0.20878 -0.223243,-0.21084 -0.223243,-0.5457 0,-0.40721 0.279053,-0.59738 0.28112,-0.19017 0.880566,-0.19017 h 0.43615 v -0.0579 q 0,-0.1757 -0.138493,-0.25631 -0.138493,-0.0827 -0.432015,-0.0827 -0.237712,0 -0.44235,0.0475 -0.204639,0.0475 -0.380339,0.14263 v -0.56431 q 0.237712,-0.0579 0.47749,-0.0868 0.239779,-0.031 0.479557,-0.031 0.626319,0 0.903304,0.24804 0.279053,0.24598 0.279053,0.80202 z" />
      <path
         id="path6966"
         style="font-style:normal;font-variant:normal;font-weight:bold;font-stretch:normal;font-size:4.23333311px;line-height:0.30000001;font-family:'DejaVu Sans';-inkscape-font-specification:'DejaVu Sans Bold';stroke-width:0.26458332"
         d="m -68.029818,-144.64667 v 1.40973 h -0.744141 v -0.22944 -0.84956 q 0,-0.29973 -0.01447,-0.41341 -0.0124,-0.11369 -0.04548,-0.16744 -0.04341,-0.0723 -0.117822,-0.11162 -0.07442,-0.0413 -0.169499,-0.0413 -0.231511,0 -0.363802,0.17984 -0.132292,0.17776 -0.132292,0.49402 v 1.13895 h -0.740006 v -2.3151 h 0.740006 v 0.33899 q 0.167432,-0.20257 0.355534,-0.29765 0.188102,-0.0971 0.415478,-0.0971 0.40101,0 0.607715,0.24598 0.208773,0.24598 0.208773,0.7152 z" />
      <path
         id="path6968"
         style="font-style:normal;font-variant:normal;font-weight:bold;font-stretch:normal;font-size:4.23333311px;line-height:0.30000001;font-family:'DejaVu Sans';-inkscape-font-specification:'DejaVu Sans Bold';stroke-width:0.26458332"
         d="m -65.764323,-143.62968 q -0.152963,0.20257 -0.336931,0.29766 -0.183968,0.0951 -0.425814,0.0951 -0.423746,0 -0.700732,-0.33279 -0.276986,-0.33487 -0.276986,-0.85163 0,-0.51883 0.276986,-0.84956 0.276986,-0.3328 0.700732,-0.3328 0.241846,0 0.425814,0.0951 0.183968,0.0951 0.336931,0.29972 v -0.34313 h 0.74414 v 2.08152 q 0,0.55811 -0.353467,0.85163 -0.351399,0.29559 -1.021126,0.29559 -0.217041,0 -0.419613,-0.0331 -0.202571,-0.0331 -0.40721,-0.10129 v -0.57671 q 0.194304,0.11162 0.380339,0.16537 0.186035,0.0558 0.374137,0.0558 0.363802,0 0.533301,-0.15917 0.169499,-0.15916 0.169499,-0.49816 z m -0.487826,-1.44074 q -0.229443,0 -0.357601,0.1695 -0.128157,0.1695 -0.128157,0.47956 0,0.31832 0.124023,0.48369 0.124023,0.1633 0.361735,0.1633 0.23151,0 0.359668,-0.1695 0.128158,-0.1695 0.128158,-0.47749 0,-0.31006 -0.128158,-0.47956 -0.128158,-0.1695 -0.359668,-0.1695 z" />
      <path
         id="path6970"
         style="font-style:normal;font-variant:normal;font-weight:bold;font-stretch:normal;font-size:4.23333311px;line-height:0.30000001;font-family:'DejaVu Sans';-inkscape-font-specification:'DejaVu Sans Bold';stroke-width:0.26458332"
         d="m -61.994011,-144.40069 v 0.21084 h -1.730127 q 0.02687,0.26045 0.188102,0.39067 0.161231,0.13023 0.450619,0.13023 0.233577,0 0.47749,-0.0682 0.24598,-0.0703 0.504362,-0.21084 v 0.57051 q -0.262516,0.0992 -0.525033,0.14883 -0.262516,0.0517 -0.525032,0.0517 -0.628386,0 -0.977718,-0.31833 -0.347266,-0.32039 -0.347266,-0.8971 0,-0.56638 0.341065,-0.89091 0.343131,-0.32452 0.942578,-0.32452 0.545703,0 0.872298,0.32866 0.328662,0.32866 0.328662,0.8785 z m -0.760677,-0.24598 q 0,-0.21084 -0.124024,-0.339 -0.121956,-0.13022 -0.320393,-0.13022 -0.214974,0 -0.349333,0.12195 -0.134359,0.11989 -0.167432,0.34727 z" />
      <path
         id="path6972"
         style="font-style:normal;font-variant:normal;font-weight:normal;font-stretch:semi-condensed;font-size:3.52777767px;line-height:0.30000001;font-family:'DejaVu Sans';-inkscape-font-specification:'DejaVu Sans Semi-Condensed';fill:#ff6600;stroke-width:0.26458332"
         d="m -77.973741,-140.75158 q 0.223931,0.0534 0.349677,0.22221 0.127468,0.16881 0.127468,0.41686 0,0.38068 -0.235989,0.58911 -0.234266,0.20843 -0.668348,0.20843 -0.146417,0 -0.301446,-0.0327 -0.153307,-0.031 -0.318671,-0.0947 v -0.3359 q 0.130913,0.0844 0.285943,0.12747 0.155029,0.0431 0.323839,0.0431 0.294555,0 0.447862,-0.12919 0.155029,-0.12919 0.155029,-0.37551 0,-0.22738 -0.142971,-0.35485 -0.142972,-0.12919 -0.399631,-0.12919 h -0.268718 v -0.28594 h 0.280776 q 0.230821,0 0.353122,-0.10163 0.124023,-0.10335 0.124023,-0.29628 0,-0.19809 -0.127468,-0.30317 -0.125746,-0.1068 -0.361735,-0.1068 -0.129191,0 -0.275608,0.031 -0.146416,0.031 -0.323839,0.0965 v -0.31006 q 0.177423,-0.0551 0.332452,-0.0827 0.156752,-0.0276 0.294555,-0.0276 0.356568,0 0.564996,0.18087 0.208428,0.17914 0.208428,0.48576 0,0.21359 -0.110243,0.36173 -0.110243,0.14642 -0.313503,0.20326 z" />
      <path
         id="path6974"
         style="font-style:normal;font-variant:normal;font-weight:normal;font-stretch:semi-condensed;font-size:3.52777767px;line-height:0.30000001;font-family:'DejaVu Sans';-inkscape-font-specification:'DejaVu Sans Semi-Condensed';fill:#ff6600;stroke-width:0.26458332"
         d="m -76.196072,-140.78947 q -0.210151,0 -0.334174,0.16019 -0.122301,0.1602 -0.122301,0.43925 0,0.27733 0.122301,0.43925 0.124023,0.1602 0.334174,0.1602 0.211873,0 0.334174,-0.1602 0.124024,-0.16192 0.124024,-0.43925 0,-0.27905 -0.124024,-0.43925 -0.122301,-0.16019 -0.334174,-0.16019 z m 0.62184,-1.09038 v 0.31695 q -0.117134,-0.062 -0.237712,-0.0947 -0.120578,-0.0327 -0.237711,-0.0327 -0.310059,0 -0.473701,0.23255 -0.163642,0.23254 -0.186035,0.7028 0.0913,-0.14986 0.229099,-0.2291 0.137803,-0.081 0.303168,-0.081 0.349677,0 0.551215,0.23599 0.203261,0.23426 0.203261,0.63906 0,0.39619 -0.211873,0.63562 -0.210151,0.23944 -0.561551,0.23944 -0.401354,0 -0.613227,-0.34107 -0.211873,-0.34278 -0.211873,-0.99218 0,-0.60979 0.260104,-0.97152 0.260105,-0.36346 0.699355,-0.36346 0.117133,0 0.237711,0.0258 0.120579,0.0258 0.24977,0.0775 z" />
      <path
         id="path6976"
         style="font-style:normal;font-variant:normal;font-weight:normal;font-stretch:semi-condensed;font-size:3.52777767px;line-height:0.30000001;font-family:'DejaVu Sans';-inkscape-font-specification:'DejaVu Sans Semi-Condensed';fill:#ff6600;stroke-width:0.26458332"
         d="m -74.885213,-139.80245 h 0.327284 v 0.43752 h -0.327284 z" />
      <path
         id="path6978"
         style="font-style:normal;font-variant:normal;font-weight:normal;font-stretch:semi-condensed;font-size:3.52777767px;line-height:0.30000001;font-family:'DejaVu Sans';-inkscape-font-specification:'DejaVu Sans Semi-Condensed';fill:#ff6600;stroke-width:0.26458332"
         d="m -73.209174,-141.70759 q -0.241157,0 -0.363458,0.26527 -0.1223,0.26355 -0.1223,0.7941 0,0.52882 0.1223,0.79409 0.122301,0.26355 0.363458,0.26355 0.242879,0 0.363458,-0.26355 0.1223,-0.26527 0.1223,-0.79409 0,-0.53055 -0.1223,-0.7941 -0.120579,-0.26527 -0.363458,-0.26527 z m 0,-0.27561 q 0.389296,0 0.594279,0.34279 0.204983,0.34106 0.204983,0.99219 0,0.6494 -0.204983,0.99218 -0.204983,0.34107 -0.594279,0.34107 -0.389296,0 -0.594279,-0.34107 -0.204983,-0.34278 -0.204983,-0.99218 0,-0.65113 0.204983,-0.99219 0.204983,-0.34279 0.594279,-0.34279 z" />
      <path
         id="path6980"
         style="font-style:normal;font-variant:normal;font-weight:normal;font-stretch:semi-condensed;font-size:3.52777767px;line-height:0.30000001;font-family:'DejaVu Sans';-inkscape-font-specification:'DejaVu Sans Semi-Condensed';fill:#ff6600;stroke-width:0.26458332"
         d="m -71.860419,-139.80245 h 0.327284 v 0.43752 h -0.327284 z" />
      <path
         id="path6982"
         style="font-style:normal;font-variant:normal;font-weight:normal;font-stretch:semi-condensed;font-size:3.52777767px;line-height:0.30000001;font-family:'DejaVu Sans';-inkscape-font-specification:'DejaVu Sans Semi-Condensed';fill:#ff6600;stroke-width:0.26458332"
         d="m -70.18438,-141.70759 q -0.241157,0 -0.363458,0.26527 -0.122301,0.26355 -0.122301,0.7941 0,0.52882 0.122301,0.79409 0.122301,0.26355 0.363458,0.26355 0.242879,0 0.363457,-0.26355 0.122301,-0.26527 0.122301,-0.79409 0,-0.53055 -0.122301,-0.7941 -0.120578,-0.26527 -0.363457,-0.26527 z m 0,-0.27561 q 0.389295,0 0.594279,0.34279 0.204983,0.34106 0.204983,0.99219 0,0.6494 -0.204983,0.99218 -0.204984,0.34107 -0.594279,0.34107 -0.389296,0 -0.594279,-0.34107 -0.204983,-0.34278 -0.204983,-0.99218 0,-0.65113 0.204983,-0.99219 0.204983,-0.34279 0.594279,-0.34279 z" />
      <path
         id="path6984"
         style="font-style:normal;font-variant:normal;font-weight:normal;font-stretch:semi-condensed;font-size:3.52777767px;line-height:0.30000001;font-family:'DejaVu Sans';-inkscape-font-specification:'DejaVu Sans Semi-Condensed';fill:#ff6600;stroke-width:0.26458332"
         d="m -68.835625,-139.80245 h 0.327284 v 0.43752 h -0.327284 z" />
      <path
         id="path6986"
         style="font-style:normal;font-variant:normal;font-weight:normal;font-stretch:semi-condensed;font-size:3.52777767px;line-height:0.30000001;font-family:'DejaVu Sans';-inkscape-font-specification:'DejaVu Sans Semi-Condensed';fill:#ff6600;stroke-width:0.26458332"
         d="m -67.159587,-141.70759 q -0.241156,0 -0.363457,0.26527 -0.122301,0.26355 -0.122301,0.7941 0,0.52882 0.122301,0.79409 0.122301,0.26355 0.363457,0.26355 0.242879,0 0.363458,-0.26355 0.122301,-0.26527 0.122301,-0.79409 0,-0.53055 -0.122301,-0.7941 -0.120579,-0.26527 -0.363458,-0.26527 z m 0,-0.27561 q 0.389296,0 0.594279,0.34279 0.204983,0.34106 0.204983,0.99219 0,0.6494 -0.204983,0.99218 -0.204983,0.34107 -0.594279,0.34107 -0.389296,0 -0.594279,-0.34107 -0.204983,-0.34278 -0.204983,-0.99218 0,-0.65113 0.204983,-0.99219 0.204983,-0.34279 0.594279,-0.34279 z" />
      <path
         id="path6988"
         style="font-style:normal;font-variant:normal;font-weight:normal;font-stretch:semi-condensed;font-size:3.52777767px;line-height:0.30000001;font-family:'DejaVu Sans';-inkscape-font-specification:'DejaVu Sans Semi-Condensed';fill:#ff6600;stroke-width:0.26458332"
         d="m -65.344021,-141.93669 h 0.26355 l -0.806152,2.89905 h -0.26355 z" />
      <path
         id="path6990"
         style="font-style:normal;font-variant:normal;font-weight:normal;font-stretch:semi-condensed;font-size:3.52777767px;line-height:0.30000001;font-family:'DejaVu Sans';-inkscape-font-specification:'DejaVu Sans Semi-Condensed';fill:#ff6600;stroke-width:0.26458332"
         d="m -64.07278,-140.58621 q -0.223932,0 -0.3514,0.13263 -0.127469,0.13264 -0.127469,0.36518 0,0.23255 0.127469,0.36518 0.127468,0.13264 0.3514,0.13264 0.223931,0 0.351399,-0.13264 0.129191,-0.13436 0.129191,-0.36518 0,-0.23254 -0.129191,-0.36518 -0.127468,-0.13263 -0.351399,-0.13263 z m -0.313504,-0.14814 q -0.201538,-0.0551 -0.313504,-0.20843 -0.111965,-0.15331 -0.111965,-0.37379 0,-0.30834 0.19637,-0.48748 0.198093,-0.17915 0.542603,-0.17915 0.346232,0 0.542602,0.17915 0.196371,0.17914 0.196371,0.48748 0,0.22048 -0.111966,0.37379 -0.111966,0.15331 -0.311781,0.20843 0.225654,0.0586 0.3514,0.2291 0.127468,0.17053 0.127468,0.41685 0,0.3738 -0.206706,0.57361 -0.204983,0.19982 -0.587388,0.19982 -0.382406,0 -0.589112,-0.19982 -0.204983,-0.19981 -0.204983,-0.57361 0,-0.24632 0.127469,-0.41685 0.127468,-0.17054 0.353122,-0.2291 z m -0.113688,-0.54949 q 0,0.19981 0.111965,0.31178 0.111966,0.11196 0.315227,0.11196 0.201538,0 0.315226,-0.11196 0.113688,-0.11197 0.113688,-0.31178 0,-0.19982 -0.113688,-0.31179 -0.113688,-0.11196 -0.315226,-0.11196 -0.203261,0 -0.315227,0.11196 -0.111965,0.11197 -0.111965,0.31179 z" />
      <path
         id="path6992"
         style="font-style:normal;font-variant:normal;font-weight:normal;font-stretch:semi-condensed;font-size:3.52777767px;line-height:0.30000001;font-family:'DejaVu Sans';-inkscape-font-specification:'DejaVu Sans Semi-Condensed';fill:#ff6600;stroke-width:0.26458332"
         d="m -78.867744,-135.7083 h 0.511597 v -1.96198 l -0.558105,0.12402 v -0.31695 l 0.55466,-0.12402 h 0.313504 v 2.27893 h 0.511596 v 0.29283 h -1.333252 z" />
      <path
         id="path6994"
         style="font-style:normal;font-variant:normal;font-weight:normal;font-stretch:semi-condensed;font-size:3.52777767px;line-height:0.30000001;font-family:'DejaVu Sans';-inkscape-font-specification:'DejaVu Sans Semi-Condensed';fill:#ff6600;stroke-width:0.26458332"
         d="m -76.895426,-135.46887 v -0.31695 q 0.118855,0.062 0.239434,0.0947 0.120578,0.0327 0.237711,0.0327 0.310059,0 0.473701,-0.23082 0.163642,-0.23254 0.186035,-0.70452 -0.08957,0.14814 -0.227376,0.22737 -0.137804,0.0792 -0.304891,0.0792 -0.347955,0 -0.551215,-0.23254 -0.201538,-0.23427 -0.201538,-0.63907 0,-0.39618 0.21015,-0.63562 0.211874,-0.23943 0.561551,-0.23943 0.401353,0 0.613227,0.34279 0.211873,0.34106 0.211873,0.99218 0,0.60806 -0.260104,0.97152 -0.258383,0.36173 -0.697632,0.36173 -0.118856,0 -0.239434,-0.0258 -0.120579,-0.0258 -0.251492,-0.0775 z m 0.623562,-1.09037 q 0.211873,0 0.334174,-0.1602 0.124024,-0.16019 0.124024,-0.43925 0,-0.27733 -0.124024,-0.43752 -0.122301,-0.16192 -0.334174,-0.16192 -0.210151,0 -0.334174,0.16192 -0.122301,0.16019 -0.122301,0.43752 0,0.27906 0.122301,0.43925 0.124023,0.1602 0.334174,0.1602 z" />
      <path
         id="path6996"
         style="font-style:normal;font-variant:normal;font-weight:normal;font-stretch:semi-condensed;font-size:3.52777767px;line-height:0.30000001;font-family:'DejaVu Sans';-inkscape-font-specification:'DejaVu Sans Semi-Condensed';fill:#ff6600;stroke-width:0.26458332"
         d="m -74.023939,-137.68406 -0.79065,1.37287 h 0.79065 z m -0.08268,-0.30317 h 0.394464 v 1.67604 h 0.329006 v 0.28938 h -0.329006 v 0.60634 h -0.311781 v -0.60634 h -1.045587 v -0.33589 z" />
      <path
         id="path6998"
         style="font-style:normal;font-variant:normal;font-weight:normal;font-stretch:semi-condensed;font-size:3.52777767px;line-height:0.30000001;font-family:'DejaVu Sans';-inkscape-font-specification:'DejaVu Sans Semi-Condensed';fill:#ff6600;stroke-width:0.26458332"
         d="m -72.866387,-135.853 h 0.327284 v 0.43753 h -0.327284 z" />
      <path
         id="path7000"
         style="font-style:normal;font-variant:normal;font-weight:normal;font-stretch:semi-condensed;font-size:3.52777767px;line-height:0.30000001;font-family:'DejaVu Sans';-inkscape-font-specification:'DejaVu Sans Semi-Condensed';fill:#ff6600;stroke-width:0.26458332"
         d="m -71.58998,-135.7083 h 1.092096 v 0.29283 h -1.469333 v -0.29283 q 0.177422,-0.20499 0.485758,-0.5495 0.308336,-0.34623 0.387573,-0.44614 0.149862,-0.18775 0.208428,-0.31694 0.06029,-0.13092 0.06029,-0.25666 0,-0.20499 -0.129191,-0.33418 -0.129191,-0.12919 -0.33762,-0.12919 -0.146416,0 -0.310058,0.0569 -0.163642,0.0568 -0.349678,0.17225 v -0.3514 q 0.189481,-0.0844 0.353123,-0.12747 0.165364,-0.0431 0.301446,-0.0431 0.360012,0 0.573608,0.19981 0.213596,0.19982 0.213596,0.53399 0,0.15848 -0.0534,0.30145 -0.0534,0.14125 -0.194648,0.33417 -0.03962,0.05 -0.248047,0.28939 -0.206706,0.23771 -0.583944,0.66663 z" />
      <path
         id="path7002"
         style="font-style:normal;font-variant:normal;font-weight:normal;font-stretch:semi-condensed;font-size:3.52777767px;line-height:0.30000001;font-family:'DejaVu Sans';-inkscape-font-specification:'DejaVu Sans Semi-Condensed';fill:#ff6600;stroke-width:0.26458332"
         d="m -69.841593,-135.853 h 0.327284 v 0.43753 h -0.327284 z" />
      <path
         id="path7004"
         style="font-style:normal;font-variant:normal;font-weight:normal;font-stretch:semi-condensed;font-size:3.52777767px;line-height:0.30000001;font-family:'DejaVu Sans';-inkscape-font-specification:'DejaVu Sans Semi-Condensed';fill:#ff6600;stroke-width:0.26458332"
         d="m -68.165554,-137.75813 q -0.241157,0 -0.363457,0.26527 -0.122301,0.26355 -0.122301,0.79409 0,0.52882 0.122301,0.7941 0.1223,0.26355 0.363457,0.26355 0.242879,0 0.363458,-0.26355 0.122301,-0.26528 0.122301,-0.7941 0,-0.53054 -0.122301,-0.79409 -0.120579,-0.26527 -0.363458,-0.26527 z m 0,-0.27561 q 0.389296,0 0.594279,0.34279 0.204983,0.34106 0.204983,0.99218 0,0.6494 -0.204983,0.99219 -0.204983,0.34106 -0.594279,0.34106 -0.389296,0 -0.594279,-0.34106 -0.204983,-0.34279 -0.204983,-0.99219 0,-0.65112 0.204983,-0.99218 0.204983,-0.34279 0.594279,-0.34279 z" />
      <path
         id="path7006"
         style="font-style:normal;font-variant:normal;font-weight:normal;font-stretch:semi-condensed;font-size:3.52777767px;line-height:0.30000001;font-family:'DejaVu Sans';-inkscape-font-specification:'DejaVu Sans Semi-Condensed';fill:#ff6600;stroke-width:0.26458332"
         d="m -66.816799,-135.853 h 0.327284 v 0.43753 h -0.327284 z" />
      <path
         id="path7008"
         style="font-style:normal;font-variant:normal;font-weight:normal;font-stretch:semi-condensed;font-size:3.52777767px;line-height:0.30000001;font-family:'DejaVu Sans';-inkscape-font-specification:'DejaVu Sans Semi-Condensed';fill:#ff6600;stroke-width:0.26458332"
         d="m -65.14076,-137.75813 q -0.241157,0 -0.363458,0.26527 -0.122301,0.26355 -0.122301,0.79409 0,0.52882 0.122301,0.7941 0.122301,0.26355 0.363458,0.26355 0.242879,0 0.363457,-0.26355 0.122301,-0.26528 0.122301,-0.7941 0,-0.53054 -0.122301,-0.79409 -0.120578,-0.26527 -0.363457,-0.26527 z m 0,-0.27561 q 0.389296,0 0.594279,0.34279 0.204983,0.34106 0.204983,0.99218 0,0.6494 -0.204983,0.99219 -0.204983,0.34106 -0.594279,0.34106 -0.389296,0 -0.594279,-0.34106 -0.204983,-0.34279 -0.204983,-0.99219 0,-0.65112 0.204983,-0.99218 0.204983,-0.34279 0.594279,-0.34279 z" />
      <path
         id="path7010"
         style="font-style:normal;font-variant:normal;font-weight:normal;font-stretch:semi-condensed;font-size:3.52777767px;line-height:0.30000001;font-family:'DejaVu Sans';-inkscape-font-specification:'DejaVu Sans Semi-Condensed';fill:#ff6600;stroke-width:0.26458332"
         d="m -63.325195,-137.98723 h 0.263549 l -0.806152,2.89904 h -0.26355 z" />
      <path
         id="path7012"
         style="font-style:normal;font-variant:normal;font-weight:normal;font-stretch:semi-condensed;font-size:3.52777767px;line-height:0.30000001;font-family:'DejaVu Sans';-inkscape-font-specification:'DejaVu Sans Semi-Condensed';fill:#ff6600;stroke-width:0.26458332"
         d="m -62.668904,-135.7083 h 0.511596 v -1.96198 l -0.558105,0.12402 v -0.31695 l 0.55466,-0.12402 h 0.313504 v 2.27893 h 0.511596 v 0.29283 h -1.333251 z" />
      <path
         id="path7014"
         style="font-style:normal;font-variant:normal;font-weight:normal;font-stretch:semi-condensed;font-size:3.52777767px;line-height:0.30000001;font-family:'DejaVu Sans';-inkscape-font-specification:'DejaVu Sans Semi-Condensed';fill:#ff6600;stroke-width:0.26458332"
         d="m -59.997233,-136.84002 q -0.210151,0 -0.334175,0.1602 -0.1223,0.1602 -0.1223,0.43925 0,0.27733 0.1223,0.43925 0.124024,0.1602 0.334175,0.1602 0.211873,0 0.334174,-0.1602 0.124023,-0.16192 0.124023,-0.43925 0,-0.27905 -0.124023,-0.43925 -0.122301,-0.1602 -0.334174,-0.1602 z m 0.621839,-1.09037 v 0.31695 q -0.117133,-0.062 -0.237711,-0.0947 -0.120579,-0.0327 -0.237712,-0.0327 -0.310058,0 -0.4737,0.23255 -0.163642,0.23254 -0.186036,0.70279 0.0913,-0.14986 0.229099,-0.22909 0.137804,-0.081 0.303169,-0.081 0.349677,0 0.551215,0.23599 0.203261,0.23426 0.203261,0.63906 0,0.39619 -0.211874,0.63562 -0.210151,0.23943 -0.56155,0.23943 -0.401354,0 -0.613227,-0.34106 -0.211874,-0.34279 -0.211874,-0.99219 0,-0.60978 0.260105,-0.97151 0.260105,-0.36346 0.699354,-0.36346 0.117134,0 0.237712,0.0258 0.120578,0.0258 0.249769,0.0775 z" />
    </g>
    <g
       id="text6911"
       style="font-style:normal;font-weight:normal;font-size:10.58333302px;line-height:0.30000001;font-family:sans-serif;letter-spacing:0px;word-spacing:0px;fill:#000000;fill-opacity:1;stroke:none;stroke-width:0.26458332"
       aria-label="OVH
12.0.0.0/8
13.0.0.0/8">
      <path
         id="path7146"
         style="font-style:normal;font-variant:normal;font-weight:bold;font-stretch:normal;font-size:4.23333311px;line-height:0.30000001;font-family:'DejaVu Sans';-inkscape-font-specification:'DejaVu Sans Bold';stroke-width:0.26458332"
         d="m -143.13724,-195.50603 q -0.3638,0 -0.5643,0.26872 -0.20051,0.26872 -0.20051,0.75654 0,0.48576 0.20051,0.75448 0.2005,0.26871 0.5643,0.26871 0.36587,0 0.56638,-0.26871 0.2005,-0.26872 0.2005,-0.75448 0,-0.48782 -0.2005,-0.75654 -0.20051,-0.26872 -0.56638,-0.26872 z m 0,-0.57671 q 0.74414,0 1.16582,0.42582 0.42168,0.42581 0.42168,1.17615 0,0.74828 -0.42168,1.17409 -0.42168,0.42581 -1.16582,0.42581 -0.74207,0 -1.16582,-0.42581 -0.42168,-0.42581 -0.42168,-1.17409 0,-0.75034 0.42168,-1.17615 0.42375,-0.42582 1.16582,-0.42582 z" />
      <path
         id="path7148"
         style="font-style:normal;font-variant:normal;font-weight:bold;font-stretch:normal;font-size:4.23333311px;line-height:0.30000001;font-family:'DejaVu Sans';-inkscape-font-specification:'DejaVu Sans Bold';stroke-width:0.26458332"
         d="m -141.43398,-196.02693 h 0.79995 l 0.81855,2.2779 0.81649,-2.2779 h 0.79995 l -1.14308,3.08612 h -0.94878 z" />
      <path
         id="path7150"
         style="font-style:normal;font-variant:normal;font-weight:bold;font-stretch:normal;font-size:4.23333311px;line-height:0.30000001;font-family:'DejaVu Sans';-inkscape-font-specification:'DejaVu Sans Bold';stroke-width:0.26458332"
         d="m -137.79183,-196.02693 h 0.79582 v 1.17616 h 1.17409 v -1.17616 h 0.79582 v 3.08612 h -0.79582 v -1.30845 h -1.17409 v 1.30845 h -0.79582 z" />
      <path
         id="path7152"
         style="font-style:normal;font-variant:normal;font-weight:normal;font-stretch:semi-condensed;font-size:3.52777767px;line-height:0.30000001;font-family:'DejaVu Sans';-inkscape-font-specification:'DejaVu Sans Semi-Condensed';fill:#ff6600;stroke-width:0.26458332"
         d="m -144.54111,-189.36163 h 0.51159 v -1.96198 l -0.5581,0.12402 v -0.31695 l 0.55466,-0.12402 h 0.3135 v 2.27893 h 0.5116 v 0.29283 h -1.33325 z" />
      <path
         id="path7154"
         style="font-style:normal;font-variant:normal;font-weight:normal;font-stretch:semi-condensed;font-size:3.52777767px;line-height:0.30000001;font-family:'DejaVu Sans';-inkscape-font-specification:'DejaVu Sans Semi-Condensed';fill:#ff6600;stroke-width:0.26458332"
         d="m -142.30697,-189.36163 h 1.0921 v 0.29283 h -1.46934 v -0.29283 q 0.17742,-0.20499 0.48576,-0.5495 0.30834,-0.34623 0.38757,-0.44614 0.14987,-0.18775 0.20843,-0.31694 0.0603,-0.13092 0.0603,-0.25666 0,-0.20499 -0.12919,-0.33418 -0.12919,-0.12919 -0.33762,-0.12919 -0.14642,0 -0.31006,0.0568 -0.16364,0.0568 -0.34967,0.17225 v -0.3514 q 0.18948,-0.0844 0.35312,-0.12747 0.16536,-0.0431 0.30144,-0.0431 0.36002,0 0.57361,0.19981 0.2136,0.19982 0.2136,0.53399 0,0.15848 -0.0534,0.30145 -0.0534,0.14125 -0.19465,0.33417 -0.0396,0.05 -0.24805,0.28939 -0.2067,0.23771 -0.58394,0.66663 z" />
      <path
         id="path7156"
         style="font-style:normal;font-variant:normal;font-weight:normal;font-stretch:semi-condensed;font-size:3.52777767px;line-height:0.30000001;font-family:'DejaVu Sans';-inkscape-font-specification:'DejaVu Sans Semi-Condensed';fill:#ff6600;stroke-width:0.26458332"
         d="m -140.55858,-189.50633 h 0.32728 v 0.43753 h -0.32728 z" />
      <path
         id="path7158"
         style="font-style:normal;font-variant:normal;font-weight:normal;font-stretch:semi-condensed;font-size:3.52777767px;line-height:0.30000001;font-family:'DejaVu Sans';-inkscape-font-specification:'DejaVu Sans Semi-Condensed';fill:#ff6600;stroke-width:0.26458332"
         d="m -138.88254,-191.41146 q -0.24116,0 -0.36346,0.26527 -0.1223,0.26355 -0.1223,0.79409 0,0.52882 0.1223,0.7941 0.1223,0.26355 0.36346,0.26355 0.24287,0 0.36345,-0.26355 0.1223,-0.26528 0.1223,-0.7941 0,-0.53054 -0.1223,-0.79409 -0.12058,-0.26527 -0.36345,-0.26527 z m 0,-0.27561 q 0.38929,0 0.59427,0.34279 0.20499,0.34106 0.20499,0.99218 0,0.6494 -0.20499,0.99219 -0.20498,0.34106 -0.59427,0.34106 -0.3893,0 -0.59428,-0.34106 -0.20499,-0.34279 -0.20499,-0.99219 0,-0.65112 0.20499,-0.99218 0.20498,-0.34279 0.59428,-0.34279 z" />
      <path
         id="path7160"
         style="font-style:normal;font-variant:normal;font-weight:normal;font-stretch:semi-condensed;font-size:3.52777767px;line-height:0.30000001;font-family:'DejaVu Sans';-inkscape-font-specification:'DejaVu Sans Semi-Condensed';fill:#ff6600;stroke-width:0.26458332"
         d="m -137.53379,-189.50633 h 0.32728 v 0.43753 h -0.32728 z" />
      <path
         id="path7162"
         style="font-style:normal;font-variant:normal;font-weight:normal;font-stretch:semi-condensed;font-size:3.52777767px;line-height:0.30000001;font-family:'DejaVu Sans';-inkscape-font-specification:'DejaVu Sans Semi-Condensed';fill:#ff6600;stroke-width:0.26458332"
         d="m -135.85775,-191.41146 q -0.24116,0 -0.36346,0.26527 -0.1223,0.26355 -0.1223,0.79409 0,0.52882 0.1223,0.7941 0.1223,0.26355 0.36346,0.26355 0.24288,0 0.36346,-0.26355 0.1223,-0.26528 0.1223,-0.7941 0,-0.53054 -0.1223,-0.79409 -0.12058,-0.26527 -0.36346,-0.26527 z m 0,-0.27561 q 0.3893,0 0.59428,0.34279 0.20498,0.34106 0.20498,0.99218 0,0.6494 -0.20498,0.99219 -0.20498,0.34106 -0.59428,0.34106 -0.3893,0 -0.59428,-0.34106 -0.20498,-0.34279 -0.20498,-0.99219 0,-0.65112 0.20498,-0.99218 0.20498,-0.34279 0.59428,-0.34279 z" />
      <path
         id="path7164"
         style="font-style:normal;font-variant:normal;font-weight:normal;font-stretch:semi-condensed;font-size:3.52777767px;line-height:0.30000001;font-family:'DejaVu Sans';-inkscape-font-specification:'DejaVu Sans Semi-Condensed';fill:#ff6600;stroke-width:0.26458332"
         d="m -134.509,-189.50633 h 0.32729 v 0.43753 h -0.32729 z" />
      <path
         id="path7166"
         style="font-style:normal;font-variant:normal;font-weight:normal;font-stretch:semi-condensed;font-size:3.52777767px;line-height:0.30000001;font-family:'DejaVu Sans';-inkscape-font-specification:'DejaVu Sans Semi-Condensed';fill:#ff6600;stroke-width:0.26458332"
         d="m -132.83296,-191.41146 q -0.24115,0 -0.36345,0.26527 -0.12231,0.26355 -0.12231,0.79409 0,0.52882 0.12231,0.7941 0.1223,0.26355 0.36345,0.26355 0.24288,0 0.36346,-0.26355 0.1223,-0.26528 0.1223,-0.7941 0,-0.53054 -0.1223,-0.79409 -0.12058,-0.26527 -0.36346,-0.26527 z m 0,-0.27561 q 0.3893,0 0.59428,0.34279 0.20499,0.34106 0.20499,0.99218 0,0.6494 -0.20499,0.99219 -0.20498,0.34106 -0.59428,0.34106 -0.38929,0 -0.59428,-0.34106 -0.20498,-0.34279 -0.20498,-0.99219 0,-0.65112 0.20498,-0.99218 0.20499,-0.34279 0.59428,-0.34279 z" />
      <path
         id="path7168"
         style="font-style:normal;font-variant:normal;font-weight:normal;font-stretch:semi-condensed;font-size:3.52777767px;line-height:0.30000001;font-family:'DejaVu Sans';-inkscape-font-specification:'DejaVu Sans Semi-Condensed';fill:#ff6600;stroke-width:0.26458332"
         d="m -131.01739,-191.64056 h 0.26355 l -0.80615,2.89904 h -0.26355 z" />
      <path
         id="path7170"
         style="font-style:normal;font-variant:normal;font-weight:normal;font-stretch:semi-condensed;font-size:3.52777767px;line-height:0.30000001;font-family:'DejaVu Sans';-inkscape-font-specification:'DejaVu Sans Semi-Condensed';fill:#ff6600;stroke-width:0.26458332"
         d="m -129.74615,-190.29009 q -0.22393,0 -0.3514,0.13264 -0.12747,0.13264 -0.12747,0.36518 0,0.23254 0.12747,0.36518 0.12747,0.13264 0.3514,0.13264 0.22393,0 0.3514,-0.13264 0.12919,-0.13436 0.12919,-0.36518 0,-0.23254 -0.12919,-0.36518 -0.12747,-0.13264 -0.3514,-0.13264 z m -0.3135,-0.14813 q -0.20154,-0.0551 -0.31351,-0.20843 -0.11196,-0.15331 -0.11196,-0.3738 0,-0.30833 0.19637,-0.48748 0.19809,-0.17914 0.5426,-0.17914 0.34623,0 0.5426,0.17914 0.19637,0.17915 0.19637,0.48748 0,0.22049 -0.11196,0.3738 -0.11197,0.1533 -0.31178,0.20843 0.22565,0.0586 0.3514,0.22909 0.12746,0.17054 0.12746,0.41686 0,0.37379 -0.2067,0.57361 -0.20499,0.19981 -0.58739,0.19981 -0.38241,0 -0.58911,-0.19981 -0.20499,-0.19982 -0.20499,-0.57361 0,-0.24632 0.12747,-0.41686 0.12747,-0.17053 0.35313,-0.22909 z m -0.11369,-0.5495 q 0,0.19982 0.11196,0.31178 0.11197,0.11197 0.31523,0.11197 0.20154,0 0.31523,-0.11197 0.11368,-0.11196 0.11368,-0.31178 0,-0.19981 -0.11368,-0.31178 -0.11369,-0.11196 -0.31523,-0.11196 -0.20326,0 -0.31523,0.11196 -0.11196,0.11197 -0.11196,0.31178 z" />
      <path
         id="path7172"
         style="font-style:normal;font-variant:normal;font-weight:normal;font-stretch:semi-condensed;font-size:3.52777767px;line-height:0.30000001;font-family:'DejaVu Sans';-inkscape-font-specification:'DejaVu Sans Semi-Condensed';fill:#ff6600;stroke-width:0.26458332"
         d="m -144.54111,-185.41218 h 0.51159 v -1.96198 l -0.5581,0.12403 v -0.31695 l 0.55466,-0.12403 h 0.3135 v 2.27893 h 0.5116 v 0.29284 h -1.33325 z" />
      <path
         id="path7174"
         style="font-style:normal;font-variant:normal;font-weight:normal;font-stretch:semi-condensed;font-size:3.52777767px;line-height:0.30000001;font-family:'DejaVu Sans';-inkscape-font-specification:'DejaVu Sans Semi-Condensed';fill:#ff6600;stroke-width:0.26458332"
         d="m -141.62829,-186.50599 q 0.22394,0.0534 0.34968,0.22221 0.12747,0.16881 0.12747,0.41685 0,0.38069 -0.23599,0.58911 -0.23427,0.20843 -0.66835,0.20843 -0.14641,0 -0.30144,-0.0327 -0.15331,-0.031 -0.31867,-0.0947 v -0.33589 q 0.13091,0.0844 0.28594,0.12747 0.15503,0.0431 0.32384,0.0431 0.29455,0 0.44786,-0.12919 0.15503,-0.12919 0.15503,-0.37552 0,-0.22737 -0.14297,-0.35484 -0.14297,-0.12919 -0.39963,-0.12919 h -0.26872 v -0.28595 h 0.28077 q 0.23083,0 0.35313,-0.10163 0.12402,-0.10335 0.12402,-0.29628 0,-0.19809 -0.12747,-0.30316 -0.12574,-0.1068 -0.36173,-0.1068 -0.12919,0 -0.27561,0.031 -0.14642,0.031 -0.32384,0.0965 v -0.31006 q 0.17742,-0.0551 0.33245,-0.0827 0.15675,-0.0276 0.29456,-0.0276 0.35656,0 0.56499,0.18086 0.20843,0.17915 0.20843,0.48576 0,0.2136 -0.11024,0.36174 -0.11025,0.14641 -0.31351,0.20326 z" />
      <path
         id="path7176"
         style="font-style:normal;font-variant:normal;font-weight:normal;font-stretch:semi-condensed;font-size:3.52777767px;line-height:0.30000001;font-family:'DejaVu Sans';-inkscape-font-specification:'DejaVu Sans Semi-Condensed';fill:#ff6600;stroke-width:0.26458332"
         d="m -140.55858,-185.55687 h 0.32728 v 0.43753 h -0.32728 z" />
      <path
         id="path7178"
         style="font-style:normal;font-variant:normal;font-weight:normal;font-stretch:semi-condensed;font-size:3.52777767px;line-height:0.30000001;font-family:'DejaVu Sans';-inkscape-font-specification:'DejaVu Sans Semi-Condensed';fill:#ff6600;stroke-width:0.26458332"
         d="m -138.88254,-187.46201 q -0.24116,0 -0.36346,0.26528 -0.1223,0.26355 -0.1223,0.79409 0,0.52882 0.1223,0.79409 0.1223,0.26355 0.36346,0.26355 0.24287,0 0.36345,-0.26355 0.1223,-0.26527 0.1223,-0.79409 0,-0.53054 -0.1223,-0.79409 -0.12058,-0.26528 -0.36345,-0.26528 z m 0,-0.2756 q 0.38929,0 0.59427,0.34278 0.20499,0.34107 0.20499,0.99219 0,0.6494 -0.20499,0.99219 -0.20498,0.34106 -0.59427,0.34106 -0.3893,0 -0.59428,-0.34106 -0.20499,-0.34279 -0.20499,-0.99219 0,-0.65112 0.20499,-0.99219 0.20498,-0.34278 0.59428,-0.34278 z" />
      <path
         id="path7180"
         style="font-style:normal;font-variant:normal;font-weight:normal;font-stretch:semi-condensed;font-size:3.52777767px;line-height:0.30000001;font-family:'DejaVu Sans';-inkscape-font-specification:'DejaVu Sans Semi-Condensed';fill:#ff6600;stroke-width:0.26458332"
         d="m -137.53379,-185.55687 h 0.32728 v 0.43753 h -0.32728 z" />
      <path
         id="path7182"
         style="font-style:normal;font-variant:normal;font-weight:normal;font-stretch:semi-condensed;font-size:3.52777767px;line-height:0.30000001;font-family:'DejaVu Sans';-inkscape-font-specification:'DejaVu Sans Semi-Condensed';fill:#ff6600;stroke-width:0.26458332"
         d="m -135.85775,-187.46201 q -0.24116,0 -0.36346,0.26528 -0.1223,0.26355 -0.1223,0.79409 0,0.52882 0.1223,0.79409 0.1223,0.26355 0.36346,0.26355 0.24288,0 0.36346,-0.26355 0.1223,-0.26527 0.1223,-0.79409 0,-0.53054 -0.1223,-0.79409 -0.12058,-0.26528 -0.36346,-0.26528 z m 0,-0.2756 q 0.3893,0 0.59428,0.34278 0.20498,0.34107 0.20498,0.99219 0,0.6494 -0.20498,0.99219 -0.20498,0.34106 -0.59428,0.34106 -0.3893,0 -0.59428,-0.34106 -0.20498,-0.34279 -0.20498,-0.99219 0,-0.65112 0.20498,-0.99219 0.20498,-0.34278 0.59428,-0.34278 z" />
      <path
         id="path7184"
         style="font-style:normal;font-variant:normal;font-weight:normal;font-stretch:semi-condensed;font-size:3.52777767px;line-height:0.30000001;font-family:'DejaVu Sans';-inkscape-font-specification:'DejaVu Sans Semi-Condensed';fill:#ff6600;stroke-width:0.26458332"
         d="m -134.509,-185.55687 h 0.32729 v 0.43753 h -0.32729 z" />
      <path
         id="path7186"
         style="font-style:normal;font-variant:normal;font-weight:normal;font-stretch:semi-condensed;font-size:3.52777767px;line-height:0.30000001;font-family:'DejaVu Sans';-inkscape-font-specification:'DejaVu Sans Semi-Condensed';fill:#ff6600;stroke-width:0.26458332"
         d="m -132.83296,-187.46201 q -0.24115,0 -0.36345,0.26528 -0.12231,0.26355 -0.12231,0.79409 0,0.52882 0.12231,0.79409 0.1223,0.26355 0.36345,0.26355 0.24288,0 0.36346,-0.26355 0.1223,-0.26527 0.1223,-0.79409 0,-0.53054 -0.1223,-0.79409 -0.12058,-0.26528 -0.36346,-0.26528 z m 0,-0.2756 q 0.3893,0 0.59428,0.34278 0.20499,0.34107 0.20499,0.99219 0,0.6494 -0.20499,0.99219 -0.20498,0.34106 -0.59428,0.34106 -0.38929,0 -0.59428,-0.34106 -0.20498,-0.34279 -0.20498,-0.99219 0,-0.65112 0.20498,-0.99219 0.20499,-0.34278 0.59428,-0.34278 z" />
      <path
         id="path7188"
         style="font-style:normal;font-variant:normal;font-weight:normal;font-stretch:semi-condensed;font-size:3.52777767px;line-height:0.30000001;font-family:'DejaVu Sans';-inkscape-font-specification:'DejaVu Sans Semi-Condensed';fill:#ff6600;stroke-width:0.26458332"
         d="m -131.01739,-187.69111 h 0.26355 l -0.80615,2.89905 h -0.26355 z" />
      <path
         id="path7190"
         style="font-style:normal;font-variant:normal;font-weight:normal;font-stretch:semi-condensed;font-size:3.52777767px;line-height:0.30000001;font-family:'DejaVu Sans';-inkscape-font-specification:'DejaVu Sans Semi-Condensed';fill:#ff6600;stroke-width:0.26458332"
         d="m -129.74615,-186.34063 q -0.22393,0 -0.3514,0.13264 -0.12747,0.13263 -0.12747,0.36518 0,0.23254 0.12747,0.36518 0.12747,0.13263 0.3514,0.13263 0.22393,0 0.3514,-0.13263 0.12919,-0.13436 0.12919,-0.36518 0,-0.23255 -0.12919,-0.36518 -0.12747,-0.13264 -0.3514,-0.13264 z m -0.3135,-0.14814 q -0.20154,-0.0551 -0.31351,-0.20843 -0.11196,-0.1533 -0.11196,-0.37379 0,-0.30833 0.19637,-0.48748 0.19809,-0.17914 0.5426,-0.17914 0.34623,0 0.5426,0.17914 0.19637,0.17915 0.19637,0.48748 0,0.22049 -0.11196,0.37379 -0.11197,0.15331 -0.31178,0.20843 0.22565,0.0586 0.3514,0.2291 0.12746,0.17053 0.12746,0.41686 0,0.37379 -0.2067,0.57361 -0.20499,0.19981 -0.58739,0.19981 -0.38241,0 -0.58911,-0.19981 -0.20499,-0.19982 -0.20499,-0.57361 0,-0.24633 0.12747,-0.41686 0.12747,-0.17053 0.35313,-0.2291 z m -0.11369,-0.54949 q 0,0.19982 0.11196,0.31178 0.11197,0.11197 0.31523,0.11197 0.20154,0 0.31523,-0.11197 0.11368,-0.11196 0.11368,-0.31178 0,-0.19982 -0.11368,-0.31178 -0.11369,-0.11197 -0.31523,-0.11197 -0.20326,0 -0.31523,0.11197 -0.11196,0.11196 -0.11196,0.31178 z" />
    </g>
    <g
       id="text6923"
       style="font-style:normal;font-weight:normal;font-size:10.58333302px;line-height:0.30000001;font-family:sans-serif;letter-spacing:0px;word-spacing:0px;fill:#000000;fill-opacity:1;stroke:none;stroke-width:0.26458332"
       aria-label="Free
118.0.0.0/8
211.230.0.0/8">
      <path
         id="path7089"
         style="font-style:normal;font-variant:normal;font-weight:bold;font-stretch:normal;font-size:4.23333311px;line-height:0.30000001;font-family:'DejaVu Sans';-inkscape-font-specification:'DejaVu Sans Bold';stroke-width:0.26458332"
         d="m -81.141468,-217.85505 h 2.147672 v 0.60151 h -1.351855 v 0.57464 h 1.27124 v 0.60152 h -1.27124 v 1.30844 h -0.795817 z" />
      <path
         id="path7091"
         style="font-style:normal;font-variant:normal;font-weight:bold;font-stretch:normal;font-size:4.23333311px;line-height:0.30000001;font-family:'DejaVu Sans';-inkscape-font-specification:'DejaVu Sans Bold';stroke-width:0.26458332"
         d="m -76.833721,-216.45359 q -0.09715,-0.0455 -0.194304,-0.0661 -0.09508,-0.0227 -0.192236,-0.0227 -0.285254,0 -0.440283,0.18397 -0.152962,0.1819 -0.152962,0.52296 v 1.0666 h -0.740007 v -2.3151 h 0.740007 v 0.38034 q 0.142627,-0.22738 0.326595,-0.33073 0.186035,-0.10542 0.444417,-0.10542 0.03721,0 0.08062,0.004 0.04341,0.002 0.126091,0.0124 z" />
      <path
         id="path7093"
         style="font-style:normal;font-variant:normal;font-weight:bold;font-stretch:normal;font-size:4.23333311px;line-height:0.30000001;font-family:'DejaVu Sans';-inkscape-font-specification:'DejaVu Sans Bold';stroke-width:0.26458332"
         d="m -74.150681,-215.93269 v 0.21084 h -1.730127 q 0.02687,0.26045 0.188103,0.39067 0.16123,0.13023 0.450618,0.13023 0.233578,0 0.47749,-0.0682 0.24598,-0.0703 0.504362,-0.21084 v 0.5705 q -0.262516,0.0992 -0.525032,0.14883 -0.262516,0.0517 -0.525033,0.0517 -0.628385,0 -0.977718,-0.31833 -0.347265,-0.32039 -0.347265,-0.8971 0,-0.56637 0.341064,-0.8909 0.343132,-0.32453 0.942578,-0.32453 0.545703,0 0.872298,0.32866 0.328662,0.32866 0.328662,0.8785 z m -0.760677,-0.24598 q 0,-0.21084 -0.124023,-0.339 -0.121957,-0.13022 -0.320394,-0.13022 -0.214974,0 -0.349333,0.12196 -0.134358,0.11988 -0.167431,0.34726 z" />
      <path
         id="path7095"
         style="font-style:normal;font-variant:normal;font-weight:bold;font-stretch:normal;font-size:4.23333311px;line-height:0.30000001;font-family:'DejaVu Sans';-inkscape-font-specification:'DejaVu Sans Bold';stroke-width:0.26458332"
         d="m -71.281606,-215.93269 v 0.21084 h -1.730127 q 0.02687,0.26045 0.188102,0.39067 0.161231,0.13023 0.450619,0.13023 0.233577,0 0.47749,-0.0682 0.24598,-0.0703 0.504362,-0.21084 v 0.5705 q -0.262516,0.0992 -0.525032,0.14883 -0.262517,0.0517 -0.525033,0.0517 -0.628385,0 -0.977718,-0.31833 -0.347266,-0.32039 -0.347266,-0.8971 0,-0.56637 0.341065,-0.8909 0.343131,-0.32453 0.942578,-0.32453 0.545703,0 0.872298,0.32866 0.328662,0.32866 0.328662,0.8785 z m -0.760677,-0.24598 q 0,-0.21084 -0.124023,-0.339 -0.121957,-0.13022 -0.320394,-0.13022 -0.214974,0 -0.349333,0.12196 -0.134359,0.11988 -0.167431,0.34726 z" />
      <path
         id="path7097"
         style="font-style:normal;font-variant:normal;font-weight:normal;font-stretch:semi-condensed;font-size:3.52777767px;line-height:0.30000001;font-family:'DejaVu Sans';-inkscape-font-specification:'DejaVu Sans Semi-Condensed';fill:#ff6600;stroke-width:0.26458332"
         d="m -81.135612,-211.18976 h 0.511597 v -1.96198 l -0.558105,0.12402 v -0.31694 l 0.55466,-0.12403 h 0.313504 v 2.27893 h 0.511596 v 0.29284 h -1.333252 z" />
      <path
         id="path7099"
         style="font-style:normal;font-variant:normal;font-weight:normal;font-stretch:semi-condensed;font-size:3.52777767px;line-height:0.30000001;font-family:'DejaVu Sans';-inkscape-font-specification:'DejaVu Sans Semi-Condensed';fill:#ff6600;stroke-width:0.26458332"
         d="m -79.116786,-211.18976 h 0.511597 v -1.96198 l -0.558105,0.12402 v -0.31694 l 0.55466,-0.12403 h 0.313504 v 2.27893 h 0.511596 v 0.29284 h -1.333252 z" />
      <path
         id="path7101"
         style="font-style:normal;font-variant:normal;font-weight:normal;font-stretch:semi-condensed;font-size:3.52777767px;line-height:0.30000001;font-family:'DejaVu Sans';-inkscape-font-specification:'DejaVu Sans Semi-Condensed';fill:#ff6600;stroke-width:0.26458332"
         d="m -76.48301,-212.11821 q -0.223931,0 -0.3514,0.13264 -0.127468,0.13263 -0.127468,0.36518 0,0.23254 0.127468,0.36518 0.127469,0.13263 0.3514,0.13263 0.223931,0 0.3514,-0.13263 0.129191,-0.13436 0.129191,-0.36518 0,-0.23255 -0.129191,-0.36518 -0.127469,-0.13264 -0.3514,-0.13264 z m -0.313504,-0.14814 q -0.201538,-0.0551 -0.313503,-0.20843 -0.111966,-0.1533 -0.111966,-0.37379 0,-0.30834 0.19637,-0.48748 0.198093,-0.17915 0.542603,-0.17915 0.346232,0 0.542602,0.17915 0.196371,0.17914 0.196371,0.48748 0,0.22049 -0.111966,0.37379 -0.111965,0.15331 -0.311781,0.20843 0.225654,0.0586 0.3514,0.2291 0.127468,0.17053 0.127468,0.41686 0,0.37379 -0.206705,0.5736 -0.204984,0.19982 -0.587389,0.19982 -0.382406,0 -0.589111,-0.19982 -0.204984,-0.19981 -0.204984,-0.5736 0,-0.24633 0.127469,-0.41686 0.127468,-0.17053 0.353122,-0.2291 z m -0.113688,-0.54949 q 0,0.19981 0.111966,0.31178 0.111965,0.11196 0.315226,0.11196 0.201538,0 0.315226,-0.11196 0.113688,-0.11197 0.113688,-0.31178 0,-0.19982 -0.113688,-0.31178 -0.113688,-0.11197 -0.315226,-0.11197 -0.203261,0 -0.315226,0.11197 -0.111966,0.11196 -0.111966,0.31178 z" />
      <path
         id="path7103"
         style="font-style:normal;font-variant:normal;font-weight:normal;font-stretch:semi-condensed;font-size:3.52777767px;line-height:0.30000001;font-family:'DejaVu Sans';-inkscape-font-specification:'DejaVu Sans Semi-Condensed';fill:#ff6600;stroke-width:0.26458332"
         d="m -75.134255,-211.33445 h 0.327284 v 0.43753 h -0.327284 z" />
      <path
         id="path7105"
         style="font-style:normal;font-variant:normal;font-weight:normal;font-stretch:semi-condensed;font-size:3.52777767px;line-height:0.30000001;font-family:'DejaVu Sans';-inkscape-font-specification:'DejaVu Sans Semi-Condensed';fill:#ff6600;stroke-width:0.26458332"
         d="m -73.458216,-213.23959 q -0.241157,0 -0.363458,0.26527 -0.122301,0.26355 -0.122301,0.7941 0,0.52882 0.122301,0.79409 0.122301,0.26355 0.363458,0.26355 0.242879,0 0.363457,-0.26355 0.122301,-0.26527 0.122301,-0.79409 0,-0.53055 -0.122301,-0.7941 -0.120578,-0.26527 -0.363457,-0.26527 z m 0,-0.27561 q 0.389295,0 0.594278,0.34279 0.204984,0.34106 0.204984,0.99219 0,0.6494 -0.204984,0.99218 -0.204983,0.34107 -0.594278,0.34107 -0.389296,0 -0.594279,-0.34107 -0.204984,-0.34278 -0.204984,-0.99218 0,-0.65113 0.204984,-0.99219 0.204983,-0.34279 0.594279,-0.34279 z" />
      <path
         id="path7107"
         style="font-style:normal;font-variant:normal;font-weight:normal;font-stretch:semi-condensed;font-size:3.52777767px;line-height:0.30000001;font-family:'DejaVu Sans';-inkscape-font-specification:'DejaVu Sans Semi-Condensed';fill:#ff6600;stroke-width:0.26458332"
         d="m -72.109461,-211.33445 h 0.327284 v 0.43753 h -0.327284 z" />
      <path
         id="path7109"
         style="font-style:normal;font-variant:normal;font-weight:normal;font-stretch:semi-condensed;font-size:3.52777767px;line-height:0.30000001;font-family:'DejaVu Sans';-inkscape-font-specification:'DejaVu Sans Semi-Condensed';fill:#ff6600;stroke-width:0.26458332"
         d="m -70.433422,-213.23959 q -0.241157,0 -0.363457,0.26527 -0.122301,0.26355 -0.122301,0.7941 0,0.52882 0.122301,0.79409 0.1223,0.26355 0.363457,0.26355 0.242879,0 0.363458,-0.26355 0.122301,-0.26527 0.122301,-0.79409 0,-0.53055 -0.122301,-0.7941 -0.120579,-0.26527 -0.363458,-0.26527 z m 0,-0.27561 q 0.389296,0 0.594279,0.34279 0.204983,0.34106 0.204983,0.99219 0,0.6494 -0.204983,0.99218 -0.204983,0.34107 -0.594279,0.34107 -0.389296,0 -0.594279,-0.34107 -0.204983,-0.34278 -0.204983,-0.99218 0,-0.65113 0.204983,-0.99219 0.204983,-0.34279 0.594279,-0.34279 z" />
      <path
         id="path7111"
         style="font-style:normal;font-variant:normal;font-weight:normal;font-stretch:semi-condensed;font-size:3.52777767px;line-height:0.30000001;font-family:'DejaVu Sans';-inkscape-font-specification:'DejaVu Sans Semi-Condensed';fill:#ff6600;stroke-width:0.26458332"
         d="m -69.084667,-211.33445 h 0.327284 v 0.43753 h -0.327284 z" />
      <path
         id="path7113"
         style="font-style:normal;font-variant:normal;font-weight:normal;font-stretch:semi-condensed;font-size:3.52777767px;line-height:0.30000001;font-family:'DejaVu Sans';-inkscape-font-specification:'DejaVu Sans Semi-Condensed';fill:#ff6600;stroke-width:0.26458332"
         d="m -67.408628,-213.23959 q -0.241157,0 -0.363458,0.26527 -0.122301,0.26355 -0.122301,0.7941 0,0.52882 0.122301,0.79409 0.122301,0.26355 0.363458,0.26355 0.242879,0 0.363457,-0.26355 0.122301,-0.26527 0.122301,-0.79409 0,-0.53055 -0.122301,-0.7941 -0.120578,-0.26527 -0.363457,-0.26527 z m 0,-0.27561 q 0.389295,0 0.594279,0.34279 0.204983,0.34106 0.204983,0.99219 0,0.6494 -0.204983,0.99218 -0.204984,0.34107 -0.594279,0.34107 -0.389296,0 -0.594279,-0.34107 -0.204983,-0.34278 -0.204983,-0.99218 0,-0.65113 0.204983,-0.99219 0.204983,-0.34279 0.594279,-0.34279 z" />
      <path
         id="path7115"
         style="font-style:normal;font-variant:normal;font-weight:normal;font-stretch:semi-condensed;font-size:3.52777767px;line-height:0.30000001;font-family:'DejaVu Sans';-inkscape-font-specification:'DejaVu Sans Semi-Condensed';fill:#ff6600;stroke-width:0.26458332"
         d="m -65.593063,-213.46869 h 0.263549 l -0.806152,2.89905 h -0.26355 z" />
      <path
         id="path7117"
         style="font-style:normal;font-variant:normal;font-weight:normal;font-stretch:semi-condensed;font-size:3.52777767px;line-height:0.30000001;font-family:'DejaVu Sans';-inkscape-font-specification:'DejaVu Sans Semi-Condensed';fill:#ff6600;stroke-width:0.26458332"
         d="m -64.321823,-212.11821 q -0.223931,0 -0.3514,0.13264 -0.127468,0.13263 -0.127468,0.36518 0,0.23254 0.127468,0.36518 0.127469,0.13263 0.3514,0.13263 0.223931,0 0.3514,-0.13263 0.129191,-0.13436 0.129191,-0.36518 0,-0.23255 -0.129191,-0.36518 -0.127469,-0.13264 -0.3514,-0.13264 z m -0.313504,-0.14814 q -0.201538,-0.0551 -0.313503,-0.20843 -0.111966,-0.1533 -0.111966,-0.37379 0,-0.30834 0.196371,-0.48748 0.198093,-0.17915 0.542602,-0.17915 0.346232,0 0.542603,0.17915 0.19637,0.17914 0.19637,0.48748 0,0.22049 -0.111966,0.37379 -0.111965,0.15331 -0.311781,0.20843 0.225654,0.0586 0.3514,0.2291 0.127469,0.17053 0.127469,0.41686 0,0.37379 -0.206706,0.5736 -0.204983,0.19982 -0.587389,0.19982 -0.382406,0 -0.589111,-0.19982 -0.204983,-0.19981 -0.204983,-0.5736 0,-0.24633 0.127468,-0.41686 0.127469,-0.17053 0.353122,-0.2291 z m -0.113688,-0.54949 q 0,0.19981 0.111966,0.31178 0.111965,0.11196 0.315226,0.11196 0.201538,0 0.315226,-0.11196 0.113688,-0.11197 0.113688,-0.31178 0,-0.19982 -0.113688,-0.31178 -0.113688,-0.11197 -0.315226,-0.11197 -0.203261,0 -0.315226,0.11197 -0.111966,0.11196 -0.111966,0.31178 z" />
      <path
         id="path7119"
         style="font-style:normal;font-variant:normal;font-weight:normal;font-stretch:semi-condensed;font-size:3.52777767px;line-height:0.30000001;font-family:'DejaVu Sans';-inkscape-font-specification:'DejaVu Sans Semi-Condensed';fill:#ff6600;stroke-width:0.26458332"
         d="m -80.920293,-207.2403 h 1.092095 v 0.29283 h -1.469333 v -0.29283 q 0.177422,-0.20498 0.485758,-0.54949 0.308336,-0.34623 0.387574,-0.44614 0.149861,-0.18776 0.208428,-0.31695 0.06029,-0.13092 0.06029,-0.25666 0,-0.20498 -0.129191,-0.33418 -0.129191,-0.12919 -0.337619,-0.12919 -0.146417,0 -0.310059,0.0568 -0.163642,0.0568 -0.349677,0.17225 v -0.3514 q 0.18948,-0.0844 0.353122,-0.12747 0.165365,-0.0431 0.301446,-0.0431 0.360012,0 0.573608,0.19982 0.213596,0.19981 0.213596,0.53399 0,0.15847 -0.0534,0.30144 -0.0534,0.14125 -0.194648,0.33418 -0.03962,0.05 -0.248047,0.28938 -0.206705,0.23772 -0.583943,0.66663 z" />
      <path
         id="path7121"
         style="font-style:normal;font-variant:normal;font-weight:normal;font-stretch:semi-condensed;font-size:3.52777767px;line-height:0.30000001;font-family:'DejaVu Sans';-inkscape-font-specification:'DejaVu Sans Semi-Condensed';fill:#ff6600;stroke-width:0.26458332"
         d="m -79.116786,-207.2403 h 0.511597 v -1.96198 l -0.558105,0.12402 v -0.31695 l 0.55466,-0.12402 h 0.313504 v 2.27893 h 0.511596 v 0.29283 h -1.333252 z" />
      <path
         id="path7123"
         style="font-style:normal;font-variant:normal;font-weight:normal;font-stretch:semi-condensed;font-size:3.52777767px;line-height:0.30000001;font-family:'DejaVu Sans';-inkscape-font-specification:'DejaVu Sans Semi-Condensed';fill:#ff6600;stroke-width:0.26458332"
         d="m -77.09796,-207.2403 h 0.511597 v -1.96198 l -0.558105,0.12402 v -0.31695 l 0.55466,-0.12402 h 0.313504 v 2.27893 h 0.511596 v 0.29283 h -1.333252 z" />
      <path
         id="path7125"
         style="font-style:normal;font-variant:normal;font-weight:normal;font-stretch:semi-condensed;font-size:3.52777767px;line-height:0.30000001;font-family:'DejaVu Sans';-inkscape-font-specification:'DejaVu Sans Semi-Condensed';fill:#ff6600;stroke-width:0.26458332"
         d="m -75.134255,-207.38499 h 0.327284 v 0.43752 h -0.327284 z" />
      <path
         id="path7127"
         style="font-style:normal;font-variant:normal;font-weight:normal;font-stretch:semi-condensed;font-size:3.52777767px;line-height:0.30000001;font-family:'DejaVu Sans';-inkscape-font-specification:'DejaVu Sans Semi-Condensed';fill:#ff6600;stroke-width:0.26458332"
         d="m -73.857848,-207.2403 h 1.092096 v 0.29283 h -1.469333 v -0.29283 q 0.177422,-0.20498 0.485758,-0.54949 0.308336,-0.34623 0.387573,-0.44614 0.149862,-0.18776 0.208428,-0.31695 0.06029,-0.13092 0.06029,-0.25666 0,-0.20498 -0.129191,-0.33418 -0.129192,-0.12919 -0.33762,-0.12919 -0.146416,0 -0.310058,0.0568 -0.163642,0.0568 -0.349678,0.17225 v -0.3514 q 0.189481,-0.0844 0.353123,-0.12747 0.165364,-0.0431 0.301446,-0.0431 0.360012,0 0.573608,0.19982 0.213596,0.19981 0.213596,0.53399 0,0.15847 -0.0534,0.30144 -0.0534,0.14125 -0.194648,0.33418 -0.03962,0.05 -0.248047,0.28938 -0.206706,0.23772 -0.583944,0.66663 z" />
      <path
         id="path7129"
         style="font-style:normal;font-variant:normal;font-weight:normal;font-stretch:semi-condensed;font-size:3.52777767px;line-height:0.30000001;font-family:'DejaVu Sans';-inkscape-font-specification:'DejaVu Sans Semi-Condensed';fill:#ff6600;stroke-width:0.26458332"
         d="m -71.160337,-208.33412 q 0.223931,0.0534 0.349677,0.22221 0.127468,0.16881 0.127468,0.41686 0,0.38068 -0.235989,0.58911 -0.234266,0.20843 -0.668348,0.20843 -0.146417,0 -0.301446,-0.0327 -0.153307,-0.031 -0.318671,-0.0947 v -0.3359 q 0.130913,0.0844 0.285943,0.12747 0.155029,0.0431 0.323839,0.0431 0.294555,0 0.447862,-0.12919 0.155029,-0.12919 0.155029,-0.37551 0,-0.22738 -0.142971,-0.35485 -0.142972,-0.12919 -0.399631,-0.12919 h -0.268718 v -0.28594 h 0.280776 q 0.230821,0 0.353122,-0.10163 0.124023,-0.10335 0.124023,-0.29628 0,-0.19809 -0.127468,-0.30317 -0.125746,-0.1068 -0.361735,-0.1068 -0.129191,0 -0.275608,0.031 -0.146416,0.031 -0.323839,0.0965 v -0.31006 q 0.177423,-0.0551 0.332452,-0.0827 0.156752,-0.0276 0.294556,-0.0276 0.356567,0 0.564995,0.18087 0.208428,0.17914 0.208428,0.48576 0,0.21359 -0.110243,0.36173 -0.110243,0.14642 -0.313503,0.20326 z" />
      <path
         id="path7131"
         style="font-style:normal;font-variant:normal;font-weight:normal;font-stretch:semi-condensed;font-size:3.52777767px;line-height:0.30000001;font-family:'DejaVu Sans';-inkscape-font-specification:'DejaVu Sans Semi-Condensed';fill:#ff6600;stroke-width:0.26458332"
         d="m -69.420564,-209.29013 q -0.241157,0 -0.363458,0.26527 -0.122301,0.26355 -0.122301,0.79409 0,0.52883 0.122301,0.7941 0.122301,0.26355 0.363458,0.26355 0.242879,0 0.363457,-0.26355 0.122301,-0.26527 0.122301,-0.7941 0,-0.53054 -0.122301,-0.79409 -0.120578,-0.26527 -0.363457,-0.26527 z m 0,-0.27561 q 0.389295,0 0.594278,0.34279 0.204984,0.34106 0.204984,0.99218 0,0.64941 -0.204984,0.99219 -0.204983,0.34107 -0.594278,0.34107 -0.389296,0 -0.594279,-0.34107 -0.204984,-0.34278 -0.204984,-0.99219 0,-0.65112 0.204984,-0.99218 0.204983,-0.34279 0.594279,-0.34279 z" />
      <path
         id="path7133"
         style="font-style:normal;font-variant:normal;font-weight:normal;font-stretch:semi-condensed;font-size:3.52777767px;line-height:0.30000001;font-family:'DejaVu Sans';-inkscape-font-specification:'DejaVu Sans Semi-Condensed';fill:#ff6600;stroke-width:0.26458332"
         d="m -68.071809,-207.38499 h 0.327284 v 0.43752 h -0.327284 z" />
      <path
         id="path7135"
         style="font-style:normal;font-variant:normal;font-weight:normal;font-stretch:semi-condensed;font-size:3.52777767px;line-height:0.30000001;font-family:'DejaVu Sans';-inkscape-font-specification:'DejaVu Sans Semi-Condensed';fill:#ff6600;stroke-width:0.26458332"
         d="m -66.395771,-209.29013 q -0.241157,0 -0.363457,0.26527 -0.122301,0.26355 -0.122301,0.79409 0,0.52883 0.122301,0.7941 0.1223,0.26355 0.363457,0.26355 0.242879,0 0.363458,-0.26355 0.122301,-0.26527 0.122301,-0.7941 0,-0.53054 -0.122301,-0.79409 -0.120579,-0.26527 -0.363458,-0.26527 z m 0,-0.27561 q 0.389296,0 0.594279,0.34279 0.204983,0.34106 0.204983,0.99218 0,0.64941 -0.204983,0.99219 -0.204983,0.34107 -0.594279,0.34107 -0.389296,0 -0.594279,-0.34107 -0.204983,-0.34278 -0.204983,-0.99219 0,-0.65112 0.204983,-0.99218 0.204983,-0.34279 0.594279,-0.34279 z" />
      <path
         id="path7137"
         style="font-style:normal;font-variant:normal;font-weight:normal;font-stretch:semi-condensed;font-size:3.52777767px;line-height:0.30000001;font-family:'DejaVu Sans';-inkscape-font-specification:'DejaVu Sans Semi-Condensed';fill:#ff6600;stroke-width:0.26458332"
         d="m -65.047014,-207.38499 h 0.327284 v 0.43752 h -0.327284 z" />
      <path
         id="path7139"
         style="font-style:normal;font-variant:normal;font-weight:normal;font-stretch:semi-condensed;font-size:3.52777767px;line-height:0.30000001;font-family:'DejaVu Sans';-inkscape-font-specification:'DejaVu Sans Semi-Condensed';fill:#ff6600;stroke-width:0.26458332"
         d="m -63.370977,-209.29013 q -0.241157,0 -0.363458,0.26527 -0.122301,0.26355 -0.122301,0.79409 0,0.52883 0.122301,0.7941 0.122301,0.26355 0.363458,0.26355 0.242879,0 0.363457,-0.26355 0.122301,-0.26527 0.122301,-0.7941 0,-0.53054 -0.122301,-0.79409 -0.120578,-0.26527 -0.363457,-0.26527 z m 0,-0.27561 q 0.389296,0 0.594279,0.34279 0.204983,0.34106 0.204983,0.99218 0,0.64941 -0.204983,0.99219 -0.204983,0.34107 -0.594279,0.34107 -0.389296,0 -0.594279,-0.34107 -0.204983,-0.34278 -0.204983,-0.99219 0,-0.65112 0.204983,-0.99218 0.204983,-0.34279 0.594279,-0.34279 z" />
      <path
         id="path7141"
         style="font-style:normal;font-variant:normal;font-weight:normal;font-stretch:semi-condensed;font-size:3.52777767px;line-height:0.30000001;font-family:'DejaVu Sans';-inkscape-font-specification:'DejaVu Sans Semi-Condensed';fill:#ff6600;stroke-width:0.26458332"
         d="m -61.55541,-209.51923 h 0.263549 l -0.806152,2.89905 h -0.26355 z" />
      <path
         id="path7143"
         style="font-style:normal;font-variant:normal;font-weight:normal;font-stretch:semi-condensed;font-size:3.52777767px;line-height:0.30000001;font-family:'DejaVu Sans';-inkscape-font-specification:'DejaVu Sans Semi-Condensed';fill:#ff6600;stroke-width:0.26458332"
         d="m -60.28417,-208.16875 q -0.223931,0 -0.3514,0.13263 -0.127468,0.13264 -0.127468,0.36518 0,0.23255 0.127468,0.36518 0.127469,0.13264 0.3514,0.13264 0.223931,0 0.3514,-0.13264 0.129191,-0.13436 0.129191,-0.36518 0,-0.23254 -0.129191,-0.36518 -0.127469,-0.13263 -0.3514,-0.13263 z m -0.313504,-0.14814 q -0.201538,-0.0551 -0.313503,-0.20843 -0.111966,-0.15331 -0.111966,-0.37379 0,-0.30834 0.196371,-0.48748 0.198092,-0.17915 0.542602,-0.17915 0.346232,0 0.542603,0.17915 0.19637,0.17914 0.19637,0.48748 0,0.22048 -0.111966,0.37379 -0.111965,0.15331 -0.311781,0.20843 0.225654,0.0586 0.3514,0.2291 0.127469,0.17053 0.127469,0.41685 0,0.3738 -0.206706,0.57361 -0.204983,0.19982 -0.587389,0.19982 -0.382406,0 -0.589111,-0.19982 -0.204983,-0.19981 -0.204983,-0.57361 0,-0.24632 0.127468,-0.41685 0.127469,-0.17054 0.353122,-0.2291 z m -0.113688,-0.5495 q 0,0.19982 0.111966,0.31179 0.111965,0.11196 0.315226,0.11196 0.201538,0 0.315226,-0.11196 0.113688,-0.11197 0.113688,-0.31179 0,-0.19981 -0.113688,-0.31178 -0.113688,-0.11196 -0.315226,-0.11196 -0.203261,0 -0.315226,0.11196 -0.111966,0.11197 -0.111966,0.31178 z" />
    </g>
    <g
       id="text6931"
       style="font-style:normal;font-weight:normal;font-size:10.58333302px;line-height:0.30000001;font-family:sans-serif;letter-spacing:0px;word-spacing:0px;fill:#000000;fill-opacity:1;stroke:none;stroke-width:0.26458332"
       aria-label="Renater
244.0.0.0/8">
      <path
         id="path7052"
         style="font-style:normal;font-variant:normal;font-weight:bold;font-stretch:normal;font-size:4.23333311px;line-height:0.30000001;font-family:'DejaVu Sans';-inkscape-font-specification:'DejaVu Sans Bold';stroke-width:0.26458332"
         d="m 8.3411473,-225.84156 q 0.250114,0 0.3576009,-0.093 0.1095541,-0.093 0.1095541,-0.30593 0,-0.21084 -0.1095541,-0.30179 -0.1074869,-0.0909 -0.3576009,-0.0909 H 8.0062841 v 0.79169 z m -0.3348632,0.54983 v 1.16789 h -0.795817 v -3.08612 h 1.2154296 q 0.6097819,0 0.8929687,0.20464 0.2852539,0.20464 0.2852539,0.64699 0,0.30593 -0.1488281,0.5023 -0.1467611,0.19637 -0.4444173,0.28938 0.1632975,0.0372 0.291455,0.1695 0.1302246,0.13023 0.2625163,0.39688 l 0.4320149,0.87643 H 9.1493667 l -0.3762044,-0.76688 q -0.1136882,-0.23151 -0.2315104,-0.31626 -0.1157552,-0.0848 -0.3100586,-0.0848 z" />
      <path
         id="path7054"
         style="font-style:normal;font-variant:normal;font-weight:bold;font-stretch:normal;font-size:4.23333311px;line-height:0.30000001;font-family:'DejaVu Sans';-inkscape-font-specification:'DejaVu Sans Bold';stroke-width:0.26458332"
         d="m 12.746046,-225.28759 v 0.21084 h -1.730127 q 0.02687,0.26045 0.188103,0.39067 0.16123,0.13022 0.450618,0.13022 0.233577,0 0.47749,-0.0682 0.24598,-0.0703 0.504362,-0.21084 v 0.57051 q -0.262516,0.0992 -0.525032,0.14883 -0.262517,0.0517 -0.525033,0.0517 -0.628385,0 -0.977718,-0.31832 -0.347266,-0.3204 -0.347266,-0.89711 0,-0.56637 0.341065,-0.8909 0.343131,-0.32452 0.942578,-0.32452 0.545703,0 0.872298,0.32866 0.328662,0.32866 0.328662,0.8785 z m -0.760677,-0.24598 q 0,-0.21084 -0.124023,-0.339 -0.121957,-0.13023 -0.320394,-0.13023 -0.214974,0 -0.349333,0.12196 -0.134359,0.11989 -0.167431,0.34727 z" />
      <path
         id="path7056"
         style="font-style:normal;font-variant:normal;font-weight:bold;font-stretch:normal;font-size:4.23333311px;line-height:0.30000001;font-family:'DejaVu Sans';-inkscape-font-specification:'DejaVu Sans Bold';stroke-width:0.26458332"
         d="m 15.631658,-225.53357 v 1.40973 h -0.74414 v -0.22944 -0.84956 q 0,-0.29973 -0.01447,-0.41342 -0.0124,-0.11368 -0.04548,-0.16743 -0.04341,-0.0723 -0.117822,-0.11162 -0.07441,-0.0413 -0.169499,-0.0413 -0.23151,0 -0.363802,0.17983 -0.132292,0.17777 -0.132292,0.49403 v 1.13895 h -0.740006 v -2.3151 h 0.740006 v 0.33899 q 0.167432,-0.20257 0.355534,-0.29765 0.188102,-0.0971 0.415479,-0.0971 0.401009,0 0.607714,0.24597 0.208773,0.24598 0.208773,0.71521 z" />
      <path
         id="path7058"
         style="font-style:normal;font-variant:normal;font-weight:bold;font-stretch:normal;font-size:4.23333311px;line-height:0.30000001;font-family:'DejaVu Sans';-inkscape-font-specification:'DejaVu Sans Bold';stroke-width:0.26458332"
         d="m 17.359718,-225.16564 q -0.231511,0 -0.349333,0.0786 -0.115755,0.0785 -0.115755,0.23151 0,0.14056 0.09302,0.22118 0.09508,0.0785 0.262516,0.0785 0.208773,0 0.351399,-0.14882 0.142627,-0.1509 0.142627,-0.37621 v -0.0847 z m 1.13068,-0.27905 v 1.32085 H 17.74419 v -0.34313 q -0.148828,0.21084 -0.334863,0.30799 -0.186035,0.0951 -0.452685,0.0951 -0.359668,0 -0.584978,-0.20877 -0.223242,-0.21084 -0.223242,-0.5457 0,-0.40721 0.279053,-0.59738 0.28112,-0.19017 0.880566,-0.19017 h 0.436149 v -0.0579 q 0,-0.1757 -0.138492,-0.25631 -0.138493,-0.0827 -0.432015,-0.0827 -0.237712,0 -0.442351,0.0476 -0.204638,0.0475 -0.380338,0.14262 v -0.5643 q 0.237711,-0.0579 0.47749,-0.0868 0.239779,-0.031 0.479557,-0.031 0.626319,0 0.903304,0.24804 0.279053,0.24598 0.279053,0.80202 z" />
      <path
         id="path7060"
         style="font-style:normal;font-variant:normal;font-weight:bold;font-stretch:normal;font-size:4.23333311px;line-height:0.30000001;font-family:'DejaVu Sans';-inkscape-font-specification:'DejaVu Sans Bold';stroke-width:0.26458332"
         d="m 19.991082,-227.09627 v 0.65733 h 0.762744 v 0.52916 h -0.762744 v 0.98185 q 0,0.16123 0.06408,0.21911 0.06408,0.0558 0.254248,0.0558 h 0.380338 v 0.52917 h -0.634586 q -0.438216,0 -0.622185,-0.1819 -0.181901,-0.18397 -0.181901,-0.62219 v -0.98185 H 18.88314 v -0.52916 h 0.367936 v -0.65733 z" />
      <path
         id="path7062"
         style="font-style:normal;font-variant:normal;font-weight:bold;font-stretch:normal;font-size:4.23333311px;line-height:0.30000001;font-family:'DejaVu Sans';-inkscape-font-specification:'DejaVu Sans Bold';stroke-width:0.26458332"
         d="m 23.519548,-225.28759 v 0.21084 h -1.730127 q 0.02687,0.26045 0.188103,0.39067 0.16123,0.13022 0.450618,0.13022 0.233578,0 0.47749,-0.0682 0.24598,-0.0703 0.504362,-0.21084 v 0.57051 q -0.262516,0.0992 -0.525032,0.14883 -0.262517,0.0517 -0.525033,0.0517 -0.628385,0 -0.977718,-0.31832 -0.347265,-0.3204 -0.347265,-0.89711 0,-0.56637 0.341064,-0.8909 0.343131,-0.32452 0.942578,-0.32452 0.545703,0 0.872298,0.32866 0.328662,0.32866 0.328662,0.8785 z m -0.760677,-0.24598 q 0,-0.21084 -0.124023,-0.339 -0.121957,-0.13023 -0.320394,-0.13023 -0.214974,0 -0.349333,0.12196 -0.134358,0.11989 -0.167431,0.34727 z" />
      <path
         id="path7064"
         style="font-style:normal;font-variant:normal;font-weight:bold;font-stretch:normal;font-size:4.23333311px;line-height:0.30000001;font-family:'DejaVu Sans';-inkscape-font-specification:'DejaVu Sans Bold';stroke-width:0.26458332"
         d="m 25.797445,-225.80849 q -0.09715,-0.0455 -0.194304,-0.0661 -0.09508,-0.0227 -0.192236,-0.0227 -0.285254,0 -0.440283,0.18397 -0.152962,0.1819 -0.152962,0.52297 v 1.0666 h -0.740007 v -2.3151 h 0.740007 v 0.38033 q 0.142627,-0.22737 0.326595,-0.33073 0.186035,-0.10541 0.444417,-0.10541 0.03721,0 0.08062,0.004 0.04341,0.002 0.126091,0.0124 z" />
      <path
         id="path7066"
         style="font-style:normal;font-variant:normal;font-weight:normal;font-stretch:semi-condensed;font-size:3.52777767px;line-height:0.30000001;font-family:'DejaVu Sans';-inkscape-font-specification:'DejaVu Sans Semi-Condensed';fill:#ff6600;stroke-width:0.26458332"
         d="m 7.4316422,-220.54466 h 1.0920952 v 0.29283 H 7.0544043 v -0.29283 q 0.1774224,-0.20498 0.4857584,-0.54949 0.308336,-0.34624 0.3875732,-0.44614 0.1498617,-0.18776 0.2084283,-0.31695 0.060289,-0.13092 0.060289,-0.25666 0,-0.20499 -0.1291911,-0.33418 -0.1291911,-0.12919 -0.3376194,-0.12919 -0.1464165,0 -0.3100585,0.0568 -0.1636421,0.0568 -0.3496772,0.17225 v -0.3514 q 0.1894802,-0.0844 0.3531223,-0.12747 0.1653645,-0.0431 0.3014458,-0.0431 0.3600125,0 0.5736084,0.19981 0.2135959,0.19982 0.2135959,0.53399 0,0.15848 -0.053399,0.30145 -0.053399,0.14125 -0.1946479,0.33417 -0.039619,0.05 -0.2480468,0.28939 -0.2067058,0.23771 -0.5839437,0.66663 z" />
      <path
         id="path7068"
         style="font-style:normal;font-variant:normal;font-weight:normal;font-stretch:semi-condensed;font-size:3.52777767px;line-height:0.30000001;font-family:'DejaVu Sans';-inkscape-font-specification:'DejaVu Sans Semi-Condensed';fill:#ff6600;stroke-width:0.26458332"
         d="m 10.041302,-222.52042 -0.7906493,1.37287 h 0.7906493 z m -0.082682,-0.30317 h 0.394463 v 1.67604 h 0.329007 v 0.28938 h -0.329007 v 0.60634 h -0.311781 v -0.60634 H 8.9957156 v -0.33589 z" />
      <path
         id="path7070"
         style="font-style:normal;font-variant:normal;font-weight:normal;font-stretch:semi-condensed;font-size:3.52777767px;line-height:0.30000001;font-family:'DejaVu Sans';-inkscape-font-specification:'DejaVu Sans Semi-Condensed';fill:#ff6600;stroke-width:0.26458332"
         d="m 12.060128,-222.52042 -0.790649,1.37287 h 0.790649 z m -0.08268,-0.30317 h 0.394463 v 1.67604 h 0.329007 v 0.28938 h -0.329007 v 0.60634 H 12.06013 v -0.60634 h -1.045586 v -0.33589 z" />
      <path
         id="path7072"
         style="font-style:normal;font-variant:normal;font-weight:normal;font-stretch:semi-condensed;font-size:3.52777767px;line-height:0.30000001;font-family:'DejaVu Sans';-inkscape-font-specification:'DejaVu Sans Semi-Condensed';fill:#ff6600;stroke-width:0.26458332"
         d="m 13.21768,-220.68936 h 0.327284 v 0.43753 H 13.21768 Z" />
      <path
         id="path7074"
         style="font-style:normal;font-variant:normal;font-weight:normal;font-stretch:semi-condensed;font-size:3.52777767px;line-height:0.30000001;font-family:'DejaVu Sans';-inkscape-font-specification:'DejaVu Sans Semi-Condensed';fill:#ff6600;stroke-width:0.26458332"
         d="m 14.893719,-222.59449 q -0.241157,0 -0.363458,0.26527 -0.122301,0.26355 -0.122301,0.79409 0,0.52883 0.122301,0.7941 0.122301,0.26355 0.363458,0.26355 0.242879,0 0.363457,-0.26355 0.122301,-0.26527 0.122301,-0.7941 0,-0.53054 -0.122301,-0.79409 -0.120578,-0.26527 -0.363457,-0.26527 z m 0,-0.27561 q 0.389296,0 0.594279,0.34279 0.204983,0.34106 0.204983,0.99218 0,0.6494 -0.204983,0.99219 -0.204983,0.34107 -0.594279,0.34107 -0.389296,0 -0.594279,-0.34107 -0.204983,-0.34279 -0.204983,-0.99219 0,-0.65112 0.204983,-0.99218 0.204983,-0.34279 0.594279,-0.34279 z" />
      <path
         id="path7076"
         style="font-style:normal;font-variant:normal;font-weight:normal;font-stretch:semi-condensed;font-size:3.52777767px;line-height:0.30000001;font-family:'DejaVu Sans';-inkscape-font-specification:'DejaVu Sans Semi-Condensed';fill:#ff6600;stroke-width:0.26458332"
         d="m 16.242474,-220.68936 h 0.327284 v 0.43753 h -0.327284 z" />
      <path
         id="path7078"
         style="font-style:normal;font-variant:normal;font-weight:normal;font-stretch:semi-condensed;font-size:3.52777767px;line-height:0.30000001;font-family:'DejaVu Sans';-inkscape-font-specification:'DejaVu Sans Semi-Condensed';fill:#ff6600;stroke-width:0.26458332"
         d="m 17.918513,-222.59449 q -0.241156,0 -0.363457,0.26527 -0.122301,0.26355 -0.122301,0.79409 0,0.52883 0.122301,0.7941 0.122301,0.26355 0.363457,0.26355 0.24288,0 0.363458,-0.26355 0.122301,-0.26527 0.122301,-0.7941 0,-0.53054 -0.122301,-0.79409 -0.120578,-0.26527 -0.363458,-0.26527 z m 0,-0.27561 q 0.389296,0 0.594279,0.34279 0.204984,0.34106 0.204984,0.99218 0,0.6494 -0.204984,0.99219 -0.204983,0.34107 -0.594279,0.34107 -0.389295,0 -0.594278,-0.34107 -0.204984,-0.34279 -0.204984,-0.99219 0,-0.65112 0.204984,-0.99218 0.204983,-0.34279 0.594278,-0.34279 z" />
      <path
         id="path7080"
         style="font-style:normal;font-variant:normal;font-weight:normal;font-stretch:semi-condensed;font-size:3.52777767px;line-height:0.30000001;font-family:'DejaVu Sans';-inkscape-font-specification:'DejaVu Sans Semi-Condensed';fill:#ff6600;stroke-width:0.26458332"
         d="m 19.267268,-220.68936 h 0.327284 v 0.43753 h -0.327284 z" />
      <path
         id="path7082"
         style="font-style:normal;font-variant:normal;font-weight:normal;font-stretch:semi-condensed;font-size:3.52777767px;line-height:0.30000001;font-family:'DejaVu Sans';-inkscape-font-specification:'DejaVu Sans Semi-Condensed';fill:#ff6600;stroke-width:0.26458332"
         d="m 20.943307,-222.59449 q -0.241157,0 -0.363457,0.26527 -0.122301,0.26355 -0.122301,0.79409 0,0.52883 0.122301,0.7941 0.1223,0.26355 0.363457,0.26355 0.242879,0 0.363458,-0.26355 0.122301,-0.26527 0.122301,-0.7941 0,-0.53054 -0.122301,-0.79409 -0.120579,-0.26527 -0.363458,-0.26527 z m 0,-0.27561 q 0.389296,0 0.594279,0.34279 0.204983,0.34106 0.204983,0.99218 0,0.6494 -0.204983,0.99219 -0.204983,0.34107 -0.594279,0.34107 -0.389296,0 -0.594279,-0.34107 -0.204983,-0.34279 -0.204983,-0.99219 0,-0.65112 0.204983,-0.99218 0.204983,-0.34279 0.594279,-0.34279 z" />
      <path
         id="path7084"
         style="font-style:normal;font-variant:normal;font-weight:normal;font-stretch:semi-condensed;font-size:3.52777767px;line-height:0.30000001;font-family:'DejaVu Sans';-inkscape-font-specification:'DejaVu Sans Semi-Condensed';fill:#ff6600;stroke-width:0.26458332"
         d="m 22.758872,-222.82359 h 0.26355 l -0.806153,2.89905 H 21.95272 Z" />
      <path
         id="path7086"
         style="font-style:normal;font-variant:normal;font-weight:normal;font-stretch:semi-condensed;font-size:3.52777767px;line-height:0.30000001;font-family:'DejaVu Sans';-inkscape-font-specification:'DejaVu Sans Semi-Condensed';fill:#ff6600;stroke-width:0.26458332"
         d="m 24.030112,-221.47311 q -0.223931,0 -0.351399,0.13263 -0.127469,0.13264 -0.127469,0.36518 0,0.23255 0.127469,0.36518 0.127468,0.13264 0.351399,0.13264 0.223932,0 0.3514,-0.13264 0.129191,-0.13436 0.129191,-0.36518 0,-0.23254 -0.129191,-0.36518 -0.127468,-0.13263 -0.3514,-0.13263 z m -0.313503,-0.14814 q -0.201538,-0.0551 -0.313504,-0.20843 -0.111966,-0.15331 -0.111966,-0.3738 0,-0.30833 0.196371,-0.48748 0.198093,-0.17914 0.542602,-0.17914 0.346233,0 0.542603,0.17914 0.19637,0.17915 0.19637,0.48748 0,0.22049 -0.111965,0.3738 -0.111966,0.1533 -0.311781,0.20843 0.225653,0.0586 0.351399,0.22909 0.127469,0.17054 0.127469,0.41686 0,0.37379 -0.206706,0.57361 -0.204983,0.19982 -0.587389,0.19982 -0.382405,0 -0.589111,-0.19982 -0.204983,-0.19982 -0.204983,-0.57361 0,-0.24632 0.127468,-0.41686 0.127469,-0.17053 0.353123,-0.22909 z m -0.113688,-0.5495 q 0,0.19982 0.111965,0.31178 0.111966,0.11197 0.315226,0.11197 0.201539,0 0.315227,-0.11197 0.113688,-0.11196 0.113688,-0.31178 0,-0.19981 -0.113688,-0.31178 -0.113688,-0.11196 -0.315227,-0.11196 -0.20326,0 -0.315226,0.11196 -0.111965,0.11197 -0.111965,0.31178 z" />
    </g>
    <g
       id="text6939"
       style="font-style:normal;font-weight:normal;font-size:10.58333302px;line-height:0.30000001;font-family:sans-serif;letter-spacing:0px;word-spacing:0px;fill:#000000;fill-opacity:1;stroke:none;stroke-width:0.26458332"
       aria-label="Cogent
124.0.0.0/8">
      <path
         id="path7017"
         style="font-style:normal;font-variant:normal;font-weight:bold;font-stretch:normal;font-size:4.23333311px;line-height:0.30000001;font-family:'DejaVu Sans';-inkscape-font-specification:'DejaVu Sans Bold';stroke-width:0.26458332"
         d="m 3.8937259,-147.18619 q -0.2191081,0.11369 -0.4568197,0.17156 -0.2377116,0.0579 -0.4960937,0.0579 -0.7710123,0 -1.2216308,-0.42995 -0.4506185,-0.43201 -0.4506185,-1.16995 0,-0.74001 0.4506185,-1.16996 0.4506185,-0.43201 1.2216308,-0.43201 0.2583821,0 0.4960937,0.0579 0.2377116,0.0579 0.4568197,0.17156 v 0.63872 q -0.2211752,-0.15089 -0.4361491,-0.22117 -0.214974,-0.0703 -0.4526855,-0.0703 -0.4258138,0 -0.6697266,0.27285 -0.2439127,0.27285 -0.2439127,0.75241 0,0.47749 0.2439127,0.75034 0.2439128,0.27285 0.6697266,0.27285 0.2377115,0 0.4526855,-0.0703 0.2149739,-0.0703 0.4361491,-0.22117 z" />
      <path
         id="path7019"
         style="font-style:normal;font-variant:normal;font-weight:bold;font-stretch:normal;font-size:4.23333311px;line-height:0.30000001;font-family:'DejaVu Sans';-inkscape-font-specification:'DejaVu Sans Bold';stroke-width:0.26458332"
         d="m 5.6238528,-148.85844 q -0.2459798,0 -0.3762044,0.17777 -0.1281576,0.1757 -0.1281576,0.50849 0,0.3328 0.1281576,0.51057 0.1302246,0.17569 0.3762044,0.17569 0.2418457,0 0.3700032,-0.17569 0.1281576,-0.17777 0.1281576,-0.51057 0,-0.33279 -0.1281576,-0.50849 -0.1281575,-0.17777 -0.3700032,-0.17777 z m 0,-0.52917 q 0.5973795,0 0.9322428,0.32246 0.3369303,0.32246 0.3369303,0.89297 0,0.57051 -0.3369303,0.89297 -0.3348633,0.32246 -0.9322428,0.32246 -0.5994466,0 -0.938444,-0.32246 -0.3369303,-0.32246 -0.3369303,-0.89297 0,-0.57051 0.3369303,-0.89297 0.3389974,-0.32246 0.938444,-0.32246 z" />
      <path
         id="path7021"
         style="font-style:normal;font-variant:normal;font-weight:bold;font-stretch:normal;font-size:4.23333311px;line-height:0.30000001;font-family:'DejaVu Sans';-inkscape-font-specification:'DejaVu Sans Bold';stroke-width:0.26458332"
         d="m 9.0076257,-147.40943 q -0.1529622,0.20257 -0.3369303,0.29765 -0.1839681,0.0951 -0.4258138,0.0951 -0.4237467,0 -0.7007324,-0.3328 -0.2769856,-0.33486 -0.2769856,-0.85163 0,-0.51883 0.2769856,-0.84956 0.2769857,-0.33279 0.7007324,-0.33279 0.2418457,0 0.4258138,0.0951 0.1839681,0.0951 0.3369303,0.29972 v -0.34313 h 0.7441406 v 2.08153 q 0,0.5581 -0.3534668,0.85163 -0.3513997,0.29559 -1.0211262,0.29559 -0.217041,0 -0.4196126,-0.0331 -0.2025716,-0.0331 -0.4072103,-0.10128 v -0.57671 q 0.1943034,0.11162 0.3803385,0.16536 0.1860352,0.0558 0.3741374,0.0558 0.363802,0 0.5333007,-0.15916 0.1694987,-0.15916 0.1694987,-0.49816 z m -0.4878255,-1.44074 q -0.2294433,0 -0.3576009,0.1695 -0.1281575,0.16949 -0.1281575,0.47955 0,0.31833 0.1240234,0.48369 0.1240234,0.1633 0.361735,0.1633 0.2315104,0 0.359668,-0.1695 0.1281575,-0.1695 0.1281575,-0.47749 0,-0.31006 -0.1281575,-0.47955 -0.1281576,-0.1695 -0.359668,-0.1695 z" />
      <path
         id="path7023"
         style="font-style:normal;font-variant:normal;font-weight:bold;font-stretch:normal;font-size:4.23333311px;line-height:0.30000001;font-family:'DejaVu Sans';-inkscape-font-specification:'DejaVu Sans Bold';stroke-width:0.26458332"
         d="m 12.777938,-148.18045 v 0.21084 h -1.730127 q 0.02687,0.26045 0.188102,0.39068 0.161231,0.13022 0.450619,0.13022 0.233577,0 0.47749,-0.0682 0.24598,-0.0703 0.504362,-0.21084 v 0.57051 q -0.262516,0.0992 -0.525032,0.14883 -0.262517,0.0517 -0.525033,0.0517 -0.628385,0 -0.977718,-0.31833 -0.347266,-0.32039 -0.347266,-0.8971 0,-0.56637 0.341065,-0.8909 0.343131,-0.32453 0.942578,-0.32453 0.545703,0 0.872298,0.32866 0.328662,0.32867 0.328662,0.8785 z m -0.760677,-0.24598 q 0,-0.21084 -0.124023,-0.33899 -0.121957,-0.13023 -0.320394,-0.13023 -0.214974,0 -0.349333,0.12196 -0.134359,0.11989 -0.167432,0.34726 z" />
      <path
         id="path7025"
         style="font-style:normal;font-variant:normal;font-weight:bold;font-stretch:normal;font-size:4.23333311px;line-height:0.30000001;font-family:'DejaVu Sans';-inkscape-font-specification:'DejaVu Sans Bold';stroke-width:0.26458332"
         d="m 15.663549,-148.42643 v 1.40974 h -0.74414 v -0.22945 -0.84956 q 0,-0.29972 -0.01447,-0.41341 -0.0124,-0.11369 -0.04548,-0.16743 -0.04341,-0.0724 -0.117822,-0.11162 -0.07441,-0.0413 -0.169499,-0.0413 -0.23151,0 -0.363802,0.17983 -0.132292,0.17777 -0.132292,0.49403 v 1.13895 h -0.740006 v -2.31511 h 0.740006 v 0.339 q 0.167432,-0.20257 0.355534,-0.29766 0.188103,-0.0971 0.415479,-0.0971 0.401009,0 0.607715,0.24598 0.208772,0.24598 0.208772,0.7152 z" />
      <path
         id="path7027"
         style="font-style:normal;font-variant:normal;font-weight:bold;font-stretch:normal;font-size:4.23333311px;line-height:0.30000001;font-family:'DejaVu Sans';-inkscape-font-specification:'DejaVu Sans Bold';stroke-width:0.26458332"
         d="m 17.162166,-149.98912 v 0.65732 h 0.762744 v 0.52917 h -0.762744 v 0.98185 q 0,0.16123 0.06408,0.21911 0.06408,0.0558 0.254248,0.0558 h 0.380339 v 0.52917 h -0.634587 q -0.438216,0 -0.622184,-0.1819 -0.181901,-0.18397 -0.181901,-0.62219 v -0.98185 h -0.367936 v -0.52917 h 0.367936 v -0.65732 z" />
      <path
         id="path7029"
         style="font-style:normal;font-variant:normal;font-weight:normal;font-stretch:semi-condensed;font-size:3.52777767px;line-height:0.30000001;font-family:'DejaVu Sans';-inkscape-font-specification:'DejaVu Sans Semi-Condensed';fill:#ff6600;stroke-width:0.26458332"
         d="m 1.4521868,-143.43751 h 0.5115967 v -1.96199 l -0.5581055,0.12403 v -0.31695 l 0.5546604,-0.12403 h 0.3135037 v 2.27894 h 0.5115966 v 0.29283 H 1.4521868 Z" />
      <path
         id="path7031"
         style="font-style:normal;font-variant:normal;font-weight:normal;font-stretch:semi-condensed;font-size:3.52777767px;line-height:0.30000001;font-family:'DejaVu Sans';-inkscape-font-specification:'DejaVu Sans Semi-Condensed';fill:#ff6600;stroke-width:0.26458332"
         d="m 3.6863313,-143.43751 h 1.0920952 v 0.29283 H 3.3090933 v -0.29283 q 0.1774225,-0.20499 0.4857585,-0.5495 0.308336,-0.34623 0.3875732,-0.44614 0.1498617,-0.18775 0.2084283,-0.31695 0.060289,-0.13091 0.060289,-0.25666 0,-0.20498 -0.1291911,-0.33417 -0.1291911,-0.12919 -0.3376194,-0.12919 -0.1464165,0 -0.3100585,0.0568 -0.1636421,0.0568 -0.3496772,0.17226 v -0.3514 q 0.1894802,-0.0844 0.3531223,-0.12747 0.1653645,-0.0431 0.3014458,-0.0431 0.3600125,0 0.5736084,0.19981 0.2135959,0.19982 0.2135959,0.53399 0,0.15848 -0.053399,0.30145 -0.053399,0.14125 -0.1946479,0.33417 -0.039619,0.05 -0.2480468,0.28939 -0.2067058,0.23771 -0.5839437,0.66663 z" />
      <path
         id="path7033"
         style="font-style:normal;font-variant:normal;font-weight:normal;font-stretch:semi-condensed;font-size:3.52777767px;line-height:0.30000001;font-family:'DejaVu Sans';-inkscape-font-specification:'DejaVu Sans Semi-Condensed';fill:#ff6600;stroke-width:0.26458332"
         d="m 6.2959912,-145.41328 -0.7906494,1.37287 h 0.7906494 z m -0.082682,-0.30317 h 0.3944634 v 1.67604 h 0.3290066 v 0.28939 H 6.6077723 v 0.60634 H 6.2959912 v -0.60634 H 5.2504047 v -0.3359 z" />
      <path
         id="path7035"
         style="font-style:normal;font-variant:normal;font-weight:normal;font-stretch:semi-condensed;font-size:3.52777767px;line-height:0.30000001;font-family:'DejaVu Sans';-inkscape-font-specification:'DejaVu Sans Semi-Condensed';fill:#ff6600;stroke-width:0.26458332"
         d="m 7.4535433,-143.58221 h 0.3272841 v 0.43753 H 7.4535433 Z" />
      <path
         id="path7037"
         style="font-style:normal;font-variant:normal;font-weight:normal;font-stretch:semi-condensed;font-size:3.52777767px;line-height:0.30000001;font-family:'DejaVu Sans';-inkscape-font-specification:'DejaVu Sans Semi-Condensed';fill:#ff6600;stroke-width:0.26458332"
         d="m 9.129582,-145.48735 q -0.2411567,0 -0.3634576,0.26528 -0.1223009,0.26355 -0.1223009,0.79409 0,0.52882 0.1223009,0.7941 0.1223009,0.26354 0.3634576,0.26354 0.2428792,0 0.3634576,-0.26354 0.1223008,-0.26528 0.1223008,-0.7941 0,-0.53054 -0.1223008,-0.79409 -0.1205784,-0.26528 -0.3634576,-0.26528 z m 0,-0.2756 q 0.3892958,0 0.5942789,0.34278 0.2049832,0.34107 0.2049832,0.99219 0,0.6494 -0.2049832,0.99219 -0.2049831,0.34106 -0.5942789,0.34106 -0.3892958,0 -0.594279,-0.34106 -0.2049831,-0.34279 -0.2049831,-0.99219 0,-0.65112 0.2049831,-0.99219 0.2049832,-0.34278 0.594279,-0.34278 z" />
      <path
         id="path7039"
         style="font-style:normal;font-variant:normal;font-weight:normal;font-stretch:semi-condensed;font-size:3.52777767px;line-height:0.30000001;font-family:'DejaVu Sans';-inkscape-font-specification:'DejaVu Sans Semi-Condensed';fill:#ff6600;stroke-width:0.26458332"
         d="m 10.478337,-143.58221 h 0.327284 v 0.43753 h -0.327284 z" />
      <path
         id="path7041"
         style="font-style:normal;font-variant:normal;font-weight:normal;font-stretch:semi-condensed;font-size:3.52777767px;line-height:0.30000001;font-family:'DejaVu Sans';-inkscape-font-specification:'DejaVu Sans Semi-Condensed';fill:#ff6600;stroke-width:0.26458332"
         d="m 12.154377,-145.48735 q -0.241157,0 -0.363458,0.26528 -0.122301,0.26355 -0.122301,0.79409 0,0.52882 0.122301,0.7941 0.122301,0.26354 0.363458,0.26354 0.242879,0 0.363457,-0.26354 0.122301,-0.26528 0.122301,-0.7941 0,-0.53054 -0.122301,-0.79409 -0.120578,-0.26528 -0.363457,-0.26528 z m 0,-0.2756 q 0.389295,0 0.594279,0.34278 0.204983,0.34107 0.204983,0.99219 0,0.6494 -0.204983,0.99219 -0.204984,0.34106 -0.594279,0.34106 -0.389296,0 -0.594279,-0.34106 -0.204984,-0.34279 -0.204984,-0.99219 0,-0.65112 0.204984,-0.99219 0.204983,-0.34278 0.594279,-0.34278 z" />
      <path
         id="path7043"
         style="font-style:normal;font-variant:normal;font-weight:normal;font-stretch:semi-condensed;font-size:3.52777767px;line-height:0.30000001;font-family:'DejaVu Sans';-inkscape-font-specification:'DejaVu Sans Semi-Condensed';fill:#ff6600;stroke-width:0.26458332"
         d="m 13.503131,-143.58221 h 0.327284 v 0.43753 h -0.327284 z" />
      <path
         id="path7045"
         style="font-style:normal;font-variant:normal;font-weight:normal;font-stretch:semi-condensed;font-size:3.52777767px;line-height:0.30000001;font-family:'DejaVu Sans';-inkscape-font-specification:'DejaVu Sans Semi-Condensed';fill:#ff6600;stroke-width:0.26458332"
         d="m 15.17917,-145.48735 q -0.241156,0 -0.363457,0.26528 -0.122301,0.26355 -0.122301,0.79409 0,0.52882 0.122301,0.7941 0.122301,0.26354 0.363457,0.26354 0.242879,0 0.363458,-0.26354 0.122301,-0.26528 0.122301,-0.7941 0,-0.53054 -0.122301,-0.79409 -0.120579,-0.26528 -0.363458,-0.26528 z m 0,-0.2756 q 0.389296,0 0.594279,0.34278 0.204983,0.34107 0.204983,0.99219 0,0.6494 -0.204983,0.99219 -0.204983,0.34106 -0.594279,0.34106 -0.389296,0 -0.594279,-0.34106 -0.204983,-0.34279 -0.204983,-0.99219 0,-0.65112 0.204983,-0.99219 0.204983,-0.34278 0.594279,-0.34278 z" />
      <path
         id="path7047"
         style="font-style:normal;font-variant:normal;font-weight:normal;font-stretch:semi-condensed;font-size:3.52777767px;line-height:0.30000001;font-family:'DejaVu Sans';-inkscape-font-specification:'DejaVu Sans Semi-Condensed';fill:#ff6600;stroke-width:0.26458332"
         d="m 16.994735,-145.71645 h 0.26355 l -0.806152,2.89905 h -0.26355 z" />
      <path
         id="path7049"
         style="font-style:normal;font-variant:normal;font-weight:normal;font-stretch:semi-condensed;font-size:3.52777767px;line-height:0.30000001;font-family:'DejaVu Sans';-inkscape-font-specification:'DejaVu Sans Semi-Condensed';fill:#ff6600;stroke-width:0.26458332"
         d="m 18.265976,-144.36597 q -0.223932,0 -0.3514,0.13264 -0.127469,0.13263 -0.127469,0.36518 0,0.23254 0.127469,0.36518 0.127468,0.13263 0.3514,0.13263 0.223931,0 0.351399,-0.13263 0.129191,-0.13436 0.129191,-0.36518 0,-0.23255 -0.129191,-0.36518 -0.127468,-0.13264 -0.351399,-0.13264 z m -0.313504,-0.14814 q -0.201538,-0.0551 -0.313504,-0.20843 -0.111965,-0.1533 -0.111965,-0.37379 0,-0.30833 0.19637,-0.48748 0.198093,-0.17914 0.542603,-0.17914 0.346232,0 0.542602,0.17914 0.19637,0.17915 0.19637,0.48748 0,0.22049 -0.111965,0.37379 -0.111966,0.15331 -0.311781,0.20843 0.225654,0.0586 0.351399,0.2291 0.127469,0.17053 0.127469,0.41686 0,0.37379 -0.206706,0.57361 -0.204983,0.19981 -0.587388,0.19981 -0.382406,0 -0.589112,-0.19981 -0.204983,-0.19982 -0.204983,-0.57361 0,-0.24633 0.127469,-0.41686 0.127468,-0.17053 0.353122,-0.2291 z m -0.113688,-0.54949 q 0,0.19982 0.111965,0.31178 0.111966,0.11197 0.315227,0.11197 0.201538,0 0.315226,-0.11197 0.113688,-0.11196 0.113688,-0.31178 0,-0.19982 -0.113688,-0.31178 -0.113688,-0.11197 -0.315226,-0.11197 -0.203261,0 -0.315227,0.11197 -0.111965,0.11196 -0.111965,0.31178 z" />
    </g>
  </g>
</svg>
