<?xml version="1.0" encoding="UTF-8" standalone="no"?>
<svg
   xmlns:dc="http://purl.org/dc/elements/1.1/"
   xmlns:cc="http://creativecommons.org/ns#"
   xmlns:rdf="http://www.w3.org/1999/02/22-rdf-syntax-ns#"
   xmlns:svg="http://www.w3.org/2000/svg"
   xmlns="http://www.w3.org/2000/svg"
   xmlns:xlink="http://www.w3.org/1999/xlink"
   width="122.00064mm"
   height="137.41687mm"
   viewBox="0 0 122.00064 137.41687"
   version="1.1"
   id="svg6072">
  <defs
     id="defs6066" />
  <metadata
     id="metadata6069">
    <rdf:RDF>
      <cc:Work
         rdf:about="">
        <dc:format>image/svg+xml</dc:format>
        <dc:type
           rdf:resource="http://purl.org/dc/dcmitype/StillImage" />
        <dc:title></dc:title>
      </cc:Work>
    </rdf:RDF>
  </metadata>
  <g
     id="layer1"
     transform="translate(96.176643,249.18729)">
    <path
       id="path6708"
       d="m -34.107317,-227.8235 5.858631,18.33185"
       style="fill:none;stroke:#38389e;stroke-width:0.56500006;stroke-linecap:butt;stroke-linejoin:miter;stroke-miterlimit:4;stroke-dasharray:none;stroke-opacity:1" />
    <path
       id="path6749"
       d="m 4.3743126,-210.02082 -32.6229986,-0.52917"
       style="fill:none;stroke:#38389e;stroke-width:0.56500006;stroke-linecap:butt;stroke-linejoin:miter;stroke-miterlimit:4;stroke-dasharray:none;stroke-opacity:1" />
    <path
       id="path6757"
       d="m -45.667295,-148.48629 16.02619,-58.88868"
       style="fill:none;stroke:#f03124;stroke-width:0.56500006;stroke-linecap:butt;stroke-linejoin:miter;stroke-miterlimit:4;stroke-dasharray:none;stroke-opacity:1" />
    <path
       style="fill:none;stroke:#f0b624;stroke-width:0.56500006;stroke-linecap:butt;stroke-linejoin:miter;stroke-miterlimit:4;stroke-dasharray:none;stroke-opacity:0.52156863"
       d="m -44.531406,-148.48629 16.02619,-58.88868"
       id="path6755" />
    <path
       id="path6753"
       d="m 4.3743126,-207.81576 -32.6229986,-0.52917"
       style="fill:none;stroke:#f03124;stroke-width:0.56500006;stroke-linecap:butt;stroke-linejoin:miter;stroke-miterlimit:4;stroke-dasharray:none;stroke-opacity:1" />
    <path
       style="fill:none;stroke:#f0b624;stroke-width:0.56500006;stroke-linecap:butt;stroke-linejoin:miter;stroke-miterlimit:4;stroke-dasharray:none;stroke-opacity:1"
       d="m 4.3743126,-208.9517 -32.6229986,-0.52917"
       id="path6751" />
    <path
       style="fill:none;stroke:#f0b624;stroke-width:0.56500006;stroke-linecap:butt;stroke-linejoin:miter;stroke-miterlimit:4;stroke-dasharray:none;stroke-opacity:1"
       d="m -9.4632707,-183.63808 0.755952,35.90774"
       id="path6745" />
    <path
       style="fill:none;stroke:#f03124;stroke-width:0.56500006;stroke-linecap:butt;stroke-linejoin:miter;stroke-miterlimit:4;stroke-dasharray:none;stroke-opacity:1"
       d="m -52.603776,-198.64643 -19.276786,30.61607"
       id="path6743" />
    <path
       id="path6720"
       d="m -51.469087,-199.43689 21.293446,-10.06554"
       style="fill:#f03124;fill-opacity:1;stroke:#f03124;stroke-width:0.56500006;stroke-linecap:butt;stroke-linejoin:miter;stroke-miterlimit:4;stroke-dasharray:none;stroke-opacity:1" />
    <path
       style="fill:#f0b624;fill-opacity:1;stroke:#f03124;stroke-width:0.56500006;stroke-linecap:butt;stroke-linejoin:miter;stroke-miterlimit:4;stroke-dasharray:none;stroke-opacity:1"
       d="m -9.7359128,-182.44071 -19.8437442,-25.3244"
       id="path6718" />
    <path
       id="path6714"
       d="m -51.334253,-198.51279 -19.276786,30.61607"
       style="fill:none;stroke:#f0b624;stroke-width:0.56500006;stroke-linecap:butt;stroke-linejoin:miter;stroke-miterlimit:4;stroke-dasharray:none;stroke-opacity:1" />
    <path
       style="fill:none;stroke:#f0b624;stroke-width:0.56500006;stroke-linecap:butt;stroke-linejoin:miter;stroke-miterlimit:4;stroke-dasharray:none;stroke-opacity:1"
       d="m -50.400015,-198.69648 21.293446,-10.06554"
       id="path6710" />
    <path
       id="path6712"
       d="m -8.8004692,-183.10891 -19.8437498,-25.3244"
       style="fill:#f0b624;fill-opacity:1;stroke:#f0b624;stroke-width:0.56500006;stroke-linecap:butt;stroke-linejoin:miter;stroke-miterlimit:4;stroke-dasharray:none;stroke-opacity:1" />
    <path
       style="opacity:1;fill:none;fill-opacity:1;stroke:#000000;stroke-width:5.68496513;stroke-miterlimit:4;stroke-dasharray:none;stroke-opacity:0.3125"
       id="path6617"
       d="m -326.57139,420.22025 -235.75339,6.17019 -123.22024,-201.08333 112.53316,-207.253524 235.75339,-6.170191 123.22024,201.083335 z"
       transform="matrix(-0.00510826,0.24547287,-0.24547287,-0.00510826,16.318193,-68.947798)" />
    <g
       id="g4524"
       transform="matrix(0.36062259,0,0,0.36062259,-46.775576,-230.21385)">
      <circle
         r="9.5548859"
         cy="58.929665"
         cx="46.972622"
         id="path4518"
         style="opacity:0.86699997;fill:none;fill-opacity:1;stroke:#d40000;stroke-width:2;stroke-miterlimit:4;stroke-dasharray:none" />
      <circle
         style="opacity:1;fill:#38389e;fill-opacity:1;stroke-width:0.19427447"
         id="circle4520"
         cx="46.972622"
         cy="58.929665"
         r="7.0158257" />
    </g>
    <path
       id="path4542"
       d="m -51.796603,-196.79164 22.489583,-10.58333"
       style="fill:none;stroke:#38389e;stroke-width:0.56500006;stroke-linecap:butt;stroke-linejoin:miter;stroke-miterlimit:4;stroke-dasharray:none;stroke-opacity:1" />
    <path
       style="fill:none;stroke:#38389e;stroke-width:0.56500006;stroke-linecap:butt;stroke-linejoin:miter;stroke-miterlimit:4;stroke-dasharray:none;stroke-opacity:1"
       d="m -50.671452,-197.38763 -19.276786,30.61607"
       id="path6700" />
    <path
       id="path6702"
       d="m -45.33321,-148.48629 -26.269346,-19.27679"
       style="fill:none;stroke:#38389e;stroke-width:0.56500006;stroke-linecap:butt;stroke-linejoin:miter;stroke-miterlimit:4;stroke-dasharray:none;stroke-opacity:1" />
    <path
       style="fill:none;stroke:#38389e;stroke-width:0.56500006;stroke-linecap:butt;stroke-linejoin:miter;stroke-miterlimit:4;stroke-dasharray:none;stroke-opacity:1"
       d="m -8.1376677,-184.16725 -19.8437503,-25.3244"
       id="path6704" />
    <path
       id="path6706"
       d="m -8.4049373,-183.63808 0.755952,35.90774"
       style="fill:none;stroke:#38389e;stroke-width:0.56500006;stroke-linecap:butt;stroke-linejoin:miter;stroke-miterlimit:4;stroke-dasharray:none;stroke-opacity:1" />
    <use
       x="0"
       y="0"
       xlink:href="#g4524"
       id="use6655"
       transform="translate(-41.766369,41.199405)"
       width="100%"
       height="100%" />
    <use
       x="0"
       y="0"
       xlink:href="#g4524"
       id="use6663"
       transform="translate(-15.497023,60.47619)"
       width="100%"
       height="100%" />
    <use
       x="0"
       y="0"
       xlink:href="#g4524"
       id="use6671"
       transform="translate(19.84375,25.324405)"
       width="100%"
       height="100%" />
    <use
       x="0"
       y="0"
       xlink:href="#g4524"
       id="use6673"
       transform="translate(20.599702,61.232143)"
       width="100%"
       height="100%" />
    <use
       x="0"
       y="0"
       xlink:href="#g4524"
       id="use6675"
       transform="translate(-5.858631,-18.331845)"
       width="100%"
       height="100%" />
    <use
       x="0"
       y="0"
       xlink:href="#g4524"
       id="use6677"
       transform="translate(-22.489583,10.583333)"
       width="100%"
       height="100%" />
    <use
       x="0"
       y="0"
       xlink:href="#g4524"
       id="use6747"
       transform="translate(34.2105)"
       width="100%"
       height="100%" />
    <g
       id="text6784"
       style="font-style:normal;font-weight:normal;font-size:10.58333302px;line-height:1.25;font-family:sans-serif;letter-spacing:0px;word-spacing:0px;fill:#000000;fill-opacity:1;stroke:none;stroke-width:0.26458332"
       aria-label="Paris">
      <path
         id="path8257"
         style="font-style:normal;font-variant:normal;font-weight:normal;font-stretch:normal;font-size:4.23333311px;font-family:'DejaVu Sans';-inkscape-font-specification:'DejaVu Sans';stroke-width:0.26458332"
         d="m -41.462378,-215.29235 v 1.15962 h 0.525032 q 0.291455,0 0.450619,-0.15089 0.159163,-0.1509 0.159163,-0.42995 0,-0.27699 -0.159163,-0.42788 -0.159164,-0.1509 -0.450619,-0.1509 z m -0.417546,-0.34313 h 0.942578 q 0.518831,0 0.783415,0.23565 0.26665,0.23357 0.26665,0.68626 0,0.45682 -0.26665,0.6904 -0.264584,0.23357 -0.783415,0.23357 h -0.525032 v 1.24024 h -0.417546 z" />
      <path
         id="path8259"
         style="font-style:normal;font-variant:normal;font-weight:normal;font-stretch:normal;font-size:4.23333311px;font-family:'DejaVu Sans';-inkscape-font-specification:'DejaVu Sans';stroke-width:0.26458332"
         d="m -38.479615,-213.71312 q -0.460954,0 -0.638721,0.10542 -0.177767,0.10542 -0.177767,0.35967 0,0.20257 0.132292,0.32246 0.134359,0.11783 0.363802,0.11783 0.31626,0 0.506429,-0.22325 0.192237,-0.22531 0.192237,-0.59738 v -0.0848 z m 0.75861,-0.15709 v 1.32085 h -0.380338 v -0.3514 q -0.130225,0.21084 -0.324528,0.31212 -0.194304,0.0992 -0.475424,0.0992 -0.355533,0 -0.566373,-0.19844 -0.208773,-0.2005 -0.208773,-0.53536 0,-0.39068 0.260449,-0.58911 0.262516,-0.19844 0.781348,-0.19844 h 0.533301 v -0.0372 q 0,-0.26251 -0.173633,-0.40514 -0.171566,-0.1447 -0.483692,-0.1447 -0.198437,0 -0.386539,0.0476 -0.188103,0.0475 -0.361735,0.14262 v -0.3514 q 0.208772,-0.0806 0.405143,-0.11989 0.19637,-0.0413 0.382405,-0.0413 0.502295,0 0.750342,0.26045 0.248047,0.26045 0.248047,0.78962 z" />
      <path
         id="path8261"
         style="font-style:normal;font-variant:normal;font-weight:normal;font-stretch:normal;font-size:4.23333311px;font-family:'DejaVu Sans';-inkscape-font-specification:'DejaVu Sans';stroke-width:0.26458332"
         d="m -35.594003,-214.50893 q -0.06408,-0.0372 -0.14056,-0.0538 -0.07441,-0.0186 -0.165364,-0.0186 -0.322461,0 -0.496094,0.21084 -0.171566,0.20877 -0.171566,0.60151 v 1.21957 h -0.382405 v -2.31511 h 0.382405 v 0.35967 q 0.11989,-0.21084 0.312126,-0.31212 0.192236,-0.10336 0.467155,-0.10336 0.03927,0 0.08682,0.006 0.04754,0.004 0.10542,0.0145 z" />
      <path
         id="path8263"
         style="font-style:normal;font-variant:normal;font-weight:normal;font-stretch:normal;font-size:4.23333311px;font-family:'DejaVu Sans';-inkscape-font-specification:'DejaVu Sans';stroke-width:0.26458332"
         d="m -35.190927,-214.86447 h 0.380339 v 2.31511 h -0.380339 z m 0,-0.90123 h 0.380339 v 0.48162 h -0.380339 z" />
      <path
         id="path8265"
         style="font-style:normal;font-variant:normal;font-weight:normal;font-stretch:normal;font-size:4.23333311px;font-family:'DejaVu Sans';-inkscape-font-specification:'DejaVu Sans';stroke-width:0.26458332"
         d="m -32.54096,-214.79625 v 0.35966 q -0.16123,-0.0827 -0.334863,-0.12402 -0.173633,-0.0413 -0.359668,-0.0413 -0.283187,0 -0.425814,0.0868 -0.14056,0.0868 -0.14056,0.26045 0,0.13229 0.101286,0.20877 0.101286,0.0744 0.407211,0.14263 l 0.130224,0.0289 q 0.405143,0.0868 0.574642,0.24598 0.171566,0.1571 0.171566,0.44029 0,0.32246 -0.256315,0.51056 -0.254248,0.1881 -0.700733,0.1881 -0.186035,0 -0.388606,-0.0372 -0.200505,-0.0351 -0.423747,-0.10749 v -0.39274 q 0.21084,0.10955 0.415478,0.16536 0.204639,0.0538 0.405144,0.0538 0.268717,0 0.413411,-0.0909 0.144694,-0.093 0.144694,-0.26045 0,-0.15503 -0.10542,-0.23772 -0.103353,-0.0827 -0.45682,-0.15916 l -0.132291,-0.031 q -0.353467,-0.0744 -0.510563,-0.22738 -0.157097,-0.15503 -0.157097,-0.42375 0,-0.32659 0.231511,-0.50436 0.23151,-0.17777 0.657324,-0.17777 0.21084,0 0.396875,0.031 0.186035,0.031 0.343131,0.093 z" />
    </g>
    <g
       id="text6788"
       style="font-style:normal;font-weight:normal;font-size:10.58333302px;line-height:1.25;font-family:sans-serif;letter-spacing:0px;word-spacing:0px;fill:#000000;fill-opacity:1;stroke:none;stroke-width:0.26458332"
       aria-label="Tours">
      <path
         id="path8246"
         style="font-style:normal;font-variant:normal;font-weight:normal;font-stretch:normal;font-size:4.23333311px;font-family:'DejaVu Sans';-inkscape-font-specification:'DejaVu Sans';stroke-width:0.26458332"
         d="m -66.696149,-204.67742 h 2.610694 v 0.35139 h -1.095541 v 2.73472 h -0.419612 v -2.73472 h -1.095541 z" />
      <path
         id="path8248"
         style="font-style:normal;font-variant:normal;font-weight:normal;font-stretch:normal;font-size:4.23333311px;font-family:'DejaVu Sans';-inkscape-font-specification:'DejaVu Sans';stroke-width:0.26458332"
         d="m -63.519082,-203.63976 q -0.305924,0 -0.483691,0.23978 -0.177767,0.23771 -0.177767,0.65319 0,0.41547 0.1757,0.65525 0.177767,0.23772 0.485758,0.23772 0.303858,0 0.481625,-0.23978 0.177766,-0.23978 0.177766,-0.65319 0,-0.41135 -0.177766,-0.65113 -0.177767,-0.24184 -0.481625,-0.24184 z m 0,-0.32246 q 0.496094,0 0.779281,0.32246 0.283187,0.32246 0.283187,0.89297 0,0.56844 -0.283187,0.89297 -0.283187,0.32246 -0.779281,0.32246 -0.498161,0 -0.781347,-0.32246 -0.28112,-0.32453 -0.28112,-0.89297 0,-0.57051 0.28112,-0.89297 0.283186,-0.32246 0.781347,-0.32246 z" />
      <path
         id="path8250"
         style="font-style:normal;font-variant:normal;font-weight:normal;font-stretch:normal;font-size:4.23333311px;font-family:'DejaVu Sans';-inkscape-font-specification:'DejaVu Sans';stroke-width:0.26458332"
         d="m -61.867503,-202.50495 v -1.40146 h 0.380339 v 1.38699 q 0,0.32866 0.128157,0.49403 0.128158,0.1633 0.384473,0.1633 0.307991,0 0.485758,-0.19637 0.179834,-0.19637 0.179834,-0.53537 v -1.31258 h 0.380339 v 2.3151 h -0.380339 v -0.35553 q -0.138493,0.21084 -0.322461,0.31419 -0.181901,0.10129 -0.423747,0.10129 -0.398942,0 -0.605647,-0.24805 -0.206706,-0.24805 -0.206706,-0.72554 z m 0.957047,-1.45727 z" />
      <path
         id="path8252"
         style="font-style:normal;font-variant:normal;font-weight:normal;font-stretch:normal;font-size:4.23333311px;font-family:'DejaVu Sans';-inkscape-font-specification:'DejaVu Sans';stroke-width:0.26458332"
         d="m -57.799535,-203.55088 q -0.06408,-0.0372 -0.14056,-0.0537 -0.07441,-0.0186 -0.165364,-0.0186 -0.322461,0 -0.496094,0.21084 -0.171566,0.20878 -0.171566,0.60152 v 1.21956 h -0.382405 v -2.3151 h 0.382405 v 0.35967 q 0.119889,-0.21084 0.312126,-0.31213 0.192236,-0.10335 0.467155,-0.10335 0.03927,0 0.08682,0.006 0.04754,0.004 0.10542,0.0145 z" />
      <path
         id="path8254"
         style="font-style:normal;font-variant:normal;font-weight:normal;font-stretch:normal;font-size:4.23333311px;font-family:'DejaVu Sans';-inkscape-font-specification:'DejaVu Sans';stroke-width:0.26458332"
         d="m -55.92058,-203.8382 v 0.35967 q -0.16123,-0.0827 -0.334863,-0.12403 -0.173633,-0.0413 -0.359668,-0.0413 -0.283187,0 -0.425814,0.0868 -0.14056,0.0868 -0.14056,0.26045 0,0.13229 0.101286,0.20877 0.101286,0.0744 0.40721,0.14263 l 0.130225,0.0289 q 0.405143,0.0868 0.574642,0.24598 0.171566,0.15709 0.171566,0.44028 0,0.32246 -0.256315,0.51056 -0.254248,0.18811 -0.700733,0.18811 -0.186035,0 -0.388607,-0.0372 -0.200504,-0.0351 -0.423746,-0.10749 v -0.39274 q 0.21084,0.10956 0.415478,0.16537 0.204639,0.0537 0.405143,0.0537 0.268718,0 0.413412,-0.0909 0.144694,-0.093 0.144694,-0.26045 0,-0.15503 -0.10542,-0.23771 -0.103353,-0.0827 -0.45682,-0.15917 l -0.132291,-0.031 q -0.353467,-0.0744 -0.510563,-0.22738 -0.157097,-0.15503 -0.157097,-0.42374 0,-0.3266 0.231511,-0.50437 0.23151,-0.17776 0.657324,-0.17776 0.21084,0 0.396875,0.031 0.186035,0.031 0.343131,0.093 z" />
    </g>
    <g
       id="text6792"
       style="font-style:normal;font-weight:normal;font-size:10.58333302px;line-height:1.25;font-family:sans-serif;letter-spacing:0px;word-spacing:0px;fill:#000000;fill-opacity:1;stroke:none;stroke-width:0.26458332"
       aria-label="Bordeaux">
      <path
         id="path8229"
         style="font-style:normal;font-variant:normal;font-weight:normal;font-stretch:normal;font-size:4.23333311px;font-family:'DejaVu Sans';-inkscape-font-specification:'DejaVu Sans';stroke-width:0.26458332"
         d="m -83.156425,-160.23518 v 1.13068 h 0.669727 q 0.33693,0 0.498161,-0.13849 0.163297,-0.14056 0.163297,-0.42788 0,-0.28939 -0.163297,-0.42582 -0.161231,-0.13849 -0.498161,-0.13849 z m 0,-1.26917 v 0.93017 h 0.618051 q 0.305924,0 0.454752,-0.11369 0.150895,-0.11575 0.150895,-0.35139 0,-0.23358 -0.150895,-0.34934 -0.148828,-0.11575 -0.454752,-0.11575 z m -0.417545,-0.34313 h 1.066601 q 0.477491,0 0.735873,0.19843 0.258382,0.19844 0.258382,0.56431 0,0.28319 -0.132292,0.45062 -0.132291,0.16743 -0.388606,0.20877 0.307991,0.0662 0.47749,0.27699 0.171566,0.20877 0.171566,0.52296 0,0.41341 -0.28112,0.63872 -0.28112,0.22531 -0.799951,0.22531 h -1.107943 z" />
      <path
         id="path8231"
         style="font-style:normal;font-variant:normal;font-weight:normal;font-stretch:normal;font-size:4.23333311px;font-family:'DejaVu Sans';-inkscape-font-specification:'DejaVu Sans';stroke-width:0.26458332"
         d="m -79.791255,-160.80982 q -0.305925,0 -0.483692,0.23978 -0.177767,0.23771 -0.177767,0.65319 0,0.41548 0.1757,0.65525 0.177767,0.23772 0.485759,0.23772 0.303857,0 0.481624,-0.23978 0.177767,-0.23978 0.177767,-0.65319 0,-0.41135 -0.177767,-0.65113 -0.177767,-0.24184 -0.481624,-0.24184 z m 0,-0.32246 q 0.496093,0 0.77928,0.32246 0.283187,0.32246 0.283187,0.89297 0,0.56844 -0.283187,0.89297 -0.283187,0.32246 -0.77928,0.32246 -0.498161,0 -0.781348,-0.32246 -0.28112,-0.32453 -0.28112,-0.89297 0,-0.57051 0.28112,-0.89297 0.283187,-0.32246 0.781348,-0.32246 z" />
      <path
         id="path8233"
         style="font-style:normal;font-variant:normal;font-weight:normal;font-stretch:normal;font-size:4.23333311px;font-family:'DejaVu Sans';-inkscape-font-specification:'DejaVu Sans';stroke-width:0.26458332"
         d="m -76.758883,-160.72094 q -0.06408,-0.0372 -0.14056,-0.0537 -0.07441,-0.0186 -0.165364,-0.0186 -0.322461,0 -0.496094,0.21084 -0.171566,0.20878 -0.171566,0.60152 v 1.21956 h -0.382405 v -2.3151 h 0.382405 v 0.35967 q 0.11989,-0.21084 0.312126,-0.31213 0.192236,-0.10335 0.467155,-0.10335 0.03927,0 0.08682,0.006 0.04754,0.004 0.10542,0.0145 z" />
      <path
         id="path8235"
         style="font-style:normal;font-variant:normal;font-weight:normal;font-stretch:normal;font-size:4.23333311px;font-family:'DejaVu Sans';-inkscape-font-specification:'DejaVu Sans';stroke-width:0.26458332"
         d="m -74.906799,-160.72507 v -1.25264 h 0.380338 v 3.21634 h -0.380338 v -0.34726 q -0.11989,0.2067 -0.303858,0.30799 -0.181901,0.0992 -0.438216,0.0992 -0.419613,0 -0.684196,-0.33487 -0.262516,-0.33486 -0.262516,-0.88056 0,-0.54571 0.262516,-0.88057 0.264583,-0.33486 0.684196,-0.33486 0.256315,0 0.438216,0.10128 0.183968,0.0992 0.303858,0.30593 z m -1.296045,0.80822 q 0,0.41961 0.171565,0.65939 0.173633,0.23771 0.475424,0.23771 0.30179,0 0.475423,-0.23771 0.173633,-0.23978 0.173633,-0.65939 0,-0.41962 -0.173633,-0.65733 -0.173633,-0.23978 -0.475423,-0.23978 -0.301791,0 -0.475424,0.23978 -0.171565,0.23771 -0.171565,0.65733 z" />
      <path
         id="path8237"
         style="font-style:normal;font-variant:normal;font-weight:normal;font-stretch:normal;font-size:4.23333311px;font-family:'DejaVu Sans';-inkscape-font-specification:'DejaVu Sans';stroke-width:0.26458332"
         d="m -71.762806,-160.014 v 0.18603 h -1.74873 q 0.0248,0.39274 0.235644,0.59945 0.212907,0.20464 0.591179,0.20464 0.219108,0 0.423746,-0.0538 0.206706,-0.0537 0.409278,-0.16123 v 0.35967 q -0.204639,0.0868 -0.419613,0.13229 -0.214974,0.0455 -0.436149,0.0455 -0.553971,0 -0.878499,-0.32246 -0.322461,-0.32246 -0.322461,-0.8723 0,-0.56844 0.305924,-0.90124 0.307992,-0.33486 0.82889,-0.33486 0.467155,0 0.73794,0.30179 0.272851,0.29972 0.272851,0.81649 z m -0.380338,-0.11163 q -0.0041,-0.31212 -0.1757,-0.49816 -0.169499,-0.18603 -0.450619,-0.18603 -0.318327,0 -0.510563,0.17983 -0.190169,0.17984 -0.219108,0.50643 z" />
      <path
         id="path8239"
         style="font-style:normal;font-variant:normal;font-weight:normal;font-stretch:normal;font-size:4.23333311px;font-family:'DejaVu Sans';-inkscape-font-specification:'DejaVu Sans';stroke-width:0.26458332"
         d="m -70.086422,-159.92512 q -0.460954,0 -0.638721,0.10542 -0.177767,0.10542 -0.177767,0.35967 0,0.20257 0.132292,0.32246 0.134358,0.11782 0.363802,0.11782 0.316259,0 0.506429,-0.22324 0.192236,-0.22531 0.192236,-0.59738 v -0.0847 z m 0.75861,-0.1571 v 1.32085 h -0.380339 v -0.3514 q -0.130225,0.21084 -0.324528,0.31213 -0.194303,0.0992 -0.475423,0.0992 -0.355534,0 -0.566374,-0.19844 -0.208773,-0.20051 -0.208773,-0.53537 0,-0.39067 0.26045,-0.58911 0.262516,-0.19844 0.781347,-0.19844 h 0.533301 v -0.0372 q 0,-0.26252 -0.173633,-0.40515 -0.171566,-0.14469 -0.483691,-0.14469 -0.198438,0 -0.38654,0.0475 -0.188102,0.0475 -0.361735,0.14263 v -0.3514 q 0.208773,-0.0806 0.405143,-0.11989 0.196371,-0.0413 0.382406,-0.0413 0.502295,0 0.750342,0.26045 0.248047,0.26045 0.248047,0.78961 z" />
      <path
         id="path8241"
         style="font-style:normal;font-variant:normal;font-weight:normal;font-stretch:normal;font-size:4.23333311px;font-family:'DejaVu Sans';-inkscape-font-specification:'DejaVu Sans';stroke-width:0.26458332"
         d="m -68.581605,-159.67501 v -1.40146 h 0.380339 v 1.38699 q 0,0.32867 0.128157,0.49403 0.128158,0.1633 0.384473,0.1633 0.307991,0 0.485758,-0.19637 0.179834,-0.19637 0.179834,-0.53537 v -1.31258 h 0.380339 v 2.3151 h -0.380339 v -0.35553 q -0.138493,0.21084 -0.322461,0.31419 -0.181901,0.10129 -0.423746,0.10129 -0.398942,0 -0.605648,-0.24805 -0.206706,-0.24805 -0.206706,-0.72554 z m 0.957048,-1.45727 z" />
      <path
         id="path8243"
         style="font-style:normal;font-variant:normal;font-weight:normal;font-stretch:normal;font-size:4.23333311px;font-family:'DejaVu Sans';-inkscape-font-specification:'DejaVu Sans';stroke-width:0.26458332"
         d="m -63.930727,-161.07647 -0.837158,1.12654 0.880567,1.18856 h -0.448552 l -0.67386,-0.9095 -0.673861,0.9095 h -0.448552 l 0.89917,-1.21129 -0.822688,-1.10381 h 0.448551 l 0.613916,0.82475 0.613916,-0.82475 z" />
    </g>
    <g
       id="text6800"
       style="font-style:normal;font-weight:normal;font-size:10.58333302px;line-height:1.25;font-family:sans-serif;letter-spacing:0px;word-spacing:0px;fill:#000000;fill-opacity:1;stroke:none;stroke-width:0.26458332"
       aria-label="Toulouse">
      <path
         id="path8193"
         style="font-style:normal;font-variant:normal;font-weight:normal;font-stretch:normal;font-size:4.23333311px;font-family:'DejaVu Sans';-inkscape-font-specification:'DejaVu Sans';stroke-width:0.26458332"
         d="m -52.062863,-143.23216 h 2.610693 v 0.3514 h -1.09554 v 2.73472 h -0.419613 v -2.73472 h -1.09554 z" />
      <path
         id="path8195"
         style="font-style:normal;font-variant:normal;font-weight:normal;font-stretch:normal;font-size:4.23333311px;font-family:'DejaVu Sans';-inkscape-font-specification:'DejaVu Sans';stroke-width:0.26458332"
         d="m -48.885796,-142.1945 q -0.305925,0 -0.483692,0.23978 -0.177767,0.23771 -0.177767,0.65319 0,0.41548 0.1757,0.65526 0.177767,0.23771 0.485759,0.23771 0.303857,0 0.481624,-0.23978 0.177767,-0.23978 0.177767,-0.65319 0,-0.41134 -0.177767,-0.65112 -0.177767,-0.24185 -0.481624,-0.24185 z m 0,-0.32246 q 0.496093,0 0.77928,0.32246 0.283187,0.32247 0.283187,0.89297 0,0.56844 -0.283187,0.89297 -0.283187,0.32246 -0.77928,0.32246 -0.498161,0 -0.781348,-0.32246 -0.28112,-0.32453 -0.28112,-0.89297 0,-0.5705 0.28112,-0.89297 0.283187,-0.32246 0.781348,-0.32246 z" />
      <path
         id="path8197"
         style="font-style:normal;font-variant:normal;font-weight:normal;font-stretch:normal;font-size:4.23333311px;font-family:'DejaVu Sans';-inkscape-font-specification:'DejaVu Sans';stroke-width:0.26458332"
         d="m -47.234217,-141.05968 v -1.40147 h 0.380338 v 1.387 q 0,0.32866 0.128158,0.49403 0.128157,0.16329 0.384472,0.16329 0.307992,0 0.485759,-0.19637 0.179834,-0.19637 0.179834,-0.53536 v -1.31259 h 0.380338 v 2.31511 h -0.380338 v -0.35554 q -0.138493,0.21084 -0.322461,0.3142 -0.181901,0.10128 -0.423747,0.10128 -0.398942,0 -0.605648,-0.24804 -0.206705,-0.24805 -0.206705,-0.72554 z m 0.957047,-1.45728 z" />
      <path
         id="path8199"
         style="font-style:normal;font-variant:normal;font-weight:normal;font-stretch:normal;font-size:4.23333311px;font-family:'DejaVu Sans';-inkscape-font-specification:'DejaVu Sans';stroke-width:0.26458332"
         d="m -44.50777,-143.36238 h 0.380339 v 3.21634 h -0.380339 z" />
      <path
         id="path8201"
         style="font-style:normal;font-variant:normal;font-weight:normal;font-stretch:normal;font-size:4.23333311px;font-family:'DejaVu Sans';-inkscape-font-specification:'DejaVu Sans';stroke-width:0.26458332"
         d="m -42.436578,-142.1945 q -0.305925,0 -0.483692,0.23978 -0.177767,0.23771 -0.177767,0.65319 0,0.41548 0.1757,0.65526 0.177767,0.23771 0.485759,0.23771 0.303857,0 0.481624,-0.23978 0.177767,-0.23978 0.177767,-0.65319 0,-0.41134 -0.177767,-0.65112 -0.177767,-0.24185 -0.481624,-0.24185 z m 0,-0.32246 q 0.496093,0 0.77928,0.32246 0.283187,0.32247 0.283187,0.89297 0,0.56844 -0.283187,0.89297 -0.283187,0.32246 -0.77928,0.32246 -0.498161,0 -0.781348,-0.32246 -0.28112,-0.32453 -0.28112,-0.89297 0,-0.5705 0.28112,-0.89297 0.283187,-0.32246 0.781348,-0.32246 z" />
      <path
         id="path8203"
         style="font-style:normal;font-variant:normal;font-weight:normal;font-stretch:normal;font-size:4.23333311px;font-family:'DejaVu Sans';-inkscape-font-specification:'DejaVu Sans';stroke-width:0.26458332"
         d="m -40.785,-141.05968 v -1.40147 h 0.380339 v 1.387 q 0,0.32866 0.128157,0.49403 0.128158,0.16329 0.384473,0.16329 0.307992,0 0.485758,-0.19637 0.179834,-0.19637 0.179834,-0.53536 v -1.31259 h 0.380339 v 2.31511 h -0.380339 v -0.35554 q -0.138492,0.21084 -0.32246,0.3142 -0.181902,0.10128 -0.423747,0.10128 -0.398942,0 -0.605648,-0.24804 -0.206706,-0.24805 -0.206706,-0.72554 z m 0.957048,-1.45728 z" />
      <path
         id="path8205"
         style="font-style:normal;font-variant:normal;font-weight:normal;font-stretch:normal;font-size:4.23333311px;font-family:'DejaVu Sans';-inkscape-font-specification:'DejaVu Sans';stroke-width:0.26458332"
         d="m -36.582672,-142.39293 v 0.35966 q -0.16123,-0.0827 -0.334863,-0.12402 -0.173633,-0.0413 -0.359668,-0.0413 -0.283187,0 -0.425814,0.0868 -0.14056,0.0868 -0.14056,0.26045 0,0.13229 0.101286,0.20877 0.101286,0.0744 0.40721,0.14263 l 0.130225,0.0289 q 0.405143,0.0868 0.574642,0.24598 0.171565,0.1571 0.171565,0.44029 0,0.32246 -0.256315,0.51056 -0.254248,0.1881 -0.700732,0.1881 -0.186035,0 -0.388607,-0.0372 -0.200504,-0.0351 -0.423746,-0.10749 v -0.39274 q 0.210839,0.10955 0.415478,0.16536 0.204639,0.0538 0.405143,0.0538 0.268718,0 0.413412,-0.091 0.144694,-0.093 0.144694,-0.26045 0,-0.15503 -0.10542,-0.23772 -0.103353,-0.0827 -0.45682,-0.15916 l -0.132292,-0.031 q -0.353466,-0.0744 -0.510563,-0.22738 -0.157096,-0.15503 -0.157096,-0.42375 0,-0.32659 0.23151,-0.50436 0.231511,-0.17777 0.657325,-0.17777 0.210839,0 0.396875,0.031 0.186035,0.031 0.343131,0.093 z" />
      <path
         id="path8207"
         style="font-style:normal;font-variant:normal;font-weight:normal;font-stretch:normal;font-size:4.23333311px;font-family:'DejaVu Sans';-inkscape-font-specification:'DejaVu Sans';stroke-width:0.26458332"
         d="m -33.870693,-141.39868 v 0.18604 h -1.748731 q 0.02481,0.39274 0.235645,0.59944 0.212907,0.20464 0.591178,0.20464 0.219108,0 0.423747,-0.0537 0.206706,-0.0538 0.409277,-0.16123 v 0.35967 q -0.204638,0.0868 -0.419612,0.13229 -0.214974,0.0455 -0.436149,0.0455 -0.553972,0 -0.8785,-0.32246 -0.322461,-0.32246 -0.322461,-0.8723 0,-0.56844 0.305925,-0.90123 0.307991,-0.33487 0.82889,-0.33487 0.467155,0 0.737939,0.30179 0.272852,0.29973 0.272852,0.81649 z m -0.380339,-0.11162 q -0.0041,-0.31213 -0.1757,-0.49816 -0.169498,-0.18604 -0.450618,-0.18604 -0.318327,0 -0.510563,0.17984 -0.190169,0.17983 -0.219108,0.50643 z" />
    </g>
    <g
       id="text6804"
       style="font-style:normal;font-weight:normal;font-size:10.58333302px;line-height:1.25;font-family:sans-serif;letter-spacing:0px;word-spacing:0px;fill:#000000;fill-opacity:1;stroke:none;stroke-width:0.26458332"
       aria-label="Marseille">
      <path
         id="path8210"
         style="font-style:normal;font-variant:normal;font-weight:normal;font-stretch:normal;font-size:4.23333311px;font-family:'DejaVu Sans';-inkscape-font-specification:'DejaVu Sans';stroke-width:0.26458332"
         d="m -30.468314,-155.79986 h 0.622184 l 0.787549,2.10013 0.791683,-2.10013 h 0.622184 v 3.08611 h -0.407211 v -2.70991 l -0.795817,2.11667 h -0.419612 l -0.795817,-2.11667 v 2.70991 h -0.405143 z" />
      <path
         id="path8212"
         style="font-style:normal;font-variant:normal;font-weight:normal;font-stretch:normal;font-size:4.23333311px;font-family:'DejaVu Sans';-inkscape-font-specification:'DejaVu Sans';stroke-width:0.26458332"
         d="m -25.778162,-153.8775 q -0.460953,0 -0.63872,0.10542 -0.177767,0.10542 -0.177767,0.35967 0,0.20257 0.132291,0.32246 0.134359,0.11782 0.363802,0.11782 0.31626,0 0.506429,-0.22324 0.192237,-0.22531 0.192237,-0.59738 v -0.0847 z m 0.75861,-0.15709 v 1.32084 h -0.380338 v -0.35139 q -0.130225,0.21083 -0.324528,0.31212 -0.194304,0.0992 -0.475423,0.0992 -0.355534,0 -0.566374,-0.19844 -0.208773,-0.2005 -0.208773,-0.53537 0,-0.39067 0.260449,-0.58911 0.262517,-0.19843 0.781348,-0.19843 h 0.533301 v -0.0372 q 0,-0.26252 -0.173633,-0.40514 -0.171566,-0.1447 -0.483691,-0.1447 -0.198438,0 -0.38654,0.0475 -0.188102,0.0476 -0.361735,0.14263 v -0.3514 q 0.208773,-0.0806 0.405143,-0.11989 0.19637,-0.0413 0.382406,-0.0413 0.502295,0 0.750341,0.26045 0.248047,0.26045 0.248047,0.78962 z" />
      <path
         id="path8214"
         style="font-style:normal;font-variant:normal;font-weight:normal;font-stretch:normal;font-size:4.23333311px;font-family:'DejaVu Sans';-inkscape-font-specification:'DejaVu Sans';stroke-width:0.26458332"
         d="m -22.89255,-154.67332 q -0.06408,-0.0372 -0.14056,-0.0537 -0.07441,-0.0186 -0.165364,-0.0186 -0.322461,0 -0.496094,0.21084 -0.171566,0.20877 -0.171566,0.60151 v 1.21956 h -0.382405 v -2.3151 h 0.382405 v 0.35967 q 0.11989,-0.21084 0.312126,-0.31213 0.192236,-0.10335 0.467155,-0.10335 0.03927,0 0.08682,0.006 0.04754,0.004 0.10542,0.0145 z" />
      <path
         id="path8216"
         style="font-style:normal;font-variant:normal;font-weight:normal;font-stretch:normal;font-size:4.23333311px;font-family:'DejaVu Sans';-inkscape-font-specification:'DejaVu Sans';stroke-width:0.26458332"
         d="m -21.013595,-154.96064 v 0.35967 q -0.16123,-0.0827 -0.334863,-0.12402 -0.173633,-0.0413 -0.359668,-0.0413 -0.283187,0 -0.425814,0.0868 -0.14056,0.0868 -0.14056,0.26045 0,0.13229 0.101286,0.20878 0.101286,0.0744 0.40721,0.14262 l 0.130225,0.0289 q 0.405143,0.0868 0.574642,0.24598 0.171565,0.1571 0.171565,0.44028 0,0.32247 -0.256315,0.51057 -0.254248,0.1881 -0.700732,0.1881 -0.186035,0 -0.388607,-0.0372 -0.200504,-0.0351 -0.423746,-0.10748 v -0.39275 q 0.210839,0.10956 0.415478,0.16537 0.204639,0.0537 0.405143,0.0537 0.268718,0 0.413412,-0.091 0.144694,-0.093 0.144694,-0.26045 0,-0.15503 -0.10542,-0.23771 -0.103353,-0.0827 -0.45682,-0.15916 l -0.132292,-0.031 q -0.353466,-0.0744 -0.510563,-0.22737 -0.157096,-0.15503 -0.157096,-0.42375 0,-0.3266 0.23151,-0.50436 0.231511,-0.17777 0.657325,-0.17777 0.210839,0 0.396875,0.031 0.186035,0.031 0.343131,0.093 z" />
      <path
         id="path8218"
         style="font-style:normal;font-variant:normal;font-weight:normal;font-stretch:normal;font-size:4.23333311px;font-family:'DejaVu Sans';-inkscape-font-specification:'DejaVu Sans';stroke-width:0.26458332"
         d="m -18.301616,-153.96638 v 0.18603 h -1.74873 q 0.02481,0.39274 0.235644,0.59945 0.212907,0.20464 0.591179,0.20464 0.219108,0 0.423747,-0.0537 0.206705,-0.0538 0.409277,-0.16124 v 0.35967 q -0.204639,0.0868 -0.419613,0.13229 -0.214974,0.0455 -0.436149,0.0455 -0.553971,0 -0.878499,-0.32246 -0.322461,-0.32246 -0.322461,-0.8723 0,-0.56844 0.305924,-0.90124 0.307992,-0.33486 0.82889,-0.33486 0.467155,0 0.73794,0.30179 0.272851,0.29972 0.272851,0.81649 z m -0.380338,-0.11162 q -0.0041,-0.31213 -0.1757,-0.49816 -0.169499,-0.18604 -0.450619,-0.18604 -0.318326,0 -0.510563,0.17984 -0.190169,0.17983 -0.219108,0.50642 z" />
      <path
         id="path8220"
         style="font-style:normal;font-variant:normal;font-weight:normal;font-stretch:normal;font-size:4.23333311px;font-family:'DejaVu Sans';-inkscape-font-specification:'DejaVu Sans';stroke-width:0.26458332"
         d="m -17.677365,-155.02885 h 0.380338 v 2.3151 h -0.380338 z m 0,-0.90124 h 0.380338 v 0.48163 h -0.380338 z" />
      <path
         id="path8222"
         style="font-style:normal;font-variant:normal;font-weight:normal;font-stretch:normal;font-size:4.23333311px;font-family:'DejaVu Sans';-inkscape-font-specification:'DejaVu Sans';stroke-width:0.26458332"
         d="m -16.503276,-155.93009 h 0.380339 v 3.21634 h -0.380339 z" />
      <path
         id="path8224"
         style="font-style:normal;font-variant:normal;font-weight:normal;font-stretch:normal;font-size:4.23333311px;font-family:'DejaVu Sans';-inkscape-font-specification:'DejaVu Sans';stroke-width:0.26458332"
         d="m -15.329188,-155.93009 h 0.380338 v 3.21634 h -0.380338 z" />
      <path
         id="path8226"
         style="font-style:normal;font-variant:normal;font-weight:normal;font-stretch:normal;font-size:4.23333311px;font-family:'DejaVu Sans';-inkscape-font-specification:'DejaVu Sans';stroke-width:0.26458332"
         d="m -12.174858,-153.96638 v 0.18603 h -1.74873 q 0.0248,0.39274 0.235644,0.59945 0.212907,0.20464 0.591178,0.20464 0.219108,0 0.423747,-0.0537 0.206706,-0.0538 0.409277,-0.16124 v 0.35967 q -0.204638,0.0868 -0.419612,0.13229 -0.214974,0.0455 -0.436149,0.0455 -0.553972,0 -0.8785,-0.32246 -0.32246,-0.32246 -0.32246,-0.8723 0,-0.56844 0.305924,-0.90124 0.307992,-0.33486 0.82889,-0.33486 0.467155,0 0.737939,0.30179 0.272852,0.29972 0.272852,0.81649 z m -0.380339,-0.11162 q -0.0041,-0.31213 -0.175699,-0.49816 -0.169499,-0.18604 -0.450619,-0.18604 -0.318327,0 -0.510563,0.17984 -0.190169,0.17983 -0.219108,0.50642 z" />
    </g>
    <g
       id="text6808"
       style="font-style:normal;font-weight:normal;font-size:10.58333302px;line-height:1.25;font-family:sans-serif;letter-spacing:0px;word-spacing:0px;fill:#000000;fill-opacity:1;stroke:none;stroke-width:0.26458332"
       aria-label="Lyon">
      <path
         id="path8268"
         style="font-style:normal;font-variant:normal;font-weight:normal;font-stretch:normal;font-size:4.23333311px;font-family:'DejaVu Sans';-inkscape-font-specification:'DejaVu Sans';stroke-width:0.26458332"
         d="m -9.1126597,-192.84153 h 0.4175456 v 2.73471 h 1.5027506 v 0.3514 h -1.9202962 z" />
      <path
         id="path8270"
         style="font-style:normal;font-variant:normal;font-weight:normal;font-stretch:normal;font-size:4.23333311px;font-family:'DejaVu Sans';-inkscape-font-specification:'DejaVu Sans';stroke-width:0.26458332"
         d="m -6.1981091,-189.54044 q -0.1612304,0.41341 -0.3141927,0.5395 -0.1529622,0.12609 -0.4092773,0.12609 h -0.3038574 v -0.31833 h 0.2232422 q 0.1570963,0 0.2439127,-0.0744 0.086816,-0.0744 0.1922364,-0.3514 l 0.068213,-0.17363 -0.9363769,-2.2779 h 0.4030762 l 0.72347,1.81074 0.72347,-1.81074 h 0.4030762 z" />
      <path
         id="path8272"
         style="font-style:normal;font-variant:normal;font-weight:normal;font-stretch:normal;font-size:4.23333311px;font-family:'DejaVu Sans';-inkscape-font-specification:'DejaVu Sans';stroke-width:0.26458332"
         d="m -3.7589817,-191.80387 q -0.3059244,0 -0.4836914,0.23978 -0.1777669,0.23771 -0.1777669,0.65319 0,0.41548 0.1756999,0.65526 0.1777669,0.23771 0.4857584,0.23771 0.3038574,0 0.4816243,-0.23978 0.177767,-0.23978 0.177767,-0.65319 0,-0.41135 -0.177767,-0.65112 -0.1777669,-0.24185 -0.4816243,-0.24185 z m 0,-0.32246 q 0.4960937,0 0.7792806,0.32246 0.2831868,0.32246 0.2831868,0.89297 0,0.56844 -0.2831868,0.89297 -0.2831869,0.32246 -0.7792806,0.32246 -0.4981608,0 -0.7813476,-0.32246 -0.2811198,-0.32453 -0.2811198,-0.89297 0,-0.57051 0.2811198,-0.89297 0.2831868,-0.32246 0.7813476,-0.32246 z" />
      <path
         id="path8274"
         style="font-style:normal;font-variant:normal;font-weight:normal;font-stretch:normal;font-size:4.23333311px;font-family:'DejaVu Sans';-inkscape-font-specification:'DejaVu Sans';stroke-width:0.26458332"
         d="m -0.14369878,-191.15275 v 1.39733 H -0.5240373 v -1.38493 q 0,-0.32866 -0.12815755,-0.49195 -0.12815755,-0.1633 -0.38447265,-0.1633 -0.3079915,0 -0.4857584,0.19637 -0.1777669,0.19637 -0.1777669,0.53537 v 1.30844 h -0.3824056 v -2.3151 h 0.3824056 v 0.35967 q 0.1364257,-0.20878 0.3203938,-0.31213 0.1860352,-0.10335 0.42788086,-0.10335 0.39894204,0 0.6035807,0.24805 0.20463866,0.24598 0.20463866,0.72553 z" />
    </g>
    <g
       id="text6816"
       style="font-style:normal;font-weight:normal;font-size:10.58333302px;line-height:1.25;font-family:sans-serif;letter-spacing:0px;word-spacing:0px;fill:#000000;fill-opacity:1;stroke:none;stroke-width:0.26458332"
       aria-label="Strasbourg">
      <path
         id="path8277"
         style="font-style:normal;font-variant:normal;font-weight:normal;font-stretch:normal;font-size:4.23333311px;font-family:'DejaVu Sans';-inkscape-font-specification:'DejaVu Sans';stroke-width:0.26458332"
         d="m -9.8139826,-204.6465 v 0.40721 q -0.2377114,-0.11369 -0.4485514,-0.1695 -0.21084,-0.0558 -0.40721,-0.0558 -0.341065,0 -0.5271,0.1323 -0.183968,0.13229 -0.183968,0.3762 0,0.20464 0.121956,0.31006 0.124024,0.10335 0.467155,0.16743 l 0.252181,0.0517 q 0.467155,0.0889 0.6883303,0.31419 0.2232422,0.22324 0.2232422,0.59945 0,0.44855 -0.3017903,0.68006 -0.2997232,0.23151 -0.8805662,0.23151 -0.219108,0 -0.467155,-0.0496 -0.24598,-0.0496 -0.510563,-0.14676 v -0.42995 q 0.254248,0.14263 0.498161,0.21497 0.243912,0.0724 0.479557,0.0724 0.357601,0 0.551904,-0.14056 0.194303,-0.14056 0.194303,-0.40101 0,-0.22737 -0.140559,-0.35553 -0.138493,-0.12816 -0.45682,-0.19224 l -0.254248,-0.0496 q -0.467155,-0.093 -0.675928,-0.29145 -0.208773,-0.19844 -0.208773,-0.55191 0,-0.40927 0.287321,-0.64492 0.289388,-0.23564 0.795817,-0.23564 0.217041,0 0.442351,0.0393 0.225309,0.0393 0.4609534,0.11782 z" />
      <path
         id="path8279"
         style="font-style:normal;font-variant:normal;font-weight:normal;font-stretch:normal;font-size:4.23333311px;font-family:'DejaVu Sans';-inkscape-font-specification:'DejaVu Sans';stroke-width:0.26458332"
         d="m -8.6171565,-204.6341 v 0.65733 h 0.7834146 v 0.29559 h -0.7834146 v 1.25677 q 0,0.28319 0.076481,0.3638 0.078548,0.0806 0.3162597,0.0806 h 0.3906738 v 0.31832 h -0.3906738 q -0.4402832,0 -0.6077148,-0.16329 -0.1674316,-0.16537 -0.1674316,-0.59945 v -1.25677 h -0.2790527 v -0.29559 h 0.2790527 v -0.65733 z" />
      <path
         id="path8281"
         style="font-style:normal;font-variant:normal;font-weight:normal;font-stretch:normal;font-size:4.23333311px;font-family:'DejaVu Sans';-inkscape-font-specification:'DejaVu Sans';stroke-width:0.26458332"
         d="m -5.989927,-203.62124 q -0.064079,-0.0372 -0.1405599,-0.0537 -0.074414,-0.0186 -0.1653645,-0.0186 -0.322461,0 -0.4960938,0.21084 -0.1715657,0.20877 -0.1715657,0.60151 v 1.21956 h -0.3824056 v -2.3151 h 0.3824056 v 0.35967 q 0.1198893,-0.21084 0.3121256,-0.31213 0.1922363,-0.10335 0.467155,-0.10335 0.039274,0 0.086816,0.006 0.047542,0.004 0.1054199,0.0145 z" />
      <path
         id="path8283"
         style="font-style:normal;font-variant:normal;font-weight:normal;font-stretch:normal;font-size:4.23333311px;font-family:'DejaVu Sans';-inkscape-font-specification:'DejaVu Sans';stroke-width:0.26458332"
         d="m -4.5347185,-202.82542 q -0.4609537,0 -0.6387207,0.10542 -0.1777669,0.10542 -0.1777669,0.35967 0,0.20257 0.1322917,0.32246 0.1343587,0.11782 0.363802,0.11782 0.3162598,0 0.5064291,-0.22324 0.1922363,-0.22531 0.1922363,-0.59738 v -0.0848 z m 0.75861,-0.1571 v 1.32085 H -4.156447 v -0.3514 q -0.1302246,0.21084 -0.324528,0.31213 -0.1943034,0.0992 -0.4754232,0.0992 -0.3555338,0 -0.5663736,-0.19844 -0.2087728,-0.2005 -0.2087728,-0.53537 0,-0.39067 0.2604492,-0.58911 0.2625163,-0.19844 0.7813476,-0.19844 h 0.5333008 v -0.0372 q 0,-0.26252 -0.1736328,-0.40515 -0.1715658,-0.14469 -0.4836914,-0.14469 -0.1984375,0 -0.3865397,0.0475 -0.1881022,0.0475 -0.361735,0.14263 v -0.3514 q 0.2087728,-0.0806 0.4051432,-0.11989 0.1963704,-0.0413 0.3824056,-0.0413 0.5022949,0 0.7503417,0.26045 0.2480469,0.26045 0.2480469,0.78961 z" />
      <path
         id="path8285"
         style="font-style:normal;font-variant:normal;font-weight:normal;font-stretch:normal;font-size:4.23333311px;font-family:'DejaVu Sans';-inkscape-font-specification:'DejaVu Sans';stroke-width:0.26458332"
         d="m -1.5147484,-203.90856 v 0.35967 q -0.1612305,-0.0827 -0.3348633,-0.12402 -0.1736328,-0.0413 -0.3596679,-0.0413 -0.2831869,0 -0.4258138,0.0868 -0.1405599,0.0868 -0.1405599,0.26045 0,0.13229 0.1012858,0.20877 0.1012858,0.0744 0.4072103,0.14263 l 0.1302246,0.0289 q 0.4051432,0.0868 0.5746419,0.24598 0.1715657,0.1571 0.1715657,0.44028 0,0.32246 -0.2563151,0.51057 -0.254248,0.1881 -0.7007324,0.1881 -0.1860351,0 -0.3886067,-0.0372 -0.2005046,-0.0351 -0.4237467,-0.10749 v -0.39274 q 0.2108398,0.10956 0.4154785,0.16537 0.2046386,0.0537 0.4051432,0.0537 0.2687174,0 0.4134114,-0.0909 0.144694,-0.093 0.144694,-0.26045 0,-0.15503 -0.1054199,-0.23771 -0.1033529,-0.0827 -0.4568196,-0.15916 l -0.1322917,-0.031 q -0.3534668,-0.0744 -0.5105631,-0.22738 -0.1570964,-0.15503 -0.1570964,-0.42374 0,-0.3266 0.2315104,-0.50436 0.2315104,-0.17777 0.6573242,-0.17777 0.2108398,0 0.396875,0.031 0.1860351,0.031 0.3431315,0.093 z" />
      <path
         id="path8287"
         style="font-style:normal;font-variant:normal;font-weight:normal;font-stretch:normal;font-size:4.23333311px;font-family:'DejaVu Sans';-inkscape-font-specification:'DejaVu Sans';stroke-width:0.26458332"
         d="m 0.87890449,-202.81715 q 0,-0.41961 -0.1736328,-0.65733 -0.17156575,-0.23977 -0.4733561,-0.23977 -0.30179035,0 -0.47542315,0.23977 -0.17156575,0.23772 -0.17156575,0.65733 0,0.41961 0.17156575,0.65939 0.1736328,0.23771 0.47542315,0.23771 0.30179035,0 0.4733561,-0.23771 0.1736328,-0.23978 0.1736328,-0.65939 z m -1.2939778,-0.80822 q 0.11988932,-0.20671 0.30179035,-0.30593 0.18396809,-0.10128 0.43821612,-0.10128 0.42167967,0 0.68419594,0.33486 0.2645833,0.33487 0.2645833,0.88057 0,0.5457 -0.2645833,0.88056 -0.26251627,0.33487 -0.68419594,0.33487 -0.25424803,0 -0.43821612,-0.0992 -0.18190103,-0.10129 -0.30179035,-0.30799 v 0.34726 h -0.38240558 v -3.21634 h 0.38240558 z" />
      <path
         id="path8289"
         style="font-style:normal;font-variant:normal;font-weight:normal;font-stretch:normal;font-size:4.23333311px;font-family:'DejaVu Sans';-inkscape-font-specification:'DejaVu Sans';stroke-width:0.26458332"
         d="m 2.8012672,-203.71012 q -0.3059245,0 -0.4836914,0.23978 -0.1777669,0.23771 -0.1777669,0.65319 0,0.41548 0.1756998,0.65526 0.177767,0.23771 0.4857585,0.23771 0.3038574,0 0.4816243,-0.23978 0.1777669,-0.23978 0.1777669,-0.65319 0,-0.41135 -0.1777669,-0.65112 -0.1777669,-0.24185 -0.4816243,-0.24185 z m 0,-0.32246 q 0.4960937,0 0.7792805,0.32246 0.2831869,0.32246 0.2831869,0.89297 0,0.56844 -0.2831869,0.89297 -0.2831868,0.32246 -0.7792805,0.32246 -0.4981608,0 -0.7813476,-0.32246 -0.2811198,-0.32453 -0.2811198,-0.89297 0,-0.57051 0.2811198,-0.89297 0.2831868,-0.32246 0.7813476,-0.32246 z" />
      <path
         id="path8291"
         style="font-style:normal;font-variant:normal;font-weight:normal;font-stretch:normal;font-size:4.23333311px;font-family:'DejaVu Sans';-inkscape-font-specification:'DejaVu Sans';stroke-width:0.26458332"
         d="m 4.4528457,-202.57531 v -1.40146 h 0.3803386 v 1.38699 q 0,0.32867 0.1281575,0.49403 0.1281576,0.1633 0.3844726,0.1633 0.3079916,0 0.4857585,-0.19637 0.179834,-0.19637 0.179834,-0.53537 v -1.31258 h 0.3803385 v 2.3151 H 6.0114069 v -0.35553 q -0.1384929,0.21084 -0.322461,0.31419 -0.181901,0.10129 -0.4237467,0.10129 -0.398942,0 -0.6056477,-0.24805 -0.2067058,-0.24805 -0.2067058,-0.72554 z m 0.9570475,-1.45727 z" />
      <path
         id="path8293"
         style="font-style:normal;font-variant:normal;font-weight:normal;font-stretch:normal;font-size:4.23333311px;font-family:'DejaVu Sans';-inkscape-font-specification:'DejaVu Sans';stroke-width:0.26458332"
         d="m 8.5208138,-203.62124 q -0.064079,-0.0372 -0.1405599,-0.0537 -0.074414,-0.0186 -0.1653646,-0.0186 -0.3224609,0 -0.4960937,0.21084 -0.1715657,0.20877 -0.1715657,0.60151 v 1.21956 H 7.1648243 v -2.3151 h 0.3824056 v 0.35967 q 0.1198893,-0.21084 0.3121256,-0.31213 0.1922363,-0.10335 0.4671549,-0.10335 0.039274,0 0.086816,0.006 0.047542,0.004 0.1054199,0.0145 z" />
      <path
         id="path8295"
         style="font-style:normal;font-variant:normal;font-weight:normal;font-stretch:normal;font-size:4.23333311px;font-family:'DejaVu Sans';-inkscape-font-specification:'DejaVu Sans';stroke-width:0.26458332"
         d="m 10.372898,-202.84609 q 0,-0.41341 -0.171566,-0.64079 -0.169498,-0.22737 -0.47749,-0.22737 -0.3059244,0 -0.4774902,0.22737 -0.1694987,0.22738 -0.1694987,0.64079 0,0.41134 0.1694987,0.63872 0.1715658,0.22738 0.4774902,0.22738 0.307992,0 0.47749,-0.22738 0.171566,-0.22738 0.171566,-0.63872 z m 0.380339,0.8971 q 0,0.59118 -0.262517,0.8785 -0.262516,0.28939 -0.804085,0.28939 -0.2005045,0 -0.3782714,-0.031 -0.177767,-0.0289 -0.3451986,-0.091 v -0.37 q 0.1674316,0.0909 0.3307292,0.13436 0.1632975,0.0434 0.3327962,0.0434 0.3741376,0 0.5601726,-0.19637 0.186035,-0.19431 0.186035,-0.58911 v -0.18811 q -0.117822,0.20464 -0.30179,0.30593 -0.1839684,0.10128 -0.4402835,0.10128 -0.4258138,0 -0.686263,-0.32452 -0.2604492,-0.32453 -0.2604492,-0.8599 0,-0.53744 0.2604492,-0.86196 0.2604492,-0.32453 0.686263,-0.32453 0.2563151,0 0.4402835,0.10128 0.183968,0.10129 0.30179,0.30593 v -0.3514 h 0.380339 z" />
    </g>
    <g
       id="text6822"
       style="font-style:normal;font-weight:normal;font-size:10.58333302px;line-height:1.25;font-family:sans-serif;letter-spacing:0px;word-spacing:0px;fill:#000000;fill-opacity:1;stroke:none;stroke-width:0.26458332"
       aria-label="Roubaix">
      <path
         id="path8298"
         style="font-style:normal;font-variant:normal;font-weight:normal;font-stretch:normal;font-size:4.23333311px;font-family:'DejaVu Sans';-inkscape-font-specification:'DejaVu Sans';stroke-width:0.26458332"
         d="m -29.477307,-223.9918 q 0.134358,0.0455 0.260449,0.1943 0.128158,0.14883 0.256315,0.40928 l 0.423747,0.84336 h -0.448552 l -0.394808,-0.79168 q -0.152962,-0.31006 -0.297656,-0.41135 -0.142627,-0.10128 -0.390674,-0.10128 h -0.454752 v 1.30431 h -0.417546 v -3.08612 h 0.942578 q 0.529167,0 0.789616,0.22118 0.260449,0.22117 0.260449,0.66766 0,0.29145 -0.136425,0.48369 -0.134359,0.19224 -0.392741,0.26665 z m -1.045931,-1.29605 v 1.09554 h 0.525032 q 0.301791,0 0.454753,-0.13849 0.155029,-0.14056 0.155029,-0.41134 0,-0.27079 -0.155029,-0.40721 -0.152962,-0.1385 -0.454753,-0.1385 z" />
      <path
         id="path8300"
         style="font-style:normal;font-variant:normal;font-weight:normal;font-stretch:normal;font-size:4.23333311px;font-family:'DejaVu Sans';-inkscape-font-specification:'DejaVu Sans';stroke-width:0.26458332"
         d="m -27.306897,-224.59331 q -0.305925,0 -0.483692,0.23977 -0.177766,0.23772 -0.177766,0.65319 0,0.41548 0.175699,0.65526 0.177767,0.23771 0.485759,0.23771 0.303857,0 0.481624,-0.23978 0.177767,-0.23977 0.177767,-0.65319 0,-0.41134 -0.177767,-0.65112 -0.177767,-0.24184 -0.481624,-0.24184 z m 0,-0.32247 q 0.496094,0 0.77928,0.32247 0.283187,0.32246 0.283187,0.89296 0,0.56844 -0.283187,0.89297 -0.283186,0.32246 -0.77928,0.32246 -0.498161,0 -0.781348,-0.32246 -0.28112,-0.32453 -0.28112,-0.89297 0,-0.5705 0.28112,-0.89296 0.283187,-0.32247 0.781348,-0.32247 z" />
      <path
         id="path8302"
         style="font-style:normal;font-variant:normal;font-weight:normal;font-stretch:normal;font-size:4.23333311px;font-family:'DejaVu Sans';-inkscape-font-specification:'DejaVu Sans';stroke-width:0.26458332"
         d="m -25.655319,-223.4585 v -1.40146 h 0.380339 v 1.38699 q 0,0.32866 0.128158,0.49403 0.128157,0.16329 0.384472,0.16329 0.307992,0 0.485759,-0.19637 0.179834,-0.19637 0.179834,-0.53536 v -1.31258 h 0.380338 v 2.3151 h -0.380338 v -0.35553 q -0.138493,0.21084 -0.322461,0.31419 -0.181901,0.10128 -0.423747,0.10128 -0.398942,0 -0.605648,-0.24804 -0.206706,-0.24805 -0.206706,-0.72554 z m 0.957048,-1.45728 z" />
      <path
         id="path8304"
         style="font-style:normal;font-variant:normal;font-weight:normal;font-stretch:normal;font-size:4.23333311px;font-family:'DejaVu Sans';-inkscape-font-specification:'DejaVu Sans';stroke-width:0.26458332"
         d="m -21.266956,-223.70035 q 0,-0.41961 -0.173633,-0.65732 -0.171566,-0.23978 -0.473356,-0.23978 -0.30179,0 -0.475423,0.23978 -0.171566,0.23771 -0.171566,0.65732 0,0.41962 0.171566,0.6594 0.173633,0.23771 0.475423,0.23771 0.30179,0 0.473356,-0.23771 0.173633,-0.23978 0.173633,-0.6594 z m -1.293978,-0.80822 q 0.119889,-0.2067 0.30179,-0.30592 0.183968,-0.10129 0.438216,-0.10129 0.42168,0 0.684196,0.33487 0.264584,0.33486 0.264584,0.88056 0,0.54571 -0.264584,0.88057 -0.262516,0.33486 -0.684196,0.33486 -0.254248,0 -0.438216,-0.0992 -0.181901,-0.10129 -0.30179,-0.308 v 0.34727 h -0.382406 v -3.21634 h 0.382406 z" />
      <path
         id="path8306"
         style="font-style:normal;font-variant:normal;font-weight:normal;font-stretch:normal;font-size:4.23333311px;font-family:'DejaVu Sans';-inkscape-font-specification:'DejaVu Sans';stroke-width:0.26458332"
         d="m -19.189564,-223.70861 q -0.460954,0 -0.638721,0.10542 -0.177767,0.10542 -0.177767,0.35966 0,0.20258 0.132292,0.32246 0.134359,0.11783 0.363802,0.11783 0.31626,0 0.506429,-0.22325 0.192236,-0.2253 0.192236,-0.59737 v -0.0847 z m 0.75861,-0.1571 v 1.32085 h -0.380339 v -0.3514 q -0.130224,0.21084 -0.324528,0.31213 -0.194303,0.0992 -0.475423,0.0992 -0.355534,0 -0.566374,-0.19843 -0.208772,-0.20051 -0.208772,-0.53537 0,-0.39068 0.260449,-0.58911 0.262516,-0.19844 0.781348,-0.19844 h 0.5333 v -0.0372 q 0,-0.26251 -0.173633,-0.40514 -0.171565,-0.14469 -0.483691,-0.14469 -0.198437,0 -0.38654,0.0475 -0.188102,0.0475 -0.361735,0.14262 v -0.35139 q 0.208773,-0.0806 0.405144,-0.11989 0.19637,-0.0414 0.382405,-0.0414 0.502295,0 0.750342,0.26045 0.248047,0.26045 0.248047,0.78962 z" />
      <path
         id="path8308"
         style="font-style:normal;font-variant:normal;font-weight:normal;font-stretch:normal;font-size:4.23333311px;font-family:'DejaVu Sans';-inkscape-font-specification:'DejaVu Sans';stroke-width:0.26458332"
         d="m -17.645472,-224.85996 h 0.380338 v 2.3151 h -0.380338 z m 0,-0.90124 h 0.380338 v 0.48162 h -0.380338 z" />
      <path
         id="path8310"
         style="font-style:normal;font-variant:normal;font-weight:normal;font-stretch:normal;font-size:4.23333311px;font-family:'DejaVu Sans';-inkscape-font-specification:'DejaVu Sans';stroke-width:0.26458332"
         d="m -14.546953,-224.85996 -0.837158,1.12654 0.880566,1.18856 h -0.448551 l -0.673861,-0.90951 -0.67386,0.90951 h -0.448552 l 0.89917,-1.2113 -0.822689,-1.1038 h 0.448552 l 0.613916,0.82475 0.613916,-0.82475 z" />
    </g>
  </g>
</svg>
