<?xml version="1.0" encoding="UTF-8" standalone="no"?>
<!-- Created with Inkscape (http://www.inkscape.org/) -->

<svg
   xmlns:dc="http://purl.org/dc/elements/1.1/"
   xmlns:cc="http://creativecommons.org/ns#"
   xmlns:rdf="http://www.w3.org/1999/02/22-rdf-syntax-ns#"
   xmlns:svg="http://www.w3.org/2000/svg"
   xmlns="http://www.w3.org/2000/svg"
   xmlns:xlink="http://www.w3.org/1999/xlink"
   xmlns:sodipodi="http://sodipodi.sourceforge.net/DTD/sodipodi-0.dtd"
   xmlns:inkscape="http://www.inkscape.org/namespaces/inkscape"
   width="210mm"
   height="297mm"
   viewBox="0 0 210 297"
   version="1.1"
   id="svg8"
   sodipodi:docname="tybe.svg"
   inkscape:version="0.92.2 2405546, 2018-03-11">
  <defs
     id="defs2">
    <linearGradient
       id="linearGradient856-3"
       inkscape:collect="always">
      <stop
         id="stop1118"
         offset="0"
         style="stop-color:#f80000;stop-opacity:1;" />
      <stop
         id="stop1120"
         offset="1"
         style="stop-color:#690000;stop-opacity:1" />
    </linearGradient>
    <linearGradient
       inkscape:collect="always"
       id="linearGradient876">
      <stop
         style="stop-color:#606060;stop-opacity:1"
         offset="0"
         id="stop872" />
      <stop
         style="stop-color:#0a0a0a;stop-opacity:1"
         offset="1"
         id="stop874" />
    </linearGradient>
    <linearGradient
       inkscape:collect="always"
       id="linearGradient856-3-6">
      <stop
         style="stop-color:#f80000;stop-opacity:1;"
         offset="0"
         id="stop852" />
      <stop
         style="stop-color:#ab0000;stop-opacity:1"
         offset="1"
         id="stop854" />
    </linearGradient>
    <linearGradient
       inkscape:collect="always"
       xlink:href="#linearGradient856-3-6"
       id="linearGradient858"
       x1="-561.32446"
       y1="-3.5596392"
       x2="-562.25281"
       y2="158.69498"
       gradientUnits="userSpaceOnUse"
       gradientTransform="matrix(1.4448609,0,0,1,352.11214,0)" />
    <linearGradient
       inkscape:collect="always"
       xlink:href="#linearGradient856-3"
       id="linearGradient886"
       x1="-633.70349"
       y1="83.095337"
       x2="-745.14856"
       y2="85.610191"
       gradientUnits="userSpaceOnUse" />
    <linearGradient
       inkscape:collect="always"
       xlink:href="#linearGradient856-3-6"
       id="linearGradient894"
       x1="-2781.4861"
       y1="-408.22308"
       x2="-2785.0916"
       y2="405.28979"
       gradientUnits="userSpaceOnUse" />
    <linearGradient
       inkscape:collect="always"
       xlink:href="#linearGradient856-3-6"
       id="linearGradient1177"
       gradientUnits="userSpaceOnUse"
       x1="-2703.7317"
       y1="-406.72781"
       x2="-2777.6152"
       y2="829.94836" />
    <linearGradient
       inkscape:collect="always"
       xlink:href="#linearGradient856-3"
       id="linearGradient1179"
       gradientUnits="userSpaceOnUse"
       x1="-633.70349"
       y1="83.095337"
       x2="-745.14856"
       y2="85.610191" />
    <linearGradient
       inkscape:collect="always"
       xlink:href="#linearGradient876"
       id="linearGradient1181"
       gradientUnits="userSpaceOnUse"
       gradientTransform="matrix(0.7315965,0,0,0.9847916,-200.78406,-0.23700497)"
       x1="-783.19153"
       y1="85.610191"
       x2="-721.93451"
       y2="85.333328" />
    <radialGradient
       inkscape:collect="always"
       xlink:href="#linearGradient876"
       id="radialGradient1206"
       cx="-773.83557"
       cy="84.994598"
       fx="-773.83557"
       fy="84.994598"
       r="13.916031"
       gradientTransform="matrix(1.3999351,1.1871253e-7,-2.2443592e-6,27.200145,309.48417,-2223.0384)"
       gradientUnits="userSpaceOnUse" />
  </defs>
  <sodipodi:namedview
     id="base"
     pagecolor="#ffffff"
     bordercolor="#666666"
     borderopacity="1.0"
     inkscape:pageopacity="0.0"
     inkscape:pageshadow="2"
     inkscape:zoom="0.47289358"
     inkscape:cx="-1388.7617"
     inkscape:cy="1077.0168"
     inkscape:document-units="mm"
     inkscape:current-layer="layer1"
     showgrid="false"
     inkscape:snap-global="false"
     inkscape:snap-bbox="false"
     inkscape:snap-smooth-nodes="true"
     inkscape:window-width="3168"
     inkscape:window-height="1692"
     inkscape:window-x="12"
     inkscape:window-y="92"
     inkscape:window-maximized="0" />
  <metadata
     id="metadata5">
    <rdf:RDF>
      <cc:Work
         rdf:about="">
        <dc:format>image/svg+xml</dc:format>
        <dc:type
           rdf:resource="http://purl.org/dc/dcmitype/StillImage" />
      </cc:Work>
    </rdf:RDF>
  </metadata>
  <g
     inkscape:label="Calque 1"
     inkscape:groupmode="layer"
     id="layer1">
    <g
       id="use1167"
       transform="matrix(1.4448609,0,0,1,852.14269,0)">
      <path
         style="opacity:1;fill:url(#linearGradient1177);fill-opacity:1;stroke-width:0.99999994"
         d="m -2860,-180.33789 v 130.128906 a 131.42858,502.85714 0 0 0 -43.4277,372.728514 131.42858,502.85714 0 0 0 43.4277,372.7168 v 130.14062 h 88 A 131.42858,502.85714 0 0 0 -2640.5703,322.51953 131.42858,502.85714 0 0 0 -2772,-180.33789 Z"
         transform="scale(0.26458333)"
         id="path1169"
         inkscape:connector-curvature="0" />
      <path
         style="opacity:1;fill:url(#linearGradient1179);fill-opacity:1;stroke-width:0.26458332"
         d="M -721.9345,85.333328 A 34.773811,133.04762 0 0 1 -756.70831,218.38095 34.773811,133.04762 0 0 1 -791.48212,85.333328 34.773811,133.04762 0 0 1 -756.70831,-47.714294 34.773811,133.04762 0 0 1 -721.9345,85.333328 Z"
         id="path1171"
         inkscape:connector-curvature="0" />
      <ellipse
         ry="71.670906"
         rx="13.916031"
         cy="84.071198"
         cx="-759.84808"
         id="ellipse1173"
         style="opacity:1;fill:url(#linearGradient1181);fill-opacity:1;stroke-width:0.12284625" />
    </g>
    <path
       style="opacity:1;fill:url(#linearGradient858);fill-opacity:1;stroke-width:0.18598433"
       d="M -686.48759,10.392816 V 166.00347 h 438.95553 c 16.22731,5.6e-4 29.38224,-34.83411 29.38224,-77.805068 1.1e-4,-42.971157 -13.15486,-77.80615 -29.38224,-77.805586 z"
       id="ellipse836"
       inkscape:connector-curvature="0"
       sodipodi:nodetypes="cccccc" />
    <path
       style="opacity:0.13900003;fill:#1a1a1a;fill-opacity:1;stroke:none;stroke-width:0.31803539px;stroke-linecap:butt;stroke-linejoin:miter;stroke-opacity:1"
       d="m -247.85974,10.392647 c -8.67002,98.100903 -212.30055,134.558703 -436.64691,140.621393 -1.02009,5.74895 2.27338,10.71439 9.14727,14.98926 h 427.82742 c 16.22728,5.6e-4 29.38228,-34.83411 29.38228,-77.805066 7e-5,-42.971159 -13.15493,-77.806151 -29.38228,-77.805587 z"
       id="path1193"
       inkscape:connector-curvature="0" />
    <g
       id="g850"
       transform="matrix(1.4448609,0,0,1,352.11214,0)">
      <path
         inkscape:connector-curvature="0"
         id="path826"
         transform="scale(0.26458333)"
         d="m -2860,-180.33789 v 130.128906 a 131.42858,502.85714 0 0 0 -43.4277,372.728514 131.42858,502.85714 0 0 0 43.4277,372.7168 v 130.14062 h 88 A 131.42858,502.85714 0 0 0 -2640.5703,322.51953 131.42858,502.85714 0 0 0 -2772,-180.33789 Z"
         style="opacity:1;fill:url(#linearGradient894);fill-opacity:1;stroke-width:0.99999994" />
      <path
         inkscape:connector-curvature="0"
         id="path815"
         d="M -721.9345,85.333328 A 34.773811,133.04762 0 0 1 -756.70831,218.38095 34.773811,133.04762 0 0 1 -791.48212,85.333328 34.773811,133.04762 0 0 1 -756.70831,-47.714294 34.773811,133.04762 0 0 1 -721.9345,85.333328 Z"
         style="opacity:1;fill:url(#linearGradient886);fill-opacity:1;stroke-width:0.26458332" />
      <ellipse
         style="opacity:1;fill:url(#radialGradient1206);fill-opacity:1;stroke-width:0.12284625"
         id="ellipse819"
         ry="71.670906"
         rx="13.916031"
         cy="84.071198"
         cx="-759.84808" />
    </g>
    <g
       transform="matrix(1.1968828,0,0,0.82837236,287.94753,59.905179)"
       id="g942">
      <path
         style="fill:#666666;stroke:none;stroke-width:0.19839078px;stroke-linecap:butt;stroke-linejoin:miter;stroke-opacity:1"
         d="m -838.59172,-45.455948 h 6.56931 l 4.79719,8.252605 0.15728,12.029222 -3.53892,8.39248 h -6.56931 l -6.58331,-7.413358 -0.0786,-10.910223 z"
         id="path934"
         inkscape:connector-curvature="0"
         sodipodi:nodetypes="ccccccccc" />
      <path
         id="path936"
         d="m -838.5918,-45.455985 -1.95906,3.865397 6.75617,4.387329 h 6.56927 l -4.79711,-8.252726 z"
         style="fill:#4d4d4d;stroke:none;stroke-width:0.26458332px;stroke-linecap:butt;stroke-linejoin:miter;stroke-opacity:1"
         inkscape:connector-curvature="0"
         sodipodi:nodetypes="cccccc" />
      <path
         sodipodi:nodetypes="ccccccccc"
         inkscape:connector-curvature="0"
         id="path938"
         d="m -842.50919,-45.176199 3.91747,-0.279749 4.79719,8.252605 0.15728,12.029222 -3.53892,8.39248 -5.41167,0.139875 -4.35131,-8.077763 0.0613,-12.274001 z"
         style="fill:#333333;fill-opacity:1;stroke:none;stroke-width:0.19839078px;stroke-linecap:butt;stroke-linejoin:miter;stroke-opacity:1" />
      <path
         id="path940"
         d="m -833.63708,-25.174018 -3.53931,8.392252 h 6.56978 l 3.5388,-8.392252 z"
         style="fill:#4d4d4d;stroke:none;stroke-width:0.26458332px;stroke-linecap:butt;stroke-linejoin:miter;stroke-opacity:1"
         inkscape:connector-curvature="0"
         sodipodi:nodetypes="ccccc" />
    </g>
    <g
       id="g1021"
       transform="matrix(1.1968828,0,0,0.82837236,287.94753,59.905179)">
      <path
         sodipodi:nodetypes="ccccccccc"
         inkscape:connector-curvature="0"
         id="path1013"
         d="m -838.59172,-45.455948 h 6.56931 l 4.79719,8.252605 0.15728,12.029222 -3.53892,8.39248 h -6.56931 l -6.58331,-7.413358 -0.0786,-10.910223 z"
         style="fill:#666666;stroke:none;stroke-width:0.19839078px;stroke-linecap:butt;stroke-linejoin:miter;stroke-opacity:1" />
      <path
         sodipodi:nodetypes="cccccc"
         inkscape:connector-curvature="0"
         style="fill:#4d4d4d;stroke:none;stroke-width:0.26458332px;stroke-linecap:butt;stroke-linejoin:miter;stroke-opacity:1"
         d="m -838.5918,-45.455985 -1.95906,3.865397 6.75617,4.387329 h 6.56927 l -4.79711,-8.252726 z"
         id="path1015" />
      <path
         style="fill:#333333;fill-opacity:1;stroke:none;stroke-width:0.19839078px;stroke-linecap:butt;stroke-linejoin:miter;stroke-opacity:1"
         d="m -842.50919,-45.176199 3.91747,-0.279749 4.79719,8.252605 0.15728,12.029222 -3.53892,8.39248 -5.41167,0.139875 -4.35131,-8.077763 0.0613,-12.274001 z"
         id="path1017"
         inkscape:connector-curvature="0"
         sodipodi:nodetypes="ccccccccc" />
      <path
         sodipodi:nodetypes="ccccc"
         inkscape:connector-curvature="0"
         style="fill:#4d4d4d;stroke:none;stroke-width:0.26458332px;stroke-linecap:butt;stroke-linejoin:miter;stroke-opacity:1"
         d="m -833.63708,-25.174018 -3.53931,8.392252 h 6.56978 l 3.5388,-8.392252 z"
         id="path1019" />
    </g>
    <use
       x="0"
       y="0"
       xlink:href="#g1021"
       id="use1099"
       transform="translate(-31.40754,-52.336093)"
       width="100%"
       height="100%" />
    <use
       x="0"
       y="0"
       xlink:href="#g1021"
       id="use1103"
       transform="translate(-1.1432471,89.015694)"
       width="100%"
       height="100%" />
    <use
       x="0"
       y="0"
       xlink:href="#g1021"
       id="use1105"
       transform="translate(-31.407742,144.89623)"
       width="100%"
       height="100%" />
    <use
       height="100%"
       width="100%"
       x="0"
       y="0"
       xlink:href="#use1105"
       id="use1107" />
    <use
       x="0"
       y="0"
       xlink:href="#g1021"
       id="use1109"
       transform="matrix(0.91209818,0,0,0.91209818,-129.56519,94.676191)"
       width="100%"
       height="100%" />
    <use
       x="0"
       y="0"
       xlink:href="#g1021"
       id="use1111"
       transform="matrix(0.91502595,0,0,0.91502595,-126.67263,13.686197)"
       width="100%"
       height="100%" />
    <use
       x="0"
       y="0"
       xlink:href="#g1021"
       id="use1183"
       transform="translate(500.17057,3.5606278)"
       width="100%"
       height="100%" />
    <use
       x="0"
       y="0"
       xlink:href="#use1183"
       id="use1185"
       transform="translate(-2.286494,82.685685)"
       width="100%"
       height="100%" />
    <use
       x="0"
       y="0"
       xlink:href="#use1183"
       id="use1189"
       transform="translate(-31.439294,-59.739422)"
       width="100%"
       height="100%" />
    <use
       x="0"
       y="0"
       xlink:href="#use1183"
       id="use1191"
       transform="translate(-32.582541,146.38637)"
       width="100%"
       height="100%" />
  </g>
</svg>
